<?xml version="1.0" encoding="UTF-8"?>
<svg xmlns="http://www.w3.org/2000/svg" xmlns:xlink="http://www.w3.org/1999/xlink" width="30pt" height="30.000001pt" viewBox="0 0 30 30.000001" version="1.2">
<defs>
<clipPath id="clip1">
  <path d="M 0.484375 0 L 29.515625 0 L 29.515625 29.03125 L 0.484375 29.03125 Z M 0.484375 0 "/>
</clipPath>
<clipPath id="clip2">
  <path d="M 0.484375 0 L 25 0 L 25 29.03125 L 0.484375 29.03125 Z M 0.484375 0 "/>
</clipPath>
<clipPath id="clip3">
  <path d="M 8.082031 14 L 18 14 L 18 26 L 8.082031 26 Z M 8.082031 14 "/>
</clipPath>
<clipPath id="clip4">
  <path d="M 8.082031 16 L 23 16 L 23 27 L 8.082031 27 Z M 8.082031 16 "/>
</clipPath>
<clipPath id="clip5">
  <path d="M 20 9 L 27.578125 9 L 27.578125 16 L 20 16 Z M 20 9 "/>
</clipPath>
<clipPath id="clip6">
  <path d="M 13.289062 27.332031 L 15.195312 27.332031 L 15.195312 28.0625 L 13.289062 28.0625 Z M 13.289062 27.332031 "/>
</clipPath>
<clipPath id="clip7">
  <path d="M 0.484375 0 L 29.515625 0 L 29.515625 29.03125 L 0.484375 29.03125 Z M 0.484375 0 "/>
</clipPath>
</defs>
<g id="surface1">
<g clip-path="url(#clip1)" clip-rule="nonzero">
<path style=" stroke:none;fill-rule:nonzero;fill:rgb(100%,100%,100%);fill-opacity:1;" d="M 0.484375 0 L 29.515625 0 L 29.515625 36.289062 L 0.484375 36.289062 Z M 0.484375 0 "/>
<path style=" stroke:none;fill-rule:nonzero;fill:rgb(100%,100%,100%);fill-opacity:1;" d="M 0.484375 0 L 29.515625 0 L 29.515625 29.03125 L 0.484375 29.03125 Z M 0.484375 0 "/>
<path style=" stroke:none;fill-rule:nonzero;fill:rgb(100%,100%,100%);fill-opacity:1;" d="M 0.484375 0 L 29.515625 0 L 29.515625 29.03125 L 0.484375 29.03125 Z M 0.484375 0 "/>
</g>
<g clip-path="url(#clip2)" clip-rule="nonzero">
<path style="fill:none;stroke-width:2.85;stroke-linecap:butt;stroke-linejoin:miter;stroke:rgb(0%,0%,0%);stroke-opacity:1;stroke-miterlimit:4;" d="M 87.410534 -9.564283 C 87.265255 -10.072761 86.698664 -10.377849 86.190186 -10.174457 C 82.645364 -9.055804 77.226435 -7.428673 70.993941 -5.510982 C 61.056818 -2.532751 48.664469 1.215462 39.017905 4.426141 C 33.700672 6.242136 29.763596 7.665876 26.974228 8.828112 C 22.412449 10.760331 21.598883 11.661064 21.656995 12.678021 C 21.715107 13.1865 22.005666 13.883842 23.371294 14.145345 C 23.429406 14.145345 23.47299 14.145345 23.531102 14.145345 C 23.981468 14.145345 24.388251 13.840258 24.489947 13.389891 C 24.591643 12.983108 24.388251 12.576326 24.083164 12.372934 C 25.405208 11.559369 29.255117 9.743374 40.703148 5.937049 C 43.347237 5.079899 46.122077 4.164638 48.955029 3.249376 C 47.342425 9.946765 45.003424 20.334255 42.577255 31.25928 C 39.177713 46.615332 34.775741 66.475051 32.393156 74.785043 C 32.393156 74.174869 32.494852 73.506583 32.538436 72.707545 C 32.596548 72.199066 32.189765 71.690588 31.623174 71.647004 C 31.114696 71.60342 30.678857 72.010203 30.620745 72.562265 C 30.010571 79.085319 30.272074 80.160388 31.376199 80.305667 C 31.477895 80.305667 31.521479 80.349251 31.623174 80.349251 C 32.538436 80.349251 33.105026 79.28871 34.209151 75.438801 C 34.935549 72.852825 35.879866 69.206307 37.100215 64.252273 C 39.279408 55.085132 41.923497 43.230318 44.509473 31.666063 C 47.080922 20.116336 49.507091 9.118672 51.134222 2.595618 C 58.078586 0.416424 65.31351 -1.762769 71.546004 -3.636876 C 77.83661 -5.554566 83.197426 -7.181698 86.80036 -8.343934 C 87.308839 -8.503742 87.613926 -9.055804 87.410534 -9.564283 Z M 87.410534 -9.564283 " transform="matrix(0.268878,0,0,0.268878,-3.119967,4.524751)"/>
</g>
<path style=" stroke:none;fill-rule:nonzero;fill:rgb(91.758728%,32.159424%,30.198669%);fill-opacity:1;" d="M 14.160156 13.363281 C 13.917969 13.363281 13.683594 13.410156 13.460938 13.503906 C 13.234375 13.59375 13.039062 13.726562 12.867188 13.898438 C 12.695312 14.070312 12.5625 14.269531 12.46875 14.492188 C 12.375 14.71875 12.328125 14.953125 12.328125 15.195312 C 12.328125 15.4375 12.375 15.671875 12.46875 15.894531 C 12.5625 16.121094 12.695312 16.320312 12.867188 16.492188 C 13.039062 16.664062 13.234375 16.792969 13.460938 16.886719 C 13.683594 16.980469 13.917969 17.027344 14.160156 17.027344 C 14.40625 17.027344 14.636719 16.980469 14.863281 16.886719 C 15.085938 16.792969 15.285156 16.664062 15.457031 16.492188 C 15.628906 16.320312 15.761719 16.121094 15.855469 15.894531 C 15.945312 15.671875 15.992188 15.4375 15.992188 15.195312 C 15.992188 14.953125 15.945312 14.71875 15.855469 14.492188 C 15.761719 14.269531 15.628906 14.070312 15.457031 13.898438 C 15.285156 13.726562 15.085938 13.59375 14.863281 13.503906 C 14.636719 13.410156 14.40625 13.363281 14.160156 13.363281 Z M 14.160156 13.363281 "/>
<g clip-path="url(#clip3)" clip-rule="nonzero">
<path style=" stroke:none;fill-rule:nonzero;fill:rgb(0%,0%,0%);fill-opacity:1;" d="M 17.054688 14.6875 C 15.625 15.136719 14.300781 15.847656 13.074219 16.695312 C 11.914062 17.492188 10.785156 18.390625 9.839844 19.429688 C 8.964844 20.382812 8.222656 21.542969 8.128906 22.859375 C 8.085938 23.4375 8.191406 24.074219 8.5625 24.542969 C 8.90625 24.984375 9.460938 25.210938 10.007812 25.277344 C 10.882812 25.378906 11.769531 25.125 12.613281 24.933594 C 13.535156 24.71875 14.441406 24.445312 15.335938 24.128906 C 15.367188 24.117188 15.351562 24.070312 15.320312 24.078125 C 14.613281 24.324219 13.894531 24.53125 13.171875 24.730469 C 12.425781 24.9375 11.65625 25.140625 10.886719 25.214844 C 10.183594 25.28125 9.390625 25.167969 8.871094 24.65625 C 8.390625 24.183594 8.253906 23.503906 8.292969 22.859375 C 8.371094 21.570312 9.105469 20.410156 9.960938 19.480469 C 10.847656 18.519531 11.894531 17.679688 12.960938 16.917969 C 14.226562 16.015625 15.597656 15.261719 17.066406 14.730469 C 17.09375 14.722656 17.082031 14.679688 17.054688 14.6875 "/>
</g>
<path style=" stroke:none;fill-rule:nonzero;fill:rgb(0%,0%,0%);fill-opacity:1;" d="M 20.082031 21.230469 C 20.710938 20.5625 21.359375 19.8125 21.789062 19 C 21.996094 18.605469 22.132812 18.179688 22.296875 17.765625 C 22.453125 17.371094 22.613281 16.964844 22.589844 16.53125 C 22.542969 15.699219 21.671875 15.277344 20.996094 14.96875 C 20.226562 14.613281 19.390625 14.394531 18.542969 14.351562 C 17.597656 14.304688 16.632812 14.480469 15.820312 14.96875 C 15.792969 14.984375 15.816406 15.023438 15.84375 15.007812 C 17.742188 14.105469 19.960938 14.359375 21.714844 15.492188 C 22.226562 15.824219 22.511719 16.296875 22.449219 16.910156 C 22.394531 17.46875 22.148438 18.015625 21.855469 18.492188 C 21.574219 18.9375 21.34375 19.414062 21.078125 19.871094 C 20.792969 20.355469 20.449219 20.800781 20.078125 21.226562 C 20.078125 21.230469 20.082031 21.234375 20.082031 21.230469 "/>
<g clip-path="url(#clip4)" clip-rule="nonzero">
<path style=" stroke:none;fill-rule:nonzero;fill:rgb(0%,0%,0%);fill-opacity:1;" d="M 8.644531 24.519531 C 9.097656 25.046875 9.609375 25.507812 10.164062 25.925781 C 10.675781 26.316406 11.226562 26.722656 11.898438 26.722656 C 12.605469 26.71875 13.332031 26.542969 14.011719 26.367188 C 14.742188 26.179688 15.460938 25.949219 16.160156 25.675781 C 17.414062 25.191406 18.652344 24.53125 19.71875 23.71875 C 20.71875 22.957031 21.742188 22.039062 22.382812 20.945312 C 22.765625 20.289062 22.773438 19.550781 22.742188 18.816406 C 22.707031 17.960938 22.710938 17.058594 22.503906 16.222656 C 22.480469 16.140625 22.367188 16.164062 22.359375 16.242188 C 22.320312 16.90625 22.421875 17.613281 22.511719 18.273438 C 22.609375 19.015625 22.785156 19.78125 22.449219 20.492188 C 22.175781 21.066406 21.734375 21.570312 21.324219 22.046875 C 20.929688 22.507812 20.5 22.910156 20.019531 23.28125 C 18.992188 24.074219 17.828125 24.738281 16.601562 25.175781 C 15.320312 25.636719 14.019531 25.953125 12.707031 26.304688 C 12.339844 26.402344 11.964844 26.457031 11.582031 26.417969 C 11.171875 26.378906 10.863281 26.171875 10.53125 25.941406 C 9.886719 25.492188 9.296875 24.976562 8.726562 24.4375 C 8.671875 24.386719 8.597656 24.464844 8.644531 24.519531 "/>
</g>
<path style=" stroke:none;fill-rule:nonzero;fill:rgb(0%,0%,0%);fill-opacity:1;" d="M 17.5625 22.925781 C 18.578125 22.363281 19.609375 21.710938 20.398438 20.851562 C 20.425781 20.820312 20.390625 20.765625 20.355469 20.792969 C 19.40625 21.480469 18.523438 22.25 17.550781 22.910156 C 17.542969 22.914062 17.550781 22.929688 17.5625 22.925781 "/>
<g clip-path="url(#clip5)" clip-rule="nonzero">
<path style=" stroke:none;fill-rule:nonzero;fill:rgb(0%,0%,0%);fill-opacity:1;" d="M 20.582031 15.015625 C 21.300781 14.300781 22.007812 13.597656 22.796875 12.953125 C 23.183594 12.636719 23.5625 12.316406 23.878906 11.929688 C 24.164062 11.578125 24.40625 11.199219 24.664062 10.824219 C 24.941406 10.417969 25.253906 10.019531 25.660156 9.730469 C 25.964844 9.519531 26.894531 9.058594 27.175781 9.53125 C 27.386719 9.886719 26.980469 10.457031 26.765625 10.71875 C 26.539062 11 26.273438 11.242188 25.996094 11.472656 C 25.382812 11.992188 24.722656 12.496094 24.359375 13.230469 C 24.347656 13.253906 24.382812 13.273438 24.394531 13.25 C 24.824219 12.460938 25.628906 11.996094 26.304688 11.4375 C 26.800781 11.023438 27.574219 10.285156 27.394531 9.558594 C 27.175781 8.65625 25.78125 9.324219 25.355469 9.65625 C 24.464844 10.347656 24.039062 11.4375 23.238281 12.210938 C 22.757812 12.671875 22.222656 13.074219 21.746094 13.542969 C 21.296875 13.984375 20.867188 14.445312 20.511719 14.964844 C 20.484375 15.003906 20.546875 15.050781 20.582031 15.015625 "/>
</g>
<path style=" stroke:none;fill-rule:nonzero;fill:rgb(0%,0%,0%);fill-opacity:1;" d="M 24.097656 13.550781 C 24.03125 13.617188 23.960938 13.6875 23.894531 13.753906 C 23.890625 13.761719 23.898438 13.769531 23.902344 13.761719 C 23.972656 13.695312 24.042969 13.628906 24.109375 13.5625 C 24.117188 13.554688 24.105469 13.542969 24.097656 13.550781 "/>
<path style=" stroke:none;fill-rule:nonzero;fill:rgb(0%,0%,0%);fill-opacity:1;" d="M 23.636719 14.03125 C 23.511719 14.222656 23.390625 14.414062 23.269531 14.601562 C 23.257812 14.617188 23.285156 14.632812 23.292969 14.617188 C 23.417969 14.429688 23.542969 14.238281 23.667969 14.050781 C 23.679688 14.03125 23.648438 14.015625 23.636719 14.03125 "/>
<path style=" stroke:none;fill-rule:nonzero;fill:rgb(0%,0%,0%);fill-opacity:1;" d="M 23.03125 14.808594 C 22.992188 14.847656 22.949219 14.890625 22.910156 14.929688 C 22.902344 14.9375 22.914062 14.949219 22.921875 14.941406 C 22.960938 14.902344 23.003906 14.859375 23.042969 14.820312 C 23.050781 14.8125 23.039062 14.800781 23.03125 14.808594 "/>
<path style=" stroke:none;fill-rule:nonzero;fill:rgb(0%,0%,0%);fill-opacity:1;" d="M 22.722656 15.148438 C 22.578125 15.300781 22.429688 15.445312 22.277344 15.585938 C 22.203125 15.652344 22.128906 15.71875 22.050781 15.78125 C 21.96875 15.847656 21.929688 15.855469 21.898438 15.949219 C 21.886719 15.984375 21.921875 16.011719 21.953125 16.003906 C 22.109375 15.96875 22.238281 15.761719 22.339844 15.648438 C 22.480469 15.492188 22.613281 15.332031 22.742188 15.167969 C 22.753906 15.15625 22.734375 15.136719 22.722656 15.148438 "/>
<path style=" stroke:none;fill-rule:nonzero;fill:rgb(0%,0%,0%);fill-opacity:1;" d="M 26.476562 9.960938 C 26.015625 10.023438 25.632812 10.265625 25.355469 10.640625 C 25.1875 10.867188 25.132812 11.285156 25.542969 11.195312 C 25.917969 11.109375 26.46875 10.839844 26.660156 10.488281 C 26.839844 10.15625 26.523438 9.910156 26.21875 10.089844 C 26.175781 10.113281 26.191406 10.1875 26.242188 10.183594 C 26.277344 10.183594 26.367188 10.167969 26.398438 10.1875 C 26.433594 10.257812 26.46875 10.328125 26.503906 10.398438 C 26.480469 10.429688 26.457031 10.460938 26.429688 10.492188 C 26.339844 10.589844 26.222656 10.675781 26.105469 10.746094 C 26.007812 10.8125 25.902344 10.867188 25.792969 10.914062 C 25.707031 10.949219 25.414062 11.101562 25.441406 10.886719 C 25.460938 10.738281 25.757812 10.503906 25.875 10.414062 C 26.058594 10.265625 26.285156 10.121094 26.496094 10.007812 C 26.523438 9.996094 26.503906 9.960938 26.476562 9.960938 "/>
<path style=" stroke:none;fill-rule:nonzero;fill:rgb(0%,0%,0%);fill-opacity:1;" d="M 11.117188 23.277344 C 11.480469 22.796875 11.84375 22.316406 12.203125 21.832031 C 12.523438 21.398438 12.832031 20.957031 13.234375 20.597656 C 13.996094 19.921875 14.941406 19.375 15.859375 18.9375 C 16.789062 18.492188 17.761719 18.148438 18.769531 17.921875 C 19.300781 17.800781 19.847656 17.703125 20.394531 17.6875 C 20.996094 17.671875 21.527344 17.804688 22.097656 17.976562 C 22.171875 18 22.222656 17.886719 22.148438 17.851562 C 21.15625 17.351562 19.972656 17.476562 18.921875 17.679688 C 17.875 17.886719 16.851562 18.21875 15.886719 18.671875 C 14.933594 19.121094 13.964844 19.679688 13.199219 20.410156 C 12.800781 20.785156 12.496094 21.238281 12.1875 21.683594 C 11.824219 22.210938 11.464844 22.742188 11.109375 23.273438 C 11.109375 23.277344 11.113281 23.28125 11.117188 23.277344 "/>
<path style=" stroke:none;fill-rule:nonzero;fill:rgb(0%,0%,0%);fill-opacity:1;" d="M 14.019531 20.234375 C 13.8125 20.703125 13.769531 21.261719 13.703125 21.765625 C 13.625 22.359375 13.546875 22.949219 13.464844 23.539062 C 13.460938 23.574219 13.511719 23.59375 13.519531 23.554688 C 13.617188 22.988281 13.710938 22.421875 13.8125 21.859375 C 13.90625 21.339844 13.910156 20.753906 14.070312 20.257812 C 14.082031 20.226562 14.03125 20.203125 14.019531 20.234375 "/>
<path style=" stroke:none;fill-rule:nonzero;fill:rgb(0%,0%,0%);fill-opacity:1;" d="M 14.339844 21.921875 C 14.191406 22.625 13.988281 23.316406 13.859375 24.023438 C 13.851562 24.066406 13.910156 24.085938 13.925781 24.042969 C 14.15625 23.363281 14.257812 22.632812 14.355469 21.925781 C 14.359375 21.914062 14.34375 21.910156 14.339844 21.921875 "/>
<path style=" stroke:none;fill-rule:nonzero;fill:rgb(0%,0%,0%);fill-opacity:1;" d="M 12.71875 22.851562 C 13.785156 22.410156 14.839844 21.941406 15.886719 21.453125 C 16.953125 20.957031 18.082031 20.507812 19.097656 19.914062 C 19.140625 19.886719 19.113281 19.8125 19.0625 19.832031 C 17.980469 20.210938 16.941406 20.765625 15.898438 21.242188 C 14.820312 21.738281 13.75 22.25 12.695312 22.792969 C 12.664062 22.808594 12.683594 22.867188 12.71875 22.851562 "/>
<path style=" stroke:none;fill-rule:nonzero;fill:rgb(0%,0%,0%);fill-opacity:1;" d="M 16.363281 20.550781 C 16.640625 20.433594 16.9375 20.339844 17.226562 20.246094 C 17.265625 20.234375 17.25 20.179688 17.207031 20.1875 C 16.890625 20.242188 16.621094 20.355469 16.339844 20.511719 C 16.3125 20.527344 16.335938 20.5625 16.363281 20.550781 "/>
<path style=" stroke:none;fill-rule:nonzero;fill:rgb(0%,0%,0%);fill-opacity:1;" d="M 10.691406 25.214844 C 10.644531 24.976562 10.679688 24.746094 10.796875 24.53125 C 10.804688 24.519531 10.78125 24.507812 10.777344 24.519531 C 10.664062 24.738281 10.628906 24.976562 10.679688 25.21875 C 10.679688 25.226562 10.691406 25.222656 10.691406 25.214844 "/>
<path style=" stroke:none;fill-rule:nonzero;fill:rgb(0%,0%,0%);fill-opacity:1;" d="M 10.796875 24.445312 C 10.851562 24.191406 10.925781 23.945312 11.027344 23.707031 C 11.03125 23.691406 11.003906 23.683594 11 23.699219 C 10.902344 23.941406 10.828125 24.183594 10.773438 24.4375 C 10.773438 24.453125 10.792969 24.460938 10.796875 24.445312 "/>
<path style=" stroke:none;fill-rule:nonzero;fill:rgb(0%,0%,0%);fill-opacity:1;" d="M 20.492188 14.949219 C 20.785156 15.03125 21.066406 15.238281 21.300781 15.421875 C 21.515625 15.59375 21.753906 15.746094 21.941406 15.949219 C 22.378906 16.425781 22.320312 17.046875 22.402344 17.636719 C 22.417969 17.730469 22.554688 17.714844 22.578125 17.636719 C 22.777344 16.957031 22.726562 16.203125 22.234375 15.660156 C 21.996094 15.402344 21.703125 15.222656 21.390625 15.066406 C 21.078125 14.914062 20.832031 14.777344 20.492188 14.917969 C 20.476562 14.921875 20.472656 14.945312 20.492188 14.949219 "/>
<path style=" stroke:none;fill-rule:nonzero;fill:rgb(0%,0%,0%);fill-opacity:1;" d="M 22.375 16.734375 C 22.578125 15.953125 22.894531 15.203125 23.398438 14.574219 C 23.609375 14.308594 23.847656 14.046875 24 13.746094 C 24.179688 13.402344 24.34375 13.109375 24.640625 12.851562 C 24.667969 12.832031 24.648438 12.78125 24.613281 12.785156 C 24.289062 12.816406 24.109375 13.097656 23.941406 13.34375 C 23.667969 13.738281 23.28125 14.011719 22.953125 14.347656 C 22.308594 15.007812 21.957031 15.839844 22.304688 16.734375 C 22.316406 16.765625 22.367188 16.773438 22.375 16.734375 "/>
<path style=" stroke:none;fill-rule:nonzero;fill:rgb(0%,0%,0%);fill-opacity:1;" d="M 24.125 13.332031 C 24.34375 13.089844 24.570312 12.847656 24.816406 12.632812 C 25.058594 12.414062 25.332031 12.222656 25.570312 12 C 25.609375 11.964844 25.558594 11.914062 25.515625 11.933594 C 24.921875 12.195312 24.421875 12.761719 24.089844 13.304688 C 24.074219 13.324219 24.109375 13.351562 24.125 13.332031 "/>
<path style=" stroke:none;fill-rule:nonzero;fill:rgb(0%,0%,0%);fill-opacity:1;" d="M 12.796875 27.394531 C 14.039062 27.0625 15.273438 26.71875 16.492188 26.316406 C 16.539062 26.300781 16.519531 26.230469 16.472656 26.246094 C 15.230469 26.574219 14.007812 26.960938 12.789062 27.359375 C 12.769531 27.367188 12.777344 27.398438 12.796875 27.394531 "/>
<g clip-path="url(#clip6)" clip-rule="nonzero">
<path style=" stroke:none;fill-rule:nonzero;fill:rgb(0%,0%,0%);fill-opacity:1;" d="M 13.335938 28.0625 C 13.976562 27.921875 14.578125 27.765625 15.160156 27.460938 C 15.222656 27.425781 15.179688 27.3125 15.109375 27.339844 C 14.519531 27.570312 13.925781 27.824219 13.316406 27.988281 C 13.269531 28.003906 13.289062 28.070312 13.335938 28.0625 "/>
</g>
<path style=" stroke:none;fill-rule:nonzero;fill:rgb(0%,0%,0%);fill-opacity:1;" d="M 15.628906 13.957031 C 16.757812 13.617188 17.898438 13.5 19.0625 13.371094 C 19.128906 13.363281 19.128906 13.269531 19.0625 13.265625 C 17.898438 13.207031 16.699219 13.507812 15.617188 13.910156 C 15.589844 13.921875 15.601562 13.964844 15.628906 13.957031 "/>
<path style=" stroke:none;fill-rule:nonzero;fill:rgb(0%,0%,0%);fill-opacity:1;" d="M 17.175781 12.71875 C 17.441406 12.726562 17.695312 12.800781 17.957031 12.828125 C 18 12.832031 18.019531 12.761719 17.976562 12.746094 C 17.726562 12.632812 17.441406 12.652344 17.175781 12.683594 C 17.15625 12.6875 17.152344 12.71875 17.175781 12.71875 "/>
<path style=" stroke:none;fill-rule:nonzero;fill:rgb(0%,0%,0%);fill-opacity:1;" d="M 16.6875 15.910156 C 17.015625 16.621094 17.269531 17.367188 17.65625 18.050781 C 17.671875 18.078125 17.71875 18.058594 17.707031 18.027344 C 17.433594 17.292969 17.023438 16.617188 16.691406 15.90625 C 16.691406 15.902344 16.683594 15.90625 16.6875 15.910156 "/>
<path style=" stroke:none;fill-rule:nonzero;fill:rgb(0%,0%,0%);fill-opacity:1;" d="M 17.070312 16.121094 C 17.28125 16.734375 17.542969 17.355469 17.941406 17.875 C 17.964844 17.90625 18.015625 17.890625 18.003906 17.847656 C 17.980469 17.75 17.953125 17.683594 17.886719 17.605469 C 17.875 17.589844 17.851562 17.609375 17.859375 17.625 C 17.886719 17.703125 17.910156 17.78125 17.933594 17.859375 C 17.957031 17.851562 17.980469 17.847656 18 17.839844 C 17.667969 17.273438 17.335938 16.730469 17.09375 16.113281 C 17.089844 16.101562 17.066406 16.105469 17.070312 16.121094 "/>
<path style=" stroke:none;fill-rule:nonzero;fill:rgb(0%,0%,0%);fill-opacity:1;" d="M 17.390625 16.351562 C 17.65625 16.816406 17.890625 17.339844 18.230469 17.753906 C 18.246094 17.777344 18.277344 17.746094 18.265625 17.722656 C 18.050781 17.238281 17.6875 16.792969 17.394531 16.351562 C 17.394531 16.347656 17.386719 16.351562 17.390625 16.351562 "/>
<path style=" stroke:none;fill-rule:nonzero;fill:rgb(0%,0%,0%);fill-opacity:1;" d="M 17.902344 16.40625 C 18.089844 16.78125 18.246094 17.179688 18.519531 17.507812 C 18.535156 17.527344 18.566406 17.5 18.554688 17.480469 C 18.359375 17.109375 18.097656 16.777344 17.910156 16.398438 C 17.910156 16.394531 17.898438 16.398438 17.902344 16.40625 "/>
<path style=" stroke:none;fill-rule:nonzero;fill:rgb(0%,0%,0%);fill-opacity:1;" d="M 18.3125 16.402344 C 18.46875 16.742188 18.59375 17.089844 18.765625 17.421875 C 18.773438 17.4375 18.804688 17.425781 18.796875 17.40625 C 18.65625 17.0625 18.472656 16.738281 18.316406 16.402344 C 18.316406 16.402344 18.3125 16.402344 18.3125 16.402344 "/>
<path style=" stroke:none;fill-rule:nonzero;fill:rgb(0%,0%,0%);fill-opacity:1;" d="M 18.671875 16.25 C 18.90625 16.613281 19.050781 17.015625 19.179688 17.425781 C 19.191406 17.460938 19.242188 17.445312 19.234375 17.410156 C 19.15625 16.980469 18.949219 16.59375 18.699219 16.234375 C 18.6875 16.214844 18.660156 16.230469 18.671875 16.25 "/>
<path style=" stroke:none;fill-rule:nonzero;fill:rgb(0%,0%,0%);fill-opacity:1;" d="M 19.085938 16.410156 C 19.253906 16.738281 19.386719 17.085938 19.539062 17.425781 C 19.546875 17.445312 19.585938 17.429688 19.578125 17.40625 C 19.46875 17.050781 19.296875 16.714844 19.117188 16.390625 C 19.105469 16.371094 19.074219 16.386719 19.085938 16.410156 "/>
<path style=" stroke:none;fill-rule:nonzero;fill:rgb(0%,0%,0%);fill-opacity:1;" d="M 19.570312 16.285156 C 19.726562 16.683594 19.839844 17.097656 19.984375 17.5 C 19.992188 17.535156 20.042969 17.519531 20.035156 17.488281 C 19.941406 17.070312 19.769531 16.664062 19.601562 16.273438 C 19.59375 16.253906 19.5625 16.265625 19.570312 16.285156 "/>
<path style=" stroke:none;fill-rule:nonzero;fill:rgb(0%,0%,0%);fill-opacity:1;" d="M 19.839844 16.320312 C 20.015625 16.730469 20.101562 17.15625 20.230469 17.582031 C 20.234375 17.605469 20.277344 17.601562 20.273438 17.578125 C 20.234375 17.132812 20.054688 16.703125 19.863281 16.304688 C 19.855469 16.289062 19.832031 16.304688 19.839844 16.320312 "/>
<path style=" stroke:none;fill-rule:nonzero;fill:rgb(0%,0%,0%);fill-opacity:1;" d="M 20.371094 16.355469 C 20.394531 16.714844 20.40625 17.128906 20.53125 17.46875 C 20.542969 17.5 20.601562 17.5 20.597656 17.457031 C 20.5625 17.089844 20.445312 16.722656 20.394531 16.355469 C 20.394531 16.339844 20.371094 16.34375 20.371094 16.355469 "/>
<path style=" stroke:none;fill-rule:nonzero;fill:rgb(0%,0%,0%);fill-opacity:1;" d="M 20.632812 16.316406 C 20.644531 16.480469 20.644531 16.648438 20.671875 16.8125 C 20.675781 16.832031 20.710938 16.828125 20.710938 16.804688 C 20.710938 16.644531 20.6875 16.480469 20.671875 16.316406 C 20.671875 16.292969 20.632812 16.292969 20.632812 16.316406 "/>
<path style=" stroke:none;fill-rule:nonzero;fill:rgb(0%,0%,0%);fill-opacity:1;" d="M 13.96875 18.195312 C 14.199219 18.472656 14.359375 18.777344 14.527344 19.09375 C 14.539062 19.117188 14.582031 19.101562 14.574219 19.074219 C 14.441406 18.742188 14.222656 18.445312 13.984375 18.179688 C 13.972656 18.171875 13.960938 18.183594 13.96875 18.195312 "/>
<path style=" stroke:none;fill-rule:nonzero;fill:rgb(0%,0%,0%);fill-opacity:1;" d="M 13.695312 21.84375 C 14.175781 21.632812 14.667969 21.445312 15.132812 21.203125 C 15.15625 21.195312 15.140625 21.160156 15.117188 21.167969 C 14.628906 21.355469 14.160156 21.601562 13.683594 21.824219 C 13.667969 21.828125 13.679688 21.847656 13.695312 21.84375 "/>
<path style=" stroke:none;fill-rule:nonzero;fill:rgb(0%,0%,0%);fill-opacity:1;" d="M 13.738281 21.488281 C 13.949219 21.375 14.160156 21.261719 14.363281 21.136719 C 14.375 21.125 14.363281 21.105469 14.347656 21.113281 C 14.136719 21.222656 13.933594 21.347656 13.730469 21.472656 C 13.71875 21.476562 13.730469 21.492188 13.738281 21.488281 "/>
<path style=" stroke:none;fill-rule:nonzero;fill:rgb(0%,0%,0%);fill-opacity:1;" d="M 13.734375 21.269531 C 13.976562 21.222656 14.230469 21.144531 14.4375 21.003906 C 14.457031 20.992188 14.441406 20.964844 14.421875 20.972656 C 14.195312 21.09375 13.980469 21.203125 13.730469 21.261719 C 13.726562 21.261719 13.726562 21.273438 13.734375 21.269531 "/>
<path style=" stroke:none;fill-rule:nonzero;fill:rgb(0%,0%,0%);fill-opacity:1;" d="M 13.445312 21.066406 C 13.625 20.992188 13.808594 20.921875 13.984375 20.832031 C 14 20.824219 13.988281 20.796875 13.972656 20.804688 C 13.789062 20.878906 13.617188 20.96875 13.441406 21.058594 C 13.4375 21.0625 13.4375 21.066406 13.445312 21.066406 "/>
<path style=" stroke:none;fill-rule:nonzero;fill:rgb(0%,0%,0%);fill-opacity:1;" d="M 10.113281 22.300781 C 10.304688 22.476562 10.484375 22.675781 10.691406 22.832031 C 10.707031 22.84375 10.730469 22.816406 10.714844 22.800781 C 10.535156 22.613281 10.320312 22.460938 10.125 22.289062 C 10.117188 22.285156 10.105469 22.292969 10.113281 22.300781 "/>
<path style=" stroke:none;fill-rule:nonzero;fill:rgb(0%,0%,0%);fill-opacity:1;" d="M 9.332031 25.070312 C 10.003906 25.511719 10.625 26.003906 11.246094 26.511719 C 11.273438 26.535156 11.316406 26.496094 11.289062 26.46875 C 11.101562 26.304688 10.910156 26.15625 10.703125 26.015625 C 10.6875 26.007812 10.675781 26.03125 10.6875 26.042969 C 10.820312 26.136719 10.949219 26.292969 11.09375 26.367188 C 11.195312 26.417969 11.238281 26.46875 11.113281 26.320312 C 10.984375 26.167969 10.773438 26.050781 10.613281 25.929688 C 10.203125 25.621094 9.777344 25.332031 9.335938 25.066406 C 9.332031 25.0625 9.332031 25.070312 9.332031 25.070312 "/>
<path style=" stroke:none;fill-rule:nonzero;fill:rgb(0%,0%,0%);fill-opacity:1;" d="M 10.332031 25.777344 C 10.28125 25.738281 9.710938 25.304688 9.707031 25.308594 C 9.726562 25.285156 10.28125 25.652344 10.339844 25.691406 C 10.574219 25.84375 10.804688 26.007812 11.023438 26.179688 C 11.105469 26.246094 11.1875 26.3125 11.269531 26.382812 C 11.320312 26.429688 11.375 26.472656 11.433594 26.515625 C 11.488281 26.46875 11.46875 26.429688 11.375 26.398438 C 11.230469 26.207031 10.941406 26.039062 10.753906 25.882812 C 10.640625 25.789062 10.527344 25.671875 10.40625 25.585938 C 10.34375 25.546875 10.222656 25.441406 10.394531 25.585938 C 10.585938 25.753906 10.820312 25.882812 11.023438 26.035156 C 11.289062 26.226562 11.546875 26.433594 11.804688 26.632812 C 11.835938 26.65625 11.878906 26.617188 11.847656 26.59375 C 11.753906 26.515625 10.71875 25.621094 10.726562 25.609375 C 10.78125 25.546875 11.855469 26.4375 11.964844 26.527344 C 12 26.554688 12.046875 26.511719 12.015625 26.480469 C 11.78125 26.277344 11.546875 26.074219 11.316406 25.863281 C 11.304688 25.855469 11.292969 25.867188 11.300781 25.875 C 11.527344 26.089844 11.746094 26.308594 11.964844 26.527344 C 11.984375 26.511719 12 26.496094 12.015625 26.480469 C 11.597656 26.113281 11.132812 25.796875 10.640625 25.527344 C 10.628906 25.523438 10.613281 25.539062 10.625 25.550781 C 10.859375 25.75 11.082031 25.957031 11.308594 26.164062 C 11.410156 26.257812 11.523438 26.398438 11.644531 26.472656 C 11.875 26.613281 11.683594 26.453125 11.59375 26.382812 C 11.15625 26.039062 10.699219 25.726562 10.230469 25.429688 C 10.210938 25.417969 10.1875 25.449219 10.207031 25.460938 C 10.65625 25.820312 11.082031 26.207031 11.515625 26.585938 C 11.539062 26.609375 11.578125 26.570312 11.550781 26.546875 C 10.996094 26.019531 10.316406 25.566406 9.617188 25.246094 C 9.609375 25.242188 9.605469 25.25 9.613281 25.257812 C 9.851562 25.433594 10.089844 25.609375 10.328125 25.785156 C 10.332031 25.789062 10.335938 25.78125 10.332031 25.777344 "/>
<path style=" stroke:none;fill-rule:nonzero;fill:rgb(0%,0%,0%);fill-opacity:1;" d="M 11.152344 25.726562 C 11.074219 25.617188 11.085938 25.617188 11.1875 25.722656 C 11.25 25.773438 11.308594 25.824219 11.367188 25.875 C 11.472656 25.964844 11.574219 26.054688 11.679688 26.144531 C 11.875 26.3125 12.066406 26.484375 12.273438 26.640625 C 12.296875 26.660156 12.332031 26.613281 12.308594 26.59375 C 12.148438 26.46875 12.003906 26.324219 11.863281 26.175781 C 11.796875 26.101562 11.730469 26.023438 11.664062 25.945312 C 11.652344 25.929688 11.386719 25.6875 11.527344 25.734375 C 11.714844 25.792969 11.933594 26.039062 12.078125 26.171875 C 12.238281 26.320312 12.382812 26.484375 12.53125 26.644531 C 12.546875 26.660156 12.570312 26.640625 12.558594 26.625 C 12.269531 26.210938 11.859375 25.867188 11.421875 25.617188 C 11.40625 25.609375 11.386719 25.625 11.398438 25.640625 C 11.519531 25.804688 11.644531 25.964844 11.777344 26.121094 C 11.855469 26.210938 11.933594 26.296875 12.019531 26.382812 C 12.054688 26.417969 12.203125 26.628906 12.222656 26.515625 C 12.230469 26.445312 11.640625 26.039062 11.582031 25.992188 C 11.398438 25.84375 11.214844 25.695312 11.027344 25.550781 C 11.019531 25.546875 11.011719 25.554688 11.011719 25.558594 C 11.015625 25.660156 11.054688 25.707031 11.148438 25.738281 C 11.15625 25.738281 11.15625 25.730469 11.152344 25.726562 "/>
<path style=" stroke:none;fill-rule:nonzero;fill:rgb(0%,0%,0%);fill-opacity:1;" d="M 12.058594 25.777344 C 12.277344 26 12.484375 26.234375 12.710938 26.453125 C 12.71875 26.460938 12.734375 26.453125 12.734375 26.445312 C 12.742188 26.390625 12.71875 26.363281 12.671875 26.347656 C 12.664062 26.347656 12.65625 26.359375 12.664062 26.363281 C 12.703125 26.382812 12.703125 26.402344 12.660156 26.359375 C 12.628906 26.328125 12.597656 26.296875 12.566406 26.265625 C 12.511719 26.210938 12.453125 26.15625 12.398438 26.101562 C 12.285156 25.992188 12.171875 25.882812 12.0625 25.773438 C 12.058594 25.769531 12.054688 25.773438 12.058594 25.777344 "/>
<path style=" stroke:none;fill-rule:nonzero;fill:rgb(0%,0%,0%);fill-opacity:1;" d="M 12.179688 25.492188 C 12.453125 25.746094 12.71875 26.015625 12.996094 26.269531 C 13.007812 26.277344 13.023438 26.261719 13.015625 26.25 C 12.765625 25.972656 12.472656 25.722656 12.183594 25.488281 C 12.179688 25.484375 12.171875 25.488281 12.179688 25.492188 "/>
<path style=" stroke:none;fill-rule:nonzero;fill:rgb(0%,0%,0%);fill-opacity:1;" d="M 12.589844 25.53125 C 12.839844 25.746094 13.0625 25.984375 13.28125 26.230469 C 13.289062 26.242188 13.308594 26.226562 13.300781 26.214844 C 13.105469 25.949219 12.863281 25.722656 12.59375 25.523438 C 12.589844 25.519531 12.582031 25.527344 12.589844 25.53125 "/>
<path style=" stroke:none;fill-rule:nonzero;fill:rgb(0%,0%,0%);fill-opacity:1;" d="M 13.035156 25.578125 C 13.074219 25.621094 13.117188 25.660156 13.15625 25.703125 C 13.160156 25.707031 13.167969 25.699219 13.160156 25.695312 C 13.121094 25.65625 13.078125 25.617188 13.035156 25.578125 C 13.035156 25.574219 13.035156 25.578125 13.035156 25.578125 "/>
<path style=" stroke:none;fill-rule:nonzero;fill:rgb(0%,0%,0%);fill-opacity:1;" d="M 22.488281 17.863281 C 22.5625 18.5625 22.542969 19.273438 22.621094 19.972656 C 22.625 20.019531 22.691406 20.019531 22.695312 19.972656 C 22.75 19.277344 22.617188 18.542969 22.5 17.859375 C 22.5 17.855469 22.488281 17.855469 22.488281 17.863281 "/>
<path style=" stroke:none;fill-rule:nonzero;fill:rgb(0%,0%,0%);fill-opacity:1;" d="M 22.320312 18.800781 C 22.414062 19.3125 22.4375 19.832031 22.519531 20.347656 C 22.527344 20.378906 22.578125 20.371094 22.578125 20.339844 C 22.5625 19.816406 22.4375 19.304688 22.335938 18.796875 C 22.332031 18.785156 22.320312 18.789062 22.320312 18.800781 "/>
<path style=" stroke:none;fill-rule:nonzero;fill:rgb(0%,0%,0%);fill-opacity:1;" d="M 22.117188 18.882812 C 22.203125 19.457031 22.265625 20.054688 22.425781 20.613281 C 22.449219 20.597656 22.476562 20.582031 22.5 20.570312 C 22.472656 20.535156 22.4375 20.507812 22.40625 20.476562 C 22.378906 20.457031 22.332031 20.484375 22.355469 20.515625 C 22.386719 20.566406 22.398438 20.582031 22.4375 20.632812 C 22.46875 20.671875 22.515625 20.625 22.511719 20.589844 C 22.429688 20.011719 22.28125 19.441406 22.191406 18.863281 C 22.183594 18.816406 22.113281 18.835938 22.117188 18.882812 "/>
<path style=" stroke:none;fill-rule:nonzero;fill:rgb(0%,0%,0%);fill-opacity:1;" d="M 21.921875 19.039062 C 22.023438 19.652344 22.113281 20.265625 22.222656 20.875 C 22.226562 20.90625 22.277344 20.898438 22.277344 20.867188 C 22.238281 20.257812 22.109375 19.625 21.933594 19.039062 C 21.929688 19.03125 21.921875 19.035156 21.921875 19.039062 "/>
<path style=" stroke:none;fill-rule:nonzero;fill:rgb(0%,0%,0%);fill-opacity:1;" d="M 21.886719 19.851562 C 21.945312 20.300781 21.980469 20.753906 22.082031 21.195312 C 22.089844 21.222656 22.132812 21.21875 22.128906 21.191406 C 22.085938 20.738281 21.976562 20.292969 21.894531 19.851562 C 21.890625 19.847656 21.886719 19.847656 21.886719 19.851562 "/>
<path style=" stroke:none;fill-rule:nonzero;fill:rgb(0%,0%,0%);fill-opacity:1;" d="M 21.675781 19.769531 C 21.664062 20.289062 21.6875 20.851562 21.792969 21.359375 C 21.796875 21.386719 21.84375 21.382812 21.839844 21.351562 C 21.828125 20.832031 21.753906 20.289062 21.683594 19.769531 C 21.683594 19.765625 21.675781 19.765625 21.675781 19.769531 "/>
<path style=" stroke:none;fill-rule:nonzero;fill:rgb(0%,0%,0%);fill-opacity:1;" d="M 21.464844 20.054688 C 21.488281 20.574219 21.480469 21.128906 21.574219 21.640625 C 21.578125 21.667969 21.617188 21.660156 21.617188 21.636719 C 21.640625 21.117188 21.539062 20.570312 21.46875 20.054688 C 21.46875 20.050781 21.464844 20.050781 21.464844 20.054688 "/>
<path style=" stroke:none;fill-rule:nonzero;fill:rgb(0%,0%,0%);fill-opacity:1;" d="M 21.050781 20.503906 C 21.125 20.976562 21.140625 21.453125 21.207031 21.925781 C 21.210938 21.945312 21.242188 21.941406 21.242188 21.921875 C 21.25 21.449219 21.152344 20.960938 21.058594 20.503906 C 21.054688 20.5 21.050781 20.5 21.050781 20.503906 "/>
<path style=" stroke:none;fill-rule:nonzero;fill:rgb(0%,0%,0%);fill-opacity:1;" d="M 20.804688 20.707031 C 20.902344 21.246094 20.941406 21.785156 20.976562 22.328125 C 20.976562 22.351562 21.015625 22.355469 21.015625 22.328125 C 21.019531 21.785156 20.933594 21.234375 20.8125 20.707031 C 20.808594 20.703125 20.804688 20.703125 20.804688 20.707031 "/>
<path style=" stroke:none;fill-rule:nonzero;fill:rgb(0%,0%,0%);fill-opacity:1;" d="M 20.609375 21.515625 C 20.636719 21.976562 20.625 22.4375 20.640625 22.898438 C 20.640625 22.925781 20.683594 22.925781 20.683594 22.898438 C 20.707031 22.4375 20.660156 21.976562 20.613281 21.515625 C 20.613281 21.515625 20.609375 21.515625 20.609375 21.515625 "/>
<path style=" stroke:none;fill-rule:nonzero;fill:rgb(0%,0%,0%);fill-opacity:1;" d="M 20.292969 22.207031 C 20.28125 22.347656 20.300781 22.492188 20.363281 22.617188 C 20.367188 22.625 20.378906 22.617188 20.375 22.613281 C 20.316406 22.480469 20.285156 22.351562 20.292969 22.207031 "/>
<path style=" stroke:none;fill-rule:nonzero;fill:rgb(0%,0%,0%);fill-opacity:1;" d="M 22.5 19.074219 C 21.589844 20.449219 20.417969 21.589844 19.0625 22.527344 C 19.03125 22.546875 19.058594 22.597656 19.089844 22.578125 C 20.488281 21.703125 21.648438 20.472656 22.5 19.074219 "/>
<path style=" stroke:none;fill-rule:nonzero;fill:rgb(0%,0%,0%);fill-opacity:1;" d="M 21.027344 21.230469 C 20.683594 21.566406 20.335938 21.898438 19.996094 22.238281 C 19.980469 22.253906 20.003906 22.277344 20.019531 22.261719 C 20.363281 21.925781 20.695312 21.578125 21.035156 21.238281 C 21.042969 21.234375 21.03125 21.222656 21.027344 21.230469 "/>
<path style=" stroke:none;fill-rule:nonzero;fill:rgb(0%,0%,0%);fill-opacity:1;" d="M 23.777344 15.425781 C 24.117188 14.710938 24.632812 14.160156 25.15625 13.582031 C 25.179688 13.554688 25.140625 13.519531 25.113281 13.539062 C 24.507812 14.023438 24.101562 14.738281 23.773438 15.421875 C 23.773438 15.425781 23.777344 15.425781 23.777344 15.425781 "/>
<path style=" stroke:none;fill-rule:nonzero;fill:rgb(0%,0%,0%);fill-opacity:1;" d="M 25.460938 13.480469 C 25.144531 13.769531 24.820312 14.09375 24.601562 14.46875 C 24.589844 14.496094 24.628906 14.527344 24.648438 14.503906 C 24.917969 14.160156 25.167969 13.808594 25.476562 13.496094 C 25.488281 13.484375 25.472656 13.46875 25.460938 13.480469 "/>
<path style=" stroke:none;fill-rule:nonzero;fill:rgb(0%,0%,0%);fill-opacity:1;" d="M 24.390625 15.667969 C 24.199219 15.9375 23.988281 16.257812 23.933594 16.589844 C 23.929688 16.617188 23.972656 16.640625 23.984375 16.609375 C 24.121094 16.289062 24.214844 15.976562 24.410156 15.679688 C 24.421875 15.667969 24.402344 15.65625 24.390625 15.667969 "/>
<path style=" stroke:none;fill-rule:nonzero;fill:rgb(0%,0%,0%);fill-opacity:1;" d="M 23.585938 19.449219 C 23.375 20.078125 23.097656 20.6875 22.757812 21.257812 C 22.433594 21.808594 22.027344 22.285156 21.664062 22.804688 C 21.644531 22.835938 21.6875 22.863281 21.710938 22.84375 C 22.183594 22.410156 22.546875 21.808594 22.851562 21.253906 C 23.164062 20.679688 23.402344 20.074219 23.585938 19.449219 "/>
<path style=" stroke:none;fill-rule:nonzero;fill:rgb(0%,0%,0%);fill-opacity:1;" d="M 23.945312 20.054688 C 23.707031 20.6875 23.308594 21.171875 22.871094 21.675781 C 22.828125 21.722656 22.890625 21.78125 22.9375 21.742188 C 23.460938 21.324219 23.773438 20.683594 23.960938 20.0625 C 23.964844 20.050781 23.949219 20.042969 23.945312 20.054688 "/>
<path style=" stroke:none;fill-rule:nonzero;fill:rgb(0%,0%,0%);fill-opacity:1;" d="M 23.957031 21.21875 C 23.890625 21.320312 23.8125 21.410156 23.726562 21.496094 C 23.652344 21.566406 23.574219 21.632812 23.515625 21.714844 C 23.496094 21.742188 23.53125 21.765625 23.554688 21.753906 C 23.75 21.65625 23.882812 21.421875 23.988281 21.234375 C 24 21.214844 23.96875 21.199219 23.957031 21.21875 "/>
<g clip-path="url(#clip7)" clip-rule="nonzero">
<path style=" stroke:none;fill-rule:nonzero;fill:rgb(91.758728%,32.159424%,30.198669%);fill-opacity:1;" d="M 0.484375 0 L 0.484375 29.089844 L 29.574219 29.089844 L 29.574219 0 Z M 28.980469 28.496094 L 1.066406 28.496094 L 1.066406 0.582031 L 28.980469 0.582031 Z M 28.980469 28.496094 "/>
</g>
</g>
</svg>
