<?xml version="1.0" encoding="UTF-8"?>
<svg xmlns="http://www.w3.org/2000/svg" xmlns:xlink="http://www.w3.org/1999/xlink" width="30pt" height="30.000001pt" viewBox="0 0 30 30.000001" version="1.2">
<defs>
<clipPath id="clip1">
  <path d="M 0.484375 0 L 29.515625 0 L 29.515625 29.03125 L 0.484375 29.03125 Z M 0.484375 0 "/>
</clipPath>
</defs>
<g id="surface1">
<g clip-path="url(#clip1)" clip-rule="nonzero">
<path style=" stroke:none;fill-rule:nonzero;fill:rgb(100%,100%,100%);fill-opacity:1;" d="M 0.484375 0 L 29.515625 0 L 29.515625 36.289062 L 0.484375 36.289062 Z M 0.484375 0 "/>
<path style=" stroke:none;fill-rule:nonzero;fill:rgb(100%,100%,100%);fill-opacity:1;" d="M 0.484375 0 L 29.515625 0 L 29.515625 29.03125 L 0.484375 29.03125 Z M 0.484375 0 "/>
<path style=" stroke:none;fill-rule:nonzero;fill:rgb(100%,100%,100%);fill-opacity:1;" d="M 0.484375 0 L 29.515625 0 L 29.515625 29.03125 L 0.484375 29.03125 Z M 0.484375 0 "/>
<path style=" stroke:none;fill-rule:nonzero;fill:rgb(95.689392%,0%,25.878906%);fill-opacity:1;" d="M 28.140625 29.089844 L 1.917969 29.089844 C 1.128906 29.089844 0.484375 28.445312 0.484375 27.65625 L 0.484375 1.433594 C 0.484375 0.644531 1.128906 0 1.917969 0 L 28.140625 0 C 28.929688 0 29.574219 0.644531 29.574219 1.433594 L 29.574219 27.65625 C 29.574219 28.445312 28.929688 29.089844 28.140625 29.089844 Z M 28.140625 29.089844 "/>
<path style="fill:none;stroke-width:3.483333;stroke-linecap:butt;stroke-linejoin:miter;stroke:rgb(100%,96.469116%,97.24884%);stroke-opacity:1;stroke-miterlimit:4;" d="M 87.414256 -9.565084 C 87.262851 -10.069766 86.707701 -10.385192 86.190401 -10.170702 C 82.645008 -9.060401 77.23229 -7.432801 70.999464 -5.502391 C 61.069839 -2.524765 48.654654 1.222501 39.027839 4.427234 C 33.70344 6.24409 29.754301 7.669817 26.978549 8.830587 C 22.411174 10.760997 21.591065 11.656808 21.65415 12.678789 C 21.704618 13.183472 22.007428 13.890027 23.382687 14.142368 C 23.433155 14.142368 23.471007 14.142368 23.521475 14.142368 C 23.988306 14.142368 24.392052 13.839559 24.492988 13.397962 C 24.593925 12.981599 24.392052 12.577853 24.089242 12.37598 C 25.401416 11.555871 29.249619 9.739015 40.705908 5.928663 C 43.342873 5.083321 46.118625 4.162275 48.957463 3.253847 C 47.329863 9.940888 45.008324 20.324726 42.573232 31.263716 C 39.179244 46.618675 34.763273 66.477924 32.391266 74.792565 C 32.391266 74.186947 32.492203 73.518243 32.542671 72.710751 C 32.593139 72.206069 32.189394 71.701386 31.621626 71.650918 C 31.116944 71.60045 30.675347 72.004196 30.624878 72.559346 C 30.006643 79.094982 30.271601 80.154815 31.381902 80.30622 C 31.482838 80.30622 31.533307 80.356688 31.621626 80.356688 C 32.542671 80.356688 33.097822 79.284238 34.208123 75.448652 C 34.927295 72.862156 35.886192 69.215826 37.110046 64.244705 C 39.28018 55.084721 41.917145 43.224687 44.503642 31.667461 C 47.090139 20.122854 49.512614 9.120779 51.127597 2.59776 C 58.079596 0.415009 65.321788 -1.755125 71.554614 -3.635066 C 77.837909 -5.552859 83.200159 -7.18046 86.79602 -8.353846 C 87.313319 -8.505251 87.616129 -9.060401 87.414256 -9.565084 Z M 87.414256 -9.565084 " transform="matrix(0.309601,0,0,0.309601,-1.813515,3.680107)"/>
</g>
<path style=" stroke:none;fill-rule:nonzero;fill:rgb(100%,96.469116%,97.24884%);fill-opacity:1;" d="M 21.550781 18.640625 C 21.105469 18.640625 20.679688 18.726562 20.269531 18.894531 C 19.859375 19.066406 19.496094 19.308594 19.183594 19.621094 C 18.867188 19.9375 18.625 20.296875 18.457031 20.707031 C 18.285156 21.117188 18.203125 21.546875 18.203125 21.992188 C 18.203125 22.433594 18.285156 22.863281 18.457031 23.273438 C 18.625 23.683594 18.867188 24.042969 19.183594 24.359375 C 19.496094 24.671875 19.859375 24.914062 20.269531 25.085938 C 20.679688 25.253906 21.105469 25.339844 21.550781 25.339844 C 21.996094 25.339844 22.421875 25.253906 22.832031 25.085938 C 23.242188 24.914062 23.605469 24.671875 23.917969 24.359375 C 24.234375 24.042969 24.476562 23.683594 24.644531 23.273438 C 24.816406 22.863281 24.898438 22.433594 24.898438 21.992188 C 24.898438 21.546875 24.816406 21.117188 24.644531 20.707031 C 24.476562 20.296875 24.234375 19.9375 23.917969 19.621094 C 23.605469 19.308594 23.242188 19.066406 22.832031 18.894531 C 22.421875 18.726562 21.996094 18.640625 21.550781 18.640625 Z M 21.550781 18.640625 "/>
</g>
</svg>
