<?xml version="1.0" encoding="UTF-8"?>
<svg xmlns="http://www.w3.org/2000/svg" xmlns:xlink="http://www.w3.org/1999/xlink" width="30pt" height="30.000001pt" viewBox="0 0 30 30.000001" version="1.2">
<defs>
<clipPath id="clip1">
  <path d="M 0.484375 0 L 29.515625 0 L 29.515625 29.03125 L 0.484375 29.03125 Z M 0.484375 0 "/>
</clipPath>
<clipPath id="clip2">
  <path d="M 0.484375 0 L 26 0 L 26 29.03125 L 0.484375 29.03125 Z M 0.484375 0 "/>
</clipPath>
<clipPath id="clip3">
  <path d="M 6.460938 13 L 17 13 L 17 27 L 6.460938 27 Z M 6.460938 13 "/>
</clipPath>
<clipPath id="clip4">
  <path d="M 19 7.03125 L 27.242188 7.03125 L 27.242188 15 L 19 15 Z M 19 7.03125 "/>
</clipPath>
<clipPath id="clip5">
  <path d="M 11 27 L 16 27 L 16 28.804688 L 11 28.804688 Z M 11 27 "/>
</clipPath>
<clipPath id="clip6">
  <path d="M 12.011719 28.339844 L 14.046875 28.339844 L 14.046875 28.804688 L 12.011719 28.804688 Z M 12.011719 28.339844 "/>
</clipPath>
<clipPath id="clip7">
  <path d="M 0.484375 0 L 29.515625 0 L 29.515625 29.03125 L 0.484375 29.03125 Z M 0.484375 0 "/>
</clipPath>
</defs>
<g id="surface1">
<g clip-path="url(#clip1)" clip-rule="nonzero">
<path style=" stroke:none;fill-rule:nonzero;fill:rgb(100%,100%,100%);fill-opacity:1;" d="M 0.484375 0 L 29.515625 0 L 29.515625 36.289062 L 0.484375 36.289062 Z M 0.484375 0 "/>
<path style=" stroke:none;fill-rule:nonzero;fill:rgb(100%,100%,100%);fill-opacity:1;" d="M 0.484375 0 L 29.515625 0 L 29.515625 29.03125 L 0.484375 29.03125 Z M 0.484375 0 "/>
<path style=" stroke:none;fill-rule:nonzero;fill:rgb(100%,100%,100%);fill-opacity:1;" d="M 0.484375 0 L 29.515625 0 L 29.515625 29.03125 L 0.484375 29.03125 Z M 0.484375 0 "/>
</g>
<g clip-path="url(#clip2)" clip-rule="nonzero">
<path style="fill:none;stroke-width:3.483333;stroke-linecap:butt;stroke-linejoin:miter;stroke:rgb(0%,0%,0%);stroke-opacity:1;stroke-miterlimit:4;" d="M 87.410534 -9.564283 C 87.265255 -10.072761 86.698664 -10.377849 86.190186 -10.174457 C 82.645364 -9.055804 77.226435 -7.428673 70.993941 -5.510982 C 61.056818 -2.532751 48.664469 1.215462 39.017905 4.426141 C 33.700672 6.242136 29.763596 7.665876 26.974228 8.828112 C 22.412449 10.760331 21.598883 11.661064 21.656995 12.678021 C 21.715107 13.1865 22.005666 13.883842 23.371294 14.145345 C 23.429406 14.145345 23.47299 14.145345 23.531102 14.145345 C 23.981468 14.145345 24.388251 13.840258 24.489947 13.389891 C 24.591643 12.983108 24.388251 12.576326 24.083164 12.372934 C 25.405208 11.559369 29.255117 9.743374 40.703148 5.937049 C 43.347237 5.079899 46.122077 4.164638 48.955029 3.249376 C 47.342425 9.946765 45.003424 20.334255 42.577255 31.25928 C 39.177713 46.615332 34.775741 66.475051 32.393156 74.785043 C 32.393156 74.174869 32.494852 73.506583 32.538436 72.707545 C 32.596548 72.199066 32.189765 71.690588 31.623174 71.647004 C 31.114696 71.60342 30.678857 72.010203 30.620745 72.562265 C 30.010571 79.085319 30.272074 80.160388 31.376199 80.305667 C 31.477895 80.305667 31.521479 80.349251 31.623174 80.349251 C 32.538436 80.349251 33.105026 79.28871 34.209151 75.438801 C 34.935549 72.852825 35.879866 69.206307 37.100215 64.252273 C 39.279408 55.085132 41.923497 43.230318 44.509473 31.666063 C 47.080922 20.116336 49.507091 9.118672 51.134222 2.595618 C 58.078586 0.416424 65.31351 -1.762769 71.546004 -3.636876 C 77.83661 -5.554566 83.197426 -7.181698 86.80036 -8.343934 C 87.308839 -8.503742 87.613926 -9.055804 87.410534 -9.564283 Z M 87.410534 -9.564283 " transform="matrix(0.268878,0,0,0.268878,-3.119967,4.524751)"/>
</g>
<path style=" stroke:none;fill-rule:nonzero;fill:rgb(91.758728%,32.159424%,30.198669%);fill-opacity:1;" d="M 13.167969 12.683594 C 12.925781 12.683594 12.691406 12.730469 12.46875 12.824219 C 12.242188 12.917969 12.042969 13.050781 11.871094 13.222656 C 11.699219 13.390625 11.570312 13.589844 11.476562 13.816406 C 11.382812 14.039062 11.335938 14.273438 11.335938 14.515625 C 11.335938 14.757812 11.382812 14.992188 11.476562 15.21875 C 11.570312 15.441406 11.699219 15.640625 11.871094 15.8125 C 12.042969 15.984375 12.242188 16.117188 12.46875 16.207031 C 12.691406 16.300781 12.925781 16.347656 13.167969 16.347656 C 13.410156 16.347656 13.644531 16.300781 13.871094 16.207031 C 14.09375 16.117188 14.292969 15.984375 14.464844 15.8125 C 14.636719 15.640625 14.769531 15.441406 14.859375 15.21875 C 14.953125 14.992188 15 14.757812 15 14.515625 C 15 14.273438 14.953125 14.039062 14.859375 13.816406 C 14.769531 13.589844 14.636719 13.390625 14.464844 13.222656 C 14.292969 13.050781 14.09375 12.917969 13.871094 12.824219 C 13.644531 12.730469 13.410156 12.683594 13.167969 12.683594 Z M 13.167969 12.683594 "/>
<g clip-path="url(#clip3)" clip-rule="nonzero">
<path style=" stroke:none;fill-rule:nonzero;fill:rgb(0%,0%,0%);fill-opacity:1;" d="M 16.023438 13.910156 C 14.503906 14.425781 13.09375 15.238281 11.785156 16.203125 C 10.550781 17.109375 9.347656 18.140625 8.339844 19.320312 C 7.40625 20.410156 6.613281 21.730469 6.515625 23.234375 C 6.46875 23.894531 6.585938 24.625 6.976562 25.15625 C 7.347656 25.660156 7.9375 25.917969 8.519531 25.992188 C 9.449219 26.109375 10.394531 25.820312 11.292969 25.601562 C 12.277344 25.359375 13.242188 25.046875 14.195312 24.683594 C 14.226562 24.671875 14.214844 24.617188 14.179688 24.628906 C 13.421875 24.90625 12.65625 25.144531 11.886719 25.371094 C 11.09375 25.609375 10.277344 25.835938 9.453125 25.921875 C 8.707031 26 7.863281 25.867188 7.304688 25.285156 C 6.792969 24.75 6.648438 23.972656 6.6875 23.234375 C 6.773438 21.761719 7.554688 20.441406 8.46875 19.382812 C 9.414062 18.28125 10.527344 17.328125 11.664062 16.457031 C 13.011719 15.425781 14.472656 14.566406 16.039062 13.960938 C 16.066406 13.949219 16.054688 13.898438 16.023438 13.910156 "/>
</g>
<path style=" stroke:none;fill-rule:nonzero;fill:rgb(0%,0%,0%);fill-opacity:1;" d="M 19.253906 21.378906 C 19.921875 20.613281 20.613281 19.757812 21.070312 18.832031 C 21.289062 18.382812 21.4375 17.894531 21.609375 17.425781 C 21.777344 16.972656 21.949219 16.511719 21.921875 16.015625 C 21.875 15.066406 20.945312 14.585938 20.226562 14.230469 C 19.410156 13.824219 18.515625 13.578125 17.613281 13.527344 C 16.605469 13.472656 15.578125 13.671875 14.710938 14.234375 C 14.683594 14.25 14.707031 14.292969 14.734375 14.277344 C 16.761719 13.25 19.125 13.539062 20.992188 14.828125 C 21.539062 15.207031 21.839844 15.746094 21.773438 16.449219 C 21.714844 17.085938 21.453125 17.710938 21.140625 18.25 C 20.84375 18.761719 20.59375 19.304688 20.3125 19.824219 C 20.011719 20.378906 19.640625 20.886719 19.25 21.371094 C 19.246094 21.375 19.25 21.378906 19.253906 21.378906 "/>
<path style=" stroke:none;fill-rule:nonzero;fill:rgb(0%,0%,0%);fill-opacity:1;" d="M 7.066406 25.128906 C 7.550781 25.730469 8.09375 26.253906 8.683594 26.734375 C 9.230469 27.179688 9.816406 27.644531 10.535156 27.640625 C 11.285156 27.636719 12.0625 27.4375 12.785156 27.238281 C 13.5625 27.023438 14.328125 26.761719 15.074219 26.449219 C 16.410156 25.898438 17.726562 25.140625 18.867188 24.214844 C 19.933594 23.347656 21.023438 22.300781 21.703125 21.050781 C 22.113281 20.300781 22.121094 19.460938 22.085938 18.621094 C 22.050781 17.644531 22.054688 16.617188 21.832031 15.664062 C 21.808594 15.570312 21.683594 15.59375 21.679688 15.683594 C 21.636719 16.441406 21.746094 17.25 21.839844 18.003906 C 21.945312 18.851562 22.132812 19.722656 21.773438 20.535156 C 21.484375 21.1875 21.011719 21.761719 20.574219 22.308594 C 20.15625 22.832031 19.695312 23.292969 19.183594 23.71875 C 18.089844 24.625 16.851562 25.378906 15.546875 25.878906 C 14.179688 26.40625 12.792969 26.769531 11.394531 27.167969 C 11 27.28125 10.601562 27.339844 10.195312 27.296875 C 9.757812 27.253906 9.429688 27.015625 9.074219 26.75 C 8.390625 26.242188 7.757812 25.652344 7.152344 25.039062 C 7.09375 24.980469 7.015625 25.066406 7.066406 25.128906 "/>
<path style=" stroke:none;fill-rule:nonzero;fill:rgb(0%,0%,0%);fill-opacity:1;" d="M 16.566406 23.308594 C 17.648438 22.671875 18.75 21.925781 19.589844 20.945312 C 19.617188 20.910156 19.582031 20.847656 19.542969 20.878906 C 18.535156 21.664062 17.59375 22.542969 16.558594 23.292969 C 16.546875 23.300781 16.554688 23.316406 16.566406 23.308594 "/>
<g clip-path="url(#clip4)" clip-rule="nonzero">
<path style=" stroke:none;fill-rule:nonzero;fill:rgb(0%,0%,0%);fill-opacity:1;" d="M 19.785156 14.285156 C 20.554688 13.472656 21.304688 12.667969 22.144531 11.929688 C 22.554688 11.570312 22.960938 11.207031 23.296875 10.765625 C 23.601562 10.363281 23.863281 9.929688 24.132812 9.503906 C 24.429688 9.039062 24.761719 8.585938 25.199219 8.257812 C 25.519531 8.011719 26.511719 7.492188 26.8125 8.027344 C 27.035156 8.433594 26.605469 9.082031 26.375 9.382812 C 26.132812 9.703125 25.847656 9.980469 25.554688 10.246094 C 24.898438 10.835938 24.195312 11.410156 23.8125 12.25 C 23.800781 12.277344 23.835938 12.300781 23.847656 12.273438 C 24.304688 11.367188 25.160156 10.839844 25.882812 10.203125 C 26.414062 9.730469 27.234375 8.890625 27.046875 8.058594 C 26.8125 7.03125 25.324219 7.792969 24.871094 8.171875 C 23.921875 8.960938 23.46875 10.203125 22.613281 11.085938 C 22.101562 11.613281 21.53125 12.070312 21.027344 12.605469 C 20.546875 13.109375 20.089844 13.636719 19.710938 14.226562 C 19.683594 14.273438 19.746094 14.324219 19.785156 14.285156 "/>
</g>
<path style=" stroke:none;fill-rule:nonzero;fill:rgb(0%,0%,0%);fill-opacity:1;" d="M 23.53125 12.613281 C 23.460938 12.691406 23.386719 12.769531 23.316406 12.847656 C 23.308594 12.851562 23.316406 12.863281 23.324219 12.855469 C 23.398438 12.78125 23.472656 12.703125 23.542969 12.625 C 23.554688 12.617188 23.539062 12.605469 23.53125 12.613281 "/>
<path style=" stroke:none;fill-rule:nonzero;fill:rgb(0%,0%,0%);fill-opacity:1;" d="M 23.039062 13.164062 C 22.910156 13.382812 22.777344 13.597656 22.648438 13.8125 C 22.636719 13.832031 22.664062 13.847656 22.675781 13.832031 C 22.808594 13.613281 22.9375 13.398438 23.070312 13.183594 C 23.085938 13.164062 23.050781 13.144531 23.039062 13.164062 "/>
<path style=" stroke:none;fill-rule:nonzero;fill:rgb(0%,0%,0%);fill-opacity:1;" d="M 22.394531 14.050781 C 22.351562 14.097656 22.308594 14.140625 22.265625 14.1875 C 22.257812 14.199219 22.269531 14.210938 22.277344 14.203125 C 22.320312 14.15625 22.363281 14.109375 22.410156 14.0625 C 22.417969 14.054688 22.402344 14.039062 22.394531 14.050781 "/>
<path style=" stroke:none;fill-rule:nonzero;fill:rgb(0%,0%,0%);fill-opacity:1;" d="M 22.066406 14.4375 C 21.914062 14.609375 21.757812 14.777344 21.589844 14.933594 C 21.511719 15.011719 21.433594 15.085938 21.351562 15.15625 C 21.261719 15.234375 21.222656 15.246094 21.1875 15.351562 C 21.175781 15.390625 21.210938 15.421875 21.246094 15.414062 C 21.410156 15.371094 21.546875 15.136719 21.660156 15.007812 C 21.808594 14.828125 21.949219 14.648438 22.089844 14.460938 C 22.101562 14.445312 22.082031 14.421875 22.066406 14.4375 "/>
<path style=" stroke:none;fill-rule:nonzero;fill:rgb(0%,0%,0%);fill-opacity:1;" d="M 26.066406 8.519531 C 25.574219 8.589844 25.167969 8.867188 24.871094 9.296875 C 24.691406 9.550781 24.636719 10.027344 25.074219 9.925781 C 25.472656 9.828125 26.058594 9.519531 26.261719 9.121094 C 26.453125 8.742188 26.117188 8.460938 25.789062 8.664062 C 25.742188 8.695312 25.761719 8.777344 25.816406 8.773438 C 25.855469 8.773438 25.949219 8.753906 25.980469 8.777344 C 26.019531 8.855469 26.058594 8.9375 26.09375 9.019531 C 26.070312 9.054688 26.042969 9.089844 26.019531 9.125 C 25.917969 9.238281 25.792969 9.332031 25.671875 9.414062 C 25.566406 9.488281 25.453125 9.550781 25.335938 9.605469 C 25.246094 9.644531 24.933594 9.820312 24.964844 9.574219 C 24.984375 9.402344 25.300781 9.140625 25.425781 9.035156 C 25.621094 8.867188 25.863281 8.699219 26.085938 8.574219 C 26.117188 8.558594 26.09375 8.515625 26.066406 8.519531 "/>
<path style=" stroke:none;fill-rule:nonzero;fill:rgb(0%,0%,0%);fill-opacity:1;" d="M 9.699219 23.714844 C 10.089844 23.164062 10.472656 22.613281 10.855469 22.0625 C 11.195312 21.570312 11.527344 21.066406 11.957031 20.65625 C 12.765625 19.882812 13.773438 19.261719 14.753906 18.761719 C 15.742188 18.25 16.78125 17.859375 17.851562 17.601562 C 18.421875 17.464844 19.003906 17.351562 19.585938 17.335938 C 20.226562 17.316406 20.792969 17.46875 21.398438 17.664062 C 21.476562 17.691406 21.53125 17.5625 21.457031 17.523438 C 20.398438 16.949219 19.136719 17.09375 18.015625 17.328125 C 16.898438 17.558594 15.808594 17.941406 14.78125 18.457031 C 13.765625 18.96875 12.734375 19.609375 11.917969 20.441406 C 11.496094 20.867188 11.167969 21.382812 10.84375 21.894531 C 10.457031 22.496094 10.070312 23.101562 9.691406 23.710938 C 9.691406 23.714844 9.695312 23.71875 9.699219 23.714844 "/>
<path style=" stroke:none;fill-rule:nonzero;fill:rgb(0%,0%,0%);fill-opacity:1;" d="M 12.792969 20.242188 C 12.570312 20.773438 12.527344 21.414062 12.453125 21.988281 C 12.371094 22.664062 12.289062 23.339844 12.199219 24.011719 C 12.195312 24.054688 12.253906 24.074219 12.261719 24.03125 C 12.363281 23.382812 12.464844 22.738281 12.574219 22.09375 C 12.675781 21.503906 12.675781 20.832031 12.847656 20.265625 C 12.859375 20.230469 12.804688 20.207031 12.792969 20.242188 "/>
<path style=" stroke:none;fill-rule:nonzero;fill:rgb(0%,0%,0%);fill-opacity:1;" d="M 13.132812 22.164062 C 12.972656 22.964844 12.757812 23.757812 12.621094 24.566406 C 12.613281 24.613281 12.679688 24.636719 12.691406 24.585938 C 12.9375 23.808594 13.046875 22.980469 13.152344 22.167969 C 13.152344 22.15625 13.136719 22.152344 13.132812 22.164062 "/>
<path style=" stroke:none;fill-rule:nonzero;fill:rgb(0%,0%,0%);fill-opacity:1;" d="M 11.40625 23.226562 C 12.542969 22.722656 13.667969 22.191406 14.78125 21.632812 C 15.917969 21.0625 17.121094 20.554688 18.203125 19.875 C 18.25 19.847656 18.222656 19.757812 18.167969 19.78125 C 17.015625 20.214844 15.90625 20.84375 14.796875 21.390625 C 13.644531 21.957031 12.507812 22.542969 11.382812 23.160156 C 11.347656 23.179688 11.371094 23.242188 11.40625 23.226562 "/>
<path style=" stroke:none;fill-rule:nonzero;fill:rgb(0%,0%,0%);fill-opacity:1;" d="M 15.289062 20.601562 C 15.585938 20.464844 15.902344 20.359375 16.210938 20.253906 C 16.25 20.242188 16.234375 20.179688 16.191406 20.1875 C 15.851562 20.25 15.5625 20.378906 15.265625 20.558594 C 15.238281 20.574219 15.261719 20.617188 15.289062 20.601562 "/>
<path style=" stroke:none;fill-rule:nonzero;fill:rgb(0%,0%,0%);fill-opacity:1;" d="M 9.246094 25.921875 C 9.195312 25.652344 9.234375 25.386719 9.359375 25.144531 C 9.367188 25.128906 9.34375 25.113281 9.335938 25.128906 C 9.214844 25.378906 9.179688 25.652344 9.234375 25.925781 C 9.234375 25.933594 9.246094 25.929688 9.246094 25.921875 "/>
<path style=" stroke:none;fill-rule:nonzero;fill:rgb(0%,0%,0%);fill-opacity:1;" d="M 9.359375 25.046875 C 9.417969 24.757812 9.496094 24.476562 9.601562 24.203125 C 9.609375 24.183594 9.582031 24.175781 9.574219 24.195312 C 9.46875 24.46875 9.390625 24.75 9.335938 25.039062 C 9.332031 25.054688 9.355469 25.0625 9.359375 25.046875 "/>
<path style=" stroke:none;fill-rule:nonzero;fill:rgb(0%,0%,0%);fill-opacity:1;" d="M 19.6875 14.210938 C 20.003906 14.304688 20.300781 14.539062 20.550781 14.75 C 20.78125 14.945312 21.035156 15.121094 21.234375 15.351562 C 21.703125 15.894531 21.640625 16.601562 21.726562 17.277344 C 21.738281 17.382812 21.886719 17.367188 21.910156 17.277344 C 22.121094 16.503906 22.070312 15.640625 21.546875 15.023438 C 21.292969 14.726562 20.980469 14.523438 20.648438 14.34375 C 20.3125 14.167969 20.050781 14.015625 19.6875 14.171875 C 19.671875 14.179688 19.667969 14.203125 19.6875 14.210938 "/>
<path style=" stroke:none;fill-rule:nonzero;fill:rgb(0%,0%,0%);fill-opacity:1;" d="M 21.695312 16.246094 C 21.910156 15.355469 22.25 14.5 22.789062 13.78125 C 23.011719 13.480469 23.261719 13.183594 23.429688 12.839844 C 23.617188 12.445312 23.792969 12.109375 24.109375 11.816406 C 24.136719 11.792969 24.117188 11.734375 24.078125 11.738281 C 23.738281 11.777344 23.542969 12.097656 23.363281 12.378906 C 23.074219 12.828125 22.660156 13.136719 22.308594 13.523438 C 21.625 14.273438 21.253906 15.226562 21.621094 16.246094 C 21.632812 16.28125 21.6875 16.289062 21.695312 16.246094 "/>
<path style=" stroke:none;fill-rule:nonzero;fill:rgb(0%,0%,0%);fill-opacity:1;" d="M 23.5625 12.363281 C 23.792969 12.085938 24.035156 11.8125 24.296875 11.566406 C 24.554688 11.316406 24.84375 11.101562 25.097656 10.847656 C 25.140625 10.804688 25.089844 10.75 25.042969 10.769531 C 24.40625 11.066406 23.878906 11.714844 23.523438 12.332031 C 23.507812 12.359375 23.542969 12.386719 23.5625 12.363281 "/>
<g clip-path="url(#clip5)" clip-rule="nonzero">
<path style=" stroke:none;fill-rule:nonzero;fill:rgb(0%,0%,0%);fill-opacity:1;" d="M 11.492188 28.410156 C 12.8125 28.035156 14.128906 27.636719 15.429688 27.179688 C 15.476562 27.164062 15.457031 27.085938 15.40625 27.097656 C 14.082031 27.476562 12.78125 27.914062 11.480469 28.371094 C 11.460938 28.378906 11.46875 28.417969 11.492188 28.410156 "/>
</g>
<g clip-path="url(#clip6)" clip-rule="nonzero">
<path style=" stroke:none;fill-rule:nonzero;fill:rgb(0%,0%,0%);fill-opacity:1;" d="M 12.0625 29.171875 C 12.746094 29.015625 13.386719 28.835938 14.007812 28.484375 C 14.074219 28.445312 14.027344 28.316406 13.953125 28.347656 C 13.324219 28.613281 12.695312 28.902344 12.042969 29.089844 C 11.992188 29.105469 12.011719 29.183594 12.0625 29.171875 "/>
</g>
<path style=" stroke:none;fill-rule:nonzero;fill:rgb(0%,0%,0%);fill-opacity:1;" d="M 14.507812 13.078125 C 15.710938 12.691406 16.925781 12.558594 18.164062 12.410156 C 18.234375 12.398438 18.238281 12.296875 18.164062 12.289062 C 16.921875 12.222656 15.648438 12.566406 14.496094 13.027344 C 14.464844 13.039062 14.476562 13.085938 14.507812 13.078125 "/>
<path style=" stroke:none;fill-rule:nonzero;fill:rgb(0%,0%,0%);fill-opacity:1;" d="M 16.15625 11.664062 C 16.4375 11.671875 16.707031 11.757812 16.984375 11.792969 C 17.035156 11.796875 17.054688 11.714844 17.011719 11.695312 C 16.742188 11.566406 16.4375 11.589844 16.15625 11.625 C 16.132812 11.628906 16.132812 11.664062 16.15625 11.664062 "/>
<path style=" stroke:none;fill-rule:nonzero;fill:rgb(0%,0%,0%);fill-opacity:1;" d="M 15.632812 15.308594 C 15.988281 16.117188 16.253906 16.972656 16.667969 17.75 C 16.683594 17.78125 16.734375 17.761719 16.722656 17.722656 C 16.429688 16.886719 15.992188 16.113281 15.640625 15.304688 C 15.636719 15.300781 15.632812 15.304688 15.632812 15.308594 "/>
<path style=" stroke:none;fill-rule:nonzero;fill:rgb(0%,0%,0%);fill-opacity:1;" d="M 16.042969 15.546875 C 16.269531 16.246094 16.546875 16.957031 16.96875 17.550781 C 16.996094 17.585938 17.050781 17.566406 17.039062 17.519531 C 17.015625 17.402344 16.984375 17.332031 16.914062 17.238281 C 16.902344 17.222656 16.875 17.246094 16.886719 17.261719 C 16.914062 17.351562 16.9375 17.441406 16.964844 17.53125 C 16.988281 17.523438 17.011719 17.515625 17.035156 17.507812 C 16.679688 16.863281 16.324219 16.242188 16.070312 15.539062 C 16.0625 15.523438 16.039062 15.53125 16.042969 15.546875 "/>
<path style=" stroke:none;fill-rule:nonzero;fill:rgb(0%,0%,0%);fill-opacity:1;" d="M 16.382812 15.8125 C 16.667969 16.339844 16.917969 16.9375 17.277344 17.410156 C 17.296875 17.433594 17.328125 17.402344 17.316406 17.375 C 17.085938 16.824219 16.699219 16.3125 16.390625 15.808594 C 16.386719 15.804688 16.382812 15.808594 16.382812 15.8125 "/>
<path style=" stroke:none;fill-rule:nonzero;fill:rgb(0%,0%,0%);fill-opacity:1;" d="M 16.929688 15.871094 C 17.128906 16.300781 17.296875 16.753906 17.585938 17.128906 C 17.605469 17.152344 17.640625 17.121094 17.625 17.097656 C 17.417969 16.671875 17.136719 16.292969 16.941406 15.863281 C 16.9375 15.855469 16.925781 15.863281 16.929688 15.871094 "/>
<path style=" stroke:none;fill-rule:nonzero;fill:rgb(0%,0%,0%);fill-opacity:1;" d="M 17.367188 15.871094 C 17.53125 16.253906 17.667969 16.652344 17.851562 17.03125 C 17.859375 17.050781 17.894531 17.035156 17.886719 17.015625 C 17.734375 16.621094 17.539062 16.253906 17.371094 15.867188 C 17.371094 15.867188 17.367188 15.867188 17.367188 15.871094 "/>
<path style=" stroke:none;fill-rule:nonzero;fill:rgb(0%,0%,0%);fill-opacity:1;" d="M 17.75 15.691406 C 18 16.109375 18.152344 16.566406 18.292969 17.035156 C 18.304688 17.074219 18.359375 17.058594 18.351562 17.019531 C 18.265625 16.527344 18.042969 16.085938 17.78125 15.675781 C 17.769531 15.65625 17.738281 15.671875 17.75 15.691406 "/>
<path style=" stroke:none;fill-rule:nonzero;fill:rgb(0%,0%,0%);fill-opacity:1;" d="M 18.191406 15.875 C 18.371094 16.253906 18.511719 16.648438 18.671875 17.035156 C 18.683594 17.058594 18.722656 17.042969 18.714844 17.015625 C 18.597656 16.609375 18.414062 16.226562 18.222656 15.855469 C 18.210938 15.832031 18.179688 15.851562 18.191406 15.875 "/>
<path style=" stroke:none;fill-rule:nonzero;fill:rgb(0%,0%,0%);fill-opacity:1;" d="M 18.707031 15.734375 C 18.875 16.191406 18.992188 16.660156 19.144531 17.121094 C 19.160156 17.160156 19.210938 17.144531 19.203125 17.105469 C 19.101562 16.628906 18.917969 16.167969 18.738281 15.71875 C 18.730469 15.699219 18.699219 15.714844 18.707031 15.734375 "/>
<path style=" stroke:none;fill-rule:nonzero;fill:rgb(0%,0%,0%);fill-opacity:1;" d="M 18.992188 15.773438 C 19.183594 16.242188 19.273438 16.726562 19.410156 17.214844 C 19.417969 17.242188 19.460938 17.238281 19.457031 17.207031 C 19.414062 16.703125 19.222656 16.210938 19.019531 15.757812 C 19.011719 15.738281 18.984375 15.753906 18.992188 15.773438 "/>
<path style=" stroke:none;fill-rule:nonzero;fill:rgb(0%,0%,0%);fill-opacity:1;" d="M 19.5625 15.816406 C 19.585938 16.226562 19.597656 16.695312 19.730469 17.082031 C 19.742188 17.121094 19.804688 17.117188 19.800781 17.074219 C 19.765625 16.652344 19.640625 16.234375 19.585938 15.8125 C 19.582031 15.796875 19.5625 15.800781 19.5625 15.816406 "/>
<path style=" stroke:none;fill-rule:nonzero;fill:rgb(0%,0%,0%);fill-opacity:1;" d="M 19.839844 15.773438 C 19.851562 15.957031 19.851562 16.152344 19.878906 16.335938 C 19.882812 16.359375 19.921875 16.351562 19.921875 16.328125 C 19.925781 16.144531 19.898438 15.957031 19.882812 15.773438 C 19.878906 15.742188 19.839844 15.742188 19.839844 15.773438 "/>
<path style=" stroke:none;fill-rule:nonzero;fill:rgb(0%,0%,0%);fill-opacity:1;" d="M 12.738281 17.914062 C 12.980469 18.230469 13.15625 18.578125 13.335938 18.9375 C 13.347656 18.964844 13.394531 18.945312 13.382812 18.917969 C 13.242188 18.535156 13.007812 18.199219 12.753906 17.898438 C 12.746094 17.886719 12.730469 17.902344 12.738281 17.914062 "/>
<path style=" stroke:none;fill-rule:nonzero;fill:rgb(0%,0%,0%);fill-opacity:1;" d="M 12.445312 22.078125 C 12.957031 21.835938 13.484375 21.621094 13.980469 21.347656 C 14.003906 21.335938 13.988281 21.296875 13.964844 21.304688 C 13.441406 21.519531 12.941406 21.800781 12.433594 22.054688 C 12.417969 22.0625 12.429688 22.082031 12.445312 22.078125 "/>
<path style=" stroke:none;fill-rule:nonzero;fill:rgb(0%,0%,0%);fill-opacity:1;" d="M 12.496094 21.671875 C 12.71875 21.542969 12.941406 21.414062 13.160156 21.269531 C 13.171875 21.257812 13.160156 21.234375 13.144531 21.242188 C 12.917969 21.371094 12.703125 21.511719 12.484375 21.652344 C 12.472656 21.660156 12.484375 21.679688 12.496094 21.671875 "/>
<path style=" stroke:none;fill-rule:nonzero;fill:rgb(0%,0%,0%);fill-opacity:1;" d="M 12.488281 21.421875 C 12.75 21.371094 13.019531 21.28125 13.238281 21.121094 C 13.261719 21.105469 13.242188 21.070312 13.21875 21.085938 C 12.980469 21.21875 12.75 21.34375 12.484375 21.414062 C 12.480469 21.414062 12.480469 21.425781 12.488281 21.421875 "/>
<path style=" stroke:none;fill-rule:nonzero;fill:rgb(0%,0%,0%);fill-opacity:1;" d="M 12.179688 21.191406 C 12.375 21.105469 12.566406 21.023438 12.753906 20.921875 C 12.769531 20.914062 12.757812 20.882812 12.742188 20.890625 C 12.546875 20.976562 12.363281 21.078125 12.175781 21.179688 C 12.171875 21.183594 12.175781 21.191406 12.179688 21.191406 "/>
<path style=" stroke:none;fill-rule:nonzero;fill:rgb(0%,0%,0%);fill-opacity:1;" d="M 8.628906 22.597656 C 8.835938 22.796875 9.027344 23.023438 9.246094 23.203125 C 9.265625 23.21875 9.285156 23.1875 9.269531 23.167969 C 9.082031 22.957031 8.851562 22.78125 8.640625 22.585938 C 8.632812 22.578125 8.621094 22.589844 8.628906 22.597656 "/>
<path style=" stroke:none;fill-rule:nonzero;fill:rgb(0%,0%,0%);fill-opacity:1;" d="M 7.800781 25.757812 C 8.515625 26.261719 9.175781 26.824219 9.835938 27.402344 C 9.867188 27.429688 9.914062 27.386719 9.882812 27.355469 C 9.6875 27.164062 9.480469 26.996094 9.257812 26.839844 C 9.242188 26.828125 9.226562 26.855469 9.242188 26.867188 C 9.382812 26.976562 9.523438 27.15625 9.675781 27.238281 C 9.78125 27.296875 9.828125 27.351562 9.695312 27.1875 C 9.558594 27.011719 9.332031 26.875 9.164062 26.738281 C 8.726562 26.386719 8.273438 26.058594 7.804688 25.753906 C 7.800781 25.75 7.796875 25.757812 7.800781 25.757812 "/>
<path style=" stroke:none;fill-rule:nonzero;fill:rgb(0%,0%,0%);fill-opacity:1;" d="M 8.863281 26.566406 C 8.808594 26.519531 8.203125 26.023438 8.195312 26.03125 C 8.21875 26.003906 8.808594 26.421875 8.871094 26.464844 C 9.121094 26.640625 9.367188 26.828125 9.601562 27.027344 C 9.6875 27.101562 9.773438 27.175781 9.863281 27.253906 C 9.917969 27.308594 9.976562 27.359375 10.035156 27.410156 C 10.097656 27.355469 10.078125 27.308594 9.976562 27.277344 C 9.820312 27.058594 9.511719 26.867188 9.316406 26.6875 C 9.191406 26.578125 9.074219 26.445312 8.941406 26.347656 C 8.875 26.300781 8.746094 26.183594 8.929688 26.347656 C 9.132812 26.539062 9.382812 26.6875 9.601562 26.859375 C 9.882812 27.078125 10.15625 27.3125 10.433594 27.542969 C 10.464844 27.566406 10.511719 27.523438 10.480469 27.496094 C 10.378906 27.410156 9.273438 26.386719 9.28125 26.375 C 9.339844 26.304688 10.488281 27.320312 10.605469 27.421875 C 10.640625 27.453125 10.691406 27.402344 10.65625 27.367188 C 10.40625 27.132812 10.15625 26.902344 9.910156 26.664062 C 9.902344 26.652344 9.886719 26.667969 9.894531 26.679688 C 10.136719 26.921875 10.371094 27.171875 10.605469 27.421875 C 10.621094 27.40625 10.640625 27.386719 10.65625 27.367188 C 10.214844 26.945312 9.714844 26.585938 9.195312 26.28125 C 9.179688 26.273438 9.164062 26.296875 9.175781 26.308594 C 9.421875 26.535156 9.664062 26.769531 9.902344 27.003906 C 10.015625 27.113281 10.132812 27.273438 10.261719 27.359375 C 10.507812 27.519531 10.304688 27.335938 10.207031 27.253906 C 9.742188 26.863281 9.253906 26.507812 8.753906 26.171875 C 8.734375 26.15625 8.710938 26.191406 8.726562 26.207031 C 9.207031 26.613281 9.664062 27.054688 10.121094 27.488281 C 10.152344 27.511719 10.191406 27.472656 10.164062 27.441406 C 9.570312 26.839844 8.847656 26.324219 8.105469 25.957031 C 8.09375 25.953125 8.089844 25.964844 8.097656 25.972656 C 8.351562 26.171875 8.605469 26.375 8.859375 26.574219 C 8.863281 26.578125 8.871094 26.570312 8.863281 26.566406 "/>
<path style=" stroke:none;fill-rule:nonzero;fill:rgb(0%,0%,0%);fill-opacity:1;" d="M 9.738281 26.507812 C 9.65625 26.382812 9.667969 26.382812 9.777344 26.503906 C 9.839844 26.5625 9.902344 26.621094 9.96875 26.679688 C 10.078125 26.78125 10.1875 26.882812 10.300781 26.984375 C 10.507812 27.175781 10.710938 27.371094 10.929688 27.550781 C 10.957031 27.570312 10.996094 27.519531 10.96875 27.496094 C 10.796875 27.355469 10.644531 27.191406 10.496094 27.019531 C 10.425781 26.933594 10.351562 26.847656 10.285156 26.757812 C 10.269531 26.742188 9.984375 26.464844 10.140625 26.515625 C 10.335938 26.582031 10.570312 26.863281 10.722656 27.015625 C 10.894531 27.1875 11.050781 27.375 11.207031 27.554688 C 11.222656 27.570312 11.246094 27.550781 11.238281 27.535156 C 10.929688 27.0625 10.492188 26.667969 10.023438 26.382812 C 10.007812 26.375 9.988281 26.394531 10 26.410156 C 10.128906 26.597656 10.261719 26.78125 10.402344 26.957031 C 10.484375 27.058594 10.570312 27.160156 10.660156 27.253906 C 10.699219 27.296875 10.859375 27.539062 10.875 27.40625 C 10.886719 27.328125 10.257812 26.863281 10.195312 26.8125 C 10 26.640625 9.804688 26.472656 9.601562 26.308594 C 9.597656 26.304688 9.589844 26.308594 9.589844 26.316406 C 9.59375 26.429688 9.632812 26.488281 9.734375 26.519531 C 9.738281 26.519531 9.742188 26.511719 9.738281 26.507812 "/>
<path style=" stroke:none;fill-rule:nonzero;fill:rgb(0%,0%,0%);fill-opacity:1;" d="M 10.703125 26.566406 C 10.9375 26.820312 11.15625 27.089844 11.398438 27.335938 C 11.410156 27.347656 11.421875 27.339844 11.421875 27.328125 C 11.429688 27.265625 11.410156 27.234375 11.355469 27.21875 C 11.347656 27.214844 11.339844 27.230469 11.347656 27.234375 C 11.390625 27.253906 11.386719 27.277344 11.34375 27.230469 C 11.308594 27.195312 11.277344 27.160156 11.242188 27.125 C 11.183594 27.0625 11.125 26.996094 11.066406 26.933594 C 10.945312 26.808594 10.824219 26.6875 10.707031 26.558594 C 10.703125 26.558594 10.699219 26.5625 10.703125 26.566406 "/>
<path style=" stroke:none;fill-rule:nonzero;fill:rgb(0%,0%,0%);fill-opacity:1;" d="M 10.832031 26.242188 C 11.125 26.53125 11.40625 26.835938 11.703125 27.125 C 11.714844 27.136719 11.730469 27.117188 11.722656 27.105469 C 11.457031 26.785156 11.148438 26.503906 10.835938 26.234375 C 10.832031 26.230469 10.824219 26.238281 10.832031 26.242188 "/>
<path style=" stroke:none;fill-rule:nonzero;fill:rgb(0%,0%,0%);fill-opacity:1;" d="M 11.269531 26.285156 C 11.535156 26.527344 11.773438 26.800781 12.003906 27.082031 C 12.015625 27.097656 12.035156 27.078125 12.027344 27.066406 C 11.820312 26.761719 11.558594 26.5 11.273438 26.277344 C 11.269531 26.269531 11.261719 26.28125 11.269531 26.285156 "/>
<path style=" stroke:none;fill-rule:nonzero;fill:rgb(0%,0%,0%);fill-opacity:1;" d="M 11.742188 26.339844 C 11.785156 26.386719 11.828125 26.433594 11.871094 26.480469 C 11.875 26.484375 11.882812 26.476562 11.878906 26.472656 C 11.835938 26.429688 11.789062 26.382812 11.746094 26.335938 C 11.746094 26.335938 11.742188 26.339844 11.742188 26.339844 "/>
<path style=" stroke:none;fill-rule:nonzero;fill:rgb(0%,0%,0%);fill-opacity:1;" d="M 21.816406 17.535156 C 21.894531 18.332031 21.875 19.144531 21.957031 19.941406 C 21.964844 19.996094 22.03125 19.996094 22.035156 19.941406 C 22.097656 19.148438 21.957031 18.3125 21.828125 17.53125 C 21.828125 17.523438 21.816406 17.527344 21.816406 17.535156 "/>
<path style=" stroke:none;fill-rule:nonzero;fill:rgb(0%,0%,0%);fill-opacity:1;" d="M 21.640625 18.601562 C 21.738281 19.1875 21.761719 19.78125 21.851562 20.367188 C 21.855469 20.40625 21.914062 20.398438 21.914062 20.359375 C 21.894531 19.765625 21.761719 19.179688 21.652344 18.597656 C 21.652344 18.589844 21.636719 18.59375 21.640625 18.601562 "/>
<path style=" stroke:none;fill-rule:nonzero;fill:rgb(0%,0%,0%);fill-opacity:1;" d="M 21.421875 18.699219 C 21.511719 19.355469 21.578125 20.035156 21.75 20.671875 C 21.777344 20.65625 21.800781 20.636719 21.828125 20.621094 C 21.796875 20.585938 21.765625 20.550781 21.726562 20.519531 C 21.699219 20.492188 21.652344 20.527344 21.671875 20.5625 C 21.707031 20.621094 21.722656 20.640625 21.761719 20.691406 C 21.792969 20.738281 21.847656 20.6875 21.839844 20.644531 C 21.753906 19.984375 21.59375 19.335938 21.5 18.675781 C 21.492188 18.625 21.414062 18.648438 21.421875 18.699219 "/>
<path style=" stroke:none;fill-rule:nonzero;fill:rgb(0%,0%,0%);fill-opacity:1;" d="M 21.214844 18.878906 C 21.320312 19.574219 21.417969 20.277344 21.53125 20.972656 C 21.539062 21.007812 21.59375 21 21.589844 20.964844 C 21.550781 20.265625 21.414062 19.542969 21.226562 18.875 C 21.222656 18.867188 21.214844 18.871094 21.214844 18.878906 "/>
<path style=" stroke:none;fill-rule:nonzero;fill:rgb(0%,0%,0%);fill-opacity:1;" d="M 21.175781 19.804688 C 21.238281 20.3125 21.277344 20.835938 21.382812 21.339844 C 21.390625 21.367188 21.4375 21.363281 21.433594 21.332031 C 21.386719 20.816406 21.269531 20.308594 21.179688 19.800781 C 21.179688 19.796875 21.171875 19.800781 21.175781 19.804688 "/>
<path style=" stroke:none;fill-rule:nonzero;fill:rgb(0%,0%,0%);fill-opacity:1;" d="M 20.949219 19.710938 C 20.9375 20.300781 20.960938 20.945312 21.074219 21.523438 C 21.082031 21.554688 21.128906 21.550781 21.125 21.515625 C 21.109375 20.921875 21.035156 20.300781 20.960938 19.710938 C 20.957031 19.703125 20.949219 19.703125 20.949219 19.710938 "/>
<path style=" stroke:none;fill-rule:nonzero;fill:rgb(0%,0%,0%);fill-opacity:1;" d="M 20.726562 20.035156 C 20.75 20.628906 20.742188 21.261719 20.84375 21.847656 C 20.847656 21.875 20.886719 21.867188 20.890625 21.839844 C 20.910156 21.25 20.804688 20.621094 20.730469 20.035156 C 20.730469 20.03125 20.726562 20.03125 20.726562 20.035156 "/>
<path style=" stroke:none;fill-rule:nonzero;fill:rgb(0%,0%,0%);fill-opacity:1;" d="M 20.285156 20.550781 C 20.363281 21.089844 20.382812 21.632812 20.453125 22.171875 C 20.453125 22.195312 20.488281 22.1875 20.488281 22.164062 C 20.496094 21.628906 20.390625 21.070312 20.292969 20.546875 C 20.289062 20.542969 20.285156 20.546875 20.285156 20.550781 "/>
<path style=" stroke:none;fill-rule:nonzero;fill:rgb(0%,0%,0%);fill-opacity:1;" d="M 20.023438 20.78125 C 20.125 21.398438 20.167969 22.007812 20.207031 22.628906 C 20.207031 22.660156 20.246094 22.660156 20.246094 22.628906 C 20.25 22.011719 20.160156 21.382812 20.03125 20.78125 C 20.027344 20.773438 20.019531 20.777344 20.023438 20.78125 "/>
<path style=" stroke:none;fill-rule:nonzero;fill:rgb(0%,0%,0%);fill-opacity:1;" d="M 19.816406 21.703125 C 19.84375 22.230469 19.832031 22.753906 19.847656 23.28125 C 19.847656 23.3125 19.894531 23.3125 19.894531 23.28125 C 19.917969 22.753906 19.867188 22.226562 19.816406 21.703125 "/>
<path style=" stroke:none;fill-rule:nonzero;fill:rgb(0%,0%,0%);fill-opacity:1;" d="M 19.476562 22.492188 C 19.460938 22.652344 19.484375 22.816406 19.554688 22.960938 C 19.558594 22.96875 19.570312 22.960938 19.566406 22.953125 C 19.503906 22.804688 19.46875 22.65625 19.476562 22.492188 "/>
<path style=" stroke:none;fill-rule:nonzero;fill:rgb(0%,0%,0%);fill-opacity:1;" d="M 21.828125 18.917969 C 20.859375 20.488281 19.609375 21.785156 18.164062 22.855469 C 18.132812 22.882812 18.160156 22.9375 18.195312 22.914062 C 19.6875 21.914062 20.921875 20.515625 21.828125 18.917969 "/>
<path style=" stroke:none;fill-rule:nonzero;fill:rgb(0%,0%,0%);fill-opacity:1;" d="M 20.257812 21.375 C 19.894531 21.761719 19.523438 22.136719 19.160156 22.527344 C 19.144531 22.542969 19.167969 22.570312 19.183594 22.554688 C 19.550781 22.167969 19.90625 21.773438 20.269531 21.386719 C 20.273438 21.378906 20.265625 21.371094 20.257812 21.375 "/>
<path style=" stroke:none;fill-rule:nonzero;fill:rgb(0%,0%,0%);fill-opacity:1;" d="M 23.1875 14.75 C 23.550781 13.941406 24.101562 13.308594 24.65625 12.648438 C 24.683594 12.617188 24.644531 12.578125 24.613281 12.601562 C 23.96875 13.15625 23.535156 13.96875 23.1875 14.75 C 23.1875 14.753906 23.1875 14.753906 23.1875 14.75 "/>
<path style=" stroke:none;fill-rule:nonzero;fill:rgb(0%,0%,0%);fill-opacity:1;" d="M 24.984375 12.53125 C 24.644531 12.863281 24.300781 13.234375 24.070312 13.664062 C 24.054688 13.691406 24.09375 13.730469 24.117188 13.699219 C 24.40625 13.308594 24.671875 12.90625 25 12.550781 C 25.011719 12.539062 24.996094 12.519531 24.984375 12.53125 "/>
<path style=" stroke:none;fill-rule:nonzero;fill:rgb(0%,0%,0%);fill-opacity:1;" d="M 23.84375 15.03125 C 23.640625 15.335938 23.414062 15.707031 23.355469 16.082031 C 23.351562 16.113281 23.394531 16.140625 23.410156 16.105469 C 23.554688 15.738281 23.65625 15.382812 23.867188 15.046875 C 23.875 15.03125 23.855469 15.019531 23.84375 15.03125 "/>
<path style=" stroke:none;fill-rule:nonzero;fill:rgb(0%,0%,0%);fill-opacity:1;" d="M 22.984375 19.34375 C 22.761719 20.0625 22.464844 20.757812 22.105469 21.410156 C 21.757812 22.035156 21.324219 22.578125 20.9375 23.171875 C 20.914062 23.207031 20.960938 23.242188 20.988281 23.214844 C 21.492188 22.722656 21.878906 22.039062 22.203125 21.402344 C 22.535156 20.746094 22.789062 20.058594 22.988281 19.34375 C 22.988281 19.34375 22.984375 19.34375 22.984375 19.34375 "/>
<path style=" stroke:none;fill-rule:nonzero;fill:rgb(0%,0%,0%);fill-opacity:1;" d="M 23.367188 20.035156 C 23.117188 20.757812 22.691406 21.3125 22.222656 21.882812 C 22.179688 21.9375 22.246094 22.007812 22.296875 21.960938 C 22.851562 21.484375 23.1875 20.753906 23.386719 20.042969 C 23.390625 20.03125 23.371094 20.023438 23.367188 20.035156 "/>
<path style=" stroke:none;fill-rule:nonzero;fill:rgb(0%,0%,0%);fill-opacity:1;" d="M 23.382812 21.363281 C 23.308594 21.476562 23.226562 21.582031 23.136719 21.679688 C 23.054688 21.761719 22.972656 21.835938 22.910156 21.933594 C 22.890625 21.960938 22.925781 21.988281 22.953125 21.976562 C 23.164062 21.863281 23.300781 21.59375 23.414062 21.382812 C 23.425781 21.359375 23.394531 21.34375 23.382812 21.363281 "/>
<g clip-path="url(#clip7)" clip-rule="nonzero">
<path style=" stroke:none;fill-rule:nonzero;fill:rgb(95.689392%,0%,25.878906%);fill-opacity:1;" d="M 1.960938 27.554688 L 28.039062 27.554688 L 28.039062 1.476562 L 1.960938 1.476562 Z M 28.777344 29.03125 L 1.222656 29.03125 C 0.8125 29.03125 0.484375 28.703125 0.484375 28.292969 L 0.484375 0.738281 C 0.484375 0.332031 0.8125 0 1.222656 0 L 28.777344 0 C 29.183594 0 29.515625 0.332031 29.515625 0.738281 L 29.515625 28.292969 C 29.515625 28.703125 29.183594 29.03125 28.777344 29.03125 "/>
</g>
</g>
</svg>
