<?xml version="1.0" encoding="UTF-8"?><svg xmlns="http://www.w3.org/2000/svg" xmlns:xlink="http://www.w3.org/1999/xlink" contentScriptType="text/ecmascript" width="90pt" zoomAndPan="magnify" contentStyleType="text/css" viewBox="0 0 90 89.999999" height="89.999999pt" preserveAspectRatio="xMidYMid meet" version="1.2"><defs><filter x="0%" y="0%" width="100%" xmlns:xlink="http://www.w3.org/1999/xlink" xlink:type="simple" filterUnits="objectBoundingBox" xlink:actuate="onLoad" id="alpha" height="100%" xlink:show="other" xml:id="alpha"><feColorMatrix values="0 0 0 0 1 0 0 0 0 1 0 0 0 0 1 0 0 0 1 0" type="matrix" in="SourceGraphic"/></filter><clipPath xml:id="clip2" id="clip2"><path d="M 0.71875 0.71875 L 89.21875 0.71875 L 89.21875 89.21875 L 0.71875 89.21875 Z M 0.71875 0.71875 "/></clipPath><clipPath xml:id="clip1" id="clip1"><rect x="0" width="90" y="0" height="90"/></clipPath><clipPath xml:id="clip3" id="clip3"><path d="M 24.632812 23.976562 L 65.132812 23.976562 L 65.132812 65.976562 L 24.632812 65.976562 Z M 24.632812 23.976562 "/></clipPath></defs><g xml:id="surface1" id="surface1"><g mask="url(#mask0)" transform="matrix(1,0,0,1,0.000000000000000056,-0.000000000000009492)"><g xml:id="surface5" id="surface5" clip-path="url(#clip1)"><g clip-rule="nonzero" clip-path="url(#clip2)"><path style=" stroke:none;fill-rule:nonzero;fill:rgb(85.099792%,85.099792%,83.139038%);fill-opacity:1;" d="M 45.9375 87.285156 C 22.03125 87.285156 2.65625 67.90625 2.65625 44 C 2.65625 20.257812 21.773438 0.984375 45.453125 0.726562 C 45.292969 0.722656 45.128906 0.71875 44.96875 0.71875 C 20.53125 0.71875 0.71875 20.53125 0.71875 44.96875 C 0.71875 69.40625 20.53125 89.21875 44.96875 89.21875 C 69.40625 89.21875 89.21875 69.40625 89.21875 44.96875 C 89.21875 44.808594 89.214844 44.644531 89.214844 44.484375 C 88.953125 68.167969 69.679688 87.285156 45.9375 87.285156 "/></g><path style=" stroke:none;fill-rule:nonzero;fill:rgb(85.099792%,85.099792%,83.139038%);fill-opacity:1;" d="M 44.96875 7.910156 C 24.5 7.910156 7.910156 24.5 7.910156 44.96875 C 7.910156 45.152344 7.914062 45.335938 7.917969 45.523438 C 8.210938 25.921875 24.191406 10.121094 43.863281 10.121094 C 63.71875 10.121094 79.816406 26.21875 79.816406 46.074219 C 79.816406 65.746094 64.015625 81.726562 44.417969 82.019531 C 44.601562 82.023438 44.785156 82.027344 44.96875 82.027344 C 65.4375 82.027344 82.027344 65.4375 82.027344 44.96875 C 82.027344 24.5 65.4375 7.910156 44.96875 7.910156 "/></g><mask xml:id="mask0" id="mask0"><g filter="url(#alpha)"><rect x="0" width="90" y="0" height="89.999999" style="fill:rgb(0%,0%,0%);fill-opacity:0.498;stroke:none;"/></g></mask></g><g clip-rule="nonzero" clip-path="url(#clip3)"><path style=" stroke:none;fill-rule:nonzero;fill:rgb(12.939453%,14.509583%,16.079712%);fill-opacity:1;" d="M 61.742188 25.332031 L 63.765625 25.332031 L 63.765625 64.621094 L 61.742188 64.621094 Z M 59.042969 60.558594 L 59.042969 49.71875 L 46.90625 49.71875 L 46.90625 60.558594 L 29.375 60.558594 L 29.375 47.007812 L 60.394531 47.007812 L 60.394531 60.558594 Z M 55 54.460938 L 55 51.074219 L 57.695312 51.074219 L 57.695312 60.558594 L 48.253906 60.558594 L 48.253906 51.074219 L 50.953125 51.074219 L 50.953125 54.460938 Z M 52.300781 51.074219 L 53.648438 51.074219 L 53.648438 53.105469 L 52.300781 53.105469 Z M 59.71875 63.269531 L 29.375 63.269531 L 29.375 61.914062 L 59.71875 61.914062 Z M 26.003906 64.621094 L 26.003906 25.332031 L 28.027344 25.332031 L 28.027344 64.621094 Z M 30.722656 44.300781 L 60.394531 44.300781 L 60.394531 45.65625 L 29.375 45.65625 L 29.375 44.300781 Z M 32.074219 33.460938 L 34.769531 33.460938 L 34.769531 36.847656 L 38.816406 36.847656 L 38.816406 33.460938 L 41.511719 33.460938 L 41.511719 42.945312 L 32.074219 42.945312 Z M 36.117188 33.460938 L 37.46875 33.460938 L 37.46875 35.492188 L 36.117188 35.492188 Z M 33.421875 26.007812 L 34.769531 26.007812 L 34.769531 28.71875 L 38.816406 28.71875 L 38.816406 26.007812 L 40.164062 26.007812 L 40.164062 32.105469 L 33.421875 32.105469 Z M 37.46875 26.007812 L 37.46875 27.363281 L 36.117188 27.363281 L 36.117188 26.007812 Z M 45.558594 36.847656 L 46.90625 36.847656 L 46.90625 39.558594 L 50.953125 39.558594 L 50.953125 36.847656 L 52.300781 36.847656 L 52.300781 42.945312 L 45.558594 42.945312 Z M 49.605469 36.847656 L 49.605469 38.203125 L 48.253906 38.203125 L 48.253906 36.847656 Z M 53.648438 36.847656 L 55 36.847656 L 55 39.558594 L 59.042969 39.558594 L 59.042969 36.847656 L 60.394531 36.847656 L 60.394531 42.945312 L 53.648438 42.945312 Z M 57.695312 36.847656 L 57.695312 38.203125 L 56.347656 38.203125 L 56.347656 36.847656 Z M 60.394531 35.492188 L 44.210938 35.492188 L 44.210938 42.945312 L 42.863281 42.945312 L 42.863281 32.105469 L 41.511719 32.105469 L 41.511719 24.65625 L 32.074219 24.65625 L 32.074219 32.105469 L 30.722656 32.105469 L 30.722656 42.945312 L 29.375 42.945312 L 29.375 23.976562 L 24.65625 23.976562 L 24.65625 65.976562 L 29.375 65.976562 L 29.375 64.621094 L 60.394531 64.621094 L 60.394531 65.976562 L 65.113281 65.976562 L 65.113281 23.976562 L 60.394531 23.976562 L 60.394531 35.492188 "/></g></g></svg>