<?xml version="1.0" encoding="UTF-8"?><svg xmlns="http://www.w3.org/2000/svg" xmlns:xlink="http://www.w3.org/1999/xlink" contentScriptType="text/ecmascript" width="90pt" zoomAndPan="magnify" contentStyleType="text/css" viewBox="0 0 90 89.999999" height="89.999999pt" preserveAspectRatio="xMidYMid meet" version="1.2"><defs><filter x="0%" y="0%" width="100%" xmlns:xlink="http://www.w3.org/1999/xlink" xlink:type="simple" filterUnits="objectBoundingBox" xlink:actuate="onLoad" id="alpha" height="100%" xlink:show="other" xml:id="alpha"><feColorMatrix values="0 0 0 0 1 0 0 0 0 1 0 0 0 0 1 0 0 0 1 0" type="matrix" in="SourceGraphic"/></filter><clipPath xml:id="clip2" id="clip2"><path d="M 0.71875 0.71875 L 89.21875 0.71875 L 89.21875 89.21875 L 0.71875 89.21875 Z M 0.71875 0.71875 "/></clipPath><clipPath xml:id="clip1" id="clip1"><rect x="0" width="90" y="0" height="90"/></clipPath><clipPath xml:id="clip3" id="clip3"><path d="M 27 16.726562 L 63 16.726562 L 63 37 L 27 37 Z M 27 16.726562 "/></clipPath><clipPath xml:id="clip4" id="clip4"><path d="M 16.726562 52 L 72.976562 52 L 72.976562 72.976562 L 16.726562 72.976562 Z M 16.726562 52 "/></clipPath></defs><g xml:id="surface1" id="surface1"><g mask="url(#mask0)" transform="matrix(1,0,0,1,0.000000000000000056,-0.000000000000009492)"><g xml:id="surface5" id="surface5" clip-path="url(#clip1)"><g clip-rule="nonzero" clip-path="url(#clip2)"><path style=" stroke:none;fill-rule:nonzero;fill:rgb(85.099792%,85.099792%,83.139038%);fill-opacity:1;" d="M 45.9375 87.285156 C 22.03125 87.285156 2.65625 67.90625 2.65625 44 C 2.65625 20.257812 21.773438 0.984375 45.453125 0.726562 C 45.292969 0.722656 45.128906 0.71875 44.96875 0.71875 C 20.53125 0.71875 0.71875 20.53125 0.71875 44.96875 C 0.71875 69.40625 20.53125 89.21875 44.96875 89.21875 C 69.40625 89.21875 89.21875 69.40625 89.21875 44.96875 C 89.21875 44.808594 89.214844 44.644531 89.214844 44.484375 C 88.953125 68.167969 69.679688 87.285156 45.9375 87.285156 "/></g><path style=" stroke:none;fill-rule:nonzero;fill:rgb(85.099792%,85.099792%,83.139038%);fill-opacity:1;" d="M 44.96875 7.910156 C 24.5 7.910156 7.910156 24.5 7.910156 44.96875 C 7.910156 45.152344 7.914062 45.335938 7.917969 45.523438 C 8.210938 25.921875 24.191406 10.121094 43.863281 10.121094 C 63.71875 10.121094 79.816406 26.21875 79.816406 46.074219 C 79.816406 65.746094 64.015625 81.726562 44.417969 82.019531 C 44.601562 82.023438 44.785156 82.027344 44.96875 82.027344 C 65.4375 82.027344 82.027344 65.4375 82.027344 44.96875 C 82.027344 24.5 65.4375 7.910156 44.96875 7.910156 "/></g><mask xml:id="mask0" id="mask0"><g filter="url(#alpha)"><rect x="0" width="90" y="0" height="89.999999" style="fill:rgb(0%,0%,0%);fill-opacity:0.498;stroke:none;"/></g></mask></g><g clip-rule="nonzero" clip-path="url(#clip3)"><path style=" stroke:none;fill-rule:nonzero;fill:rgb(12.939453%,14.509583%,16.079712%);fill-opacity:1;" d="M 27.867188 36.890625 L 61.832031 36.890625 C 62.054688 36.890625 62.257812 36.746094 62.332031 36.535156 C 62.40625 36.324219 62.339844 36.085938 62.164062 35.945312 L 51.75 27.613281 L 51.75 17.253906 C 51.75 16.960938 51.511719 16.726562 51.21875 16.726562 L 38.480469 16.726562 C 38.1875 16.726562 37.953125 16.960938 37.953125 17.253906 L 37.953125 27.613281 L 27.539062 35.945312 C 27.363281 36.085938 27.292969 36.324219 27.367188 36.535156 C 27.441406 36.746094 27.644531 36.890625 27.867188 36.890625 Z M 38.8125 28.285156 C 38.941406 28.183594 39.011719 28.03125 39.011719 27.867188 L 39.011719 17.785156 L 50.6875 17.785156 L 50.6875 27.867188 C 50.6875 28.03125 50.761719 28.183594 50.886719 28.285156 L 60.320312 35.828125 L 29.382812 35.828125 Z M 38.8125 28.285156 "/></g><path style=" stroke:none;fill-rule:nonzero;fill:rgb(12.939453%,14.509583%,16.079712%);fill-opacity:1;" d="M 38.480469 68.730469 L 51.21875 68.730469 C 51.511719 68.730469 51.75 68.492188 51.75 68.199219 L 51.75 61.832031 C 51.75 61.539062 51.511719 61.300781 51.21875 61.300781 L 38.480469 61.300781 C 38.1875 61.300781 37.953125 61.539062 37.953125 61.832031 L 37.953125 68.199219 C 37.953125 68.492188 38.1875 68.730469 38.480469 68.730469 Z M 39.011719 62.363281 L 50.6875 62.363281 L 50.6875 67.667969 L 39.011719 67.667969 Z M 39.011719 62.363281 "/><path style=" stroke:none;fill-rule:nonzero;fill:rgb(12.939453%,14.509583%,16.079712%);fill-opacity:1;" d="M 38.480469 58.117188 L 40.605469 58.117188 C 40.898438 58.117188 41.136719 57.878906 41.136719 57.585938 C 41.136719 57.292969 40.898438 57.054688 40.605469 57.054688 L 38.480469 57.054688 C 38.1875 57.054688 37.953125 57.292969 37.953125 57.585938 C 37.953125 57.878906 38.1875 58.117188 38.480469 58.117188 Z M 38.480469 58.117188 "/><path style=" stroke:none;fill-rule:nonzero;fill:rgb(12.939453%,14.509583%,16.079712%);fill-opacity:1;" d="M 49.09375 58.117188 L 51.21875 58.117188 C 51.511719 58.117188 51.75 57.878906 51.75 57.585938 C 51.75 57.292969 51.511719 57.054688 51.21875 57.054688 L 49.09375 57.054688 C 48.800781 57.054688 48.566406 57.292969 48.566406 57.585938 C 48.566406 57.878906 48.800781 58.117188 49.09375 58.117188 Z M 49.09375 58.117188 "/><g clip-rule="nonzero" clip-path="url(#clip4)"><path style=" stroke:none;fill-rule:nonzero;fill:rgb(12.939453%,14.509583%,16.079712%);fill-opacity:1;" d="M 72.445312 52.808594 L 17.253906 52.808594 C 16.960938 52.808594 16.726562 53.046875 16.726562 53.339844 C 16.726562 53.632812 16.960938 53.871094 17.253906 53.871094 L 18.847656 53.871094 L 18.847656 72.445312 C 18.847656 72.738281 19.085938 72.976562 19.378906 72.976562 L 70.320312 72.976562 C 70.613281 72.976562 70.851562 72.738281 70.851562 72.445312 L 70.851562 53.871094 L 72.445312 53.871094 C 72.738281 53.871094 72.976562 53.632812 72.976562 53.339844 C 72.976562 53.046875 72.738281 52.808594 72.445312 52.808594 Z M 54.933594 53.871094 L 54.933594 71.914062 L 34.765625 71.914062 L 34.765625 53.871094 Z M 19.910156 53.871094 L 33.707031 53.871094 L 33.707031 71.914062 L 19.910156 71.914062 Z M 69.792969 71.914062 L 55.992188 71.914062 L 55.992188 53.871094 L 69.792969 53.871094 Z M 69.792969 71.914062 "/></g></g></svg>