<?xml version="1.0" encoding="UTF-8"?><svg xmlns="http://www.w3.org/2000/svg" xmlns:xlink="http://www.w3.org/1999/xlink" contentScriptType="text/ecmascript" width="90pt" zoomAndPan="magnify" contentStyleType="text/css" viewBox="0 0 90 89.999999" height="89.999999pt" preserveAspectRatio="xMidYMid meet" version="1.2"><defs><filter x="0%" y="0%" width="100%" xmlns:xlink="http://www.w3.org/1999/xlink" xlink:type="simple" filterUnits="objectBoundingBox" xlink:actuate="onLoad" id="alpha" height="100%" xlink:show="other" xml:id="alpha"><feColorMatrix values="0 0 0 0 1 0 0 0 0 1 0 0 0 0 1 0 0 0 1 0" type="matrix" in="SourceGraphic"/></filter><clipPath xml:id="clip2" id="clip2"><path d="M 0.71875 0.71875 L 89.21875 0.71875 L 89.21875 89.21875 L 0.71875 89.21875 Z M 0.71875 0.71875 "/></clipPath><clipPath xml:id="clip1" id="clip1"><rect x="0" width="90" y="0" height="90"/></clipPath><clipPath xml:id="clip3" id="clip3"><path d="M 24.207031 19 L 65 19 L 65 71 L 24.207031 71 Z M 24.207031 19 "/></clipPath><clipPath xml:id="clip4" id="clip4"><path d="M 24.207031 18.34375 L 65.457031 18.34375 L 65.457031 71.59375 L 24.207031 71.59375 Z M 24.207031 18.34375 "/></clipPath></defs><g xml:id="surface1" id="surface1"><g mask="url(#mask0)" transform="matrix(1,0,0,1,0.000000000000000056,-0.000000000000009492)"><g xml:id="surface5" id="surface5" clip-path="url(#clip1)"><g clip-rule="nonzero" clip-path="url(#clip2)"><path style=" stroke:none;fill-rule:nonzero;fill:rgb(85.099792%,85.099792%,83.139038%);fill-opacity:1;" d="M 45.9375 87.285156 C 22.03125 87.285156 2.65625 67.90625 2.65625 44 C 2.65625 20.257812 21.773438 0.984375 45.453125 0.726562 C 45.292969 0.722656 45.128906 0.71875 44.96875 0.71875 C 20.53125 0.71875 0.71875 20.53125 0.71875 44.96875 C 0.71875 69.40625 20.53125 89.21875 44.96875 89.21875 C 69.40625 89.21875 89.21875 69.40625 89.21875 44.96875 C 89.21875 44.808594 89.214844 44.644531 89.214844 44.484375 C 88.953125 68.167969 69.679688 87.285156 45.9375 87.285156 "/></g><path style=" stroke:none;fill-rule:nonzero;fill:rgb(85.099792%,85.099792%,83.139038%);fill-opacity:1;" d="M 44.96875 7.910156 C 24.5 7.910156 7.910156 24.5 7.910156 44.96875 C 7.910156 45.152344 7.914062 45.335938 7.917969 45.523438 C 8.210938 25.921875 24.191406 10.121094 43.863281 10.121094 C 63.71875 10.121094 79.816406 26.21875 79.816406 46.074219 C 79.816406 65.746094 64.015625 81.726562 44.417969 82.019531 C 44.601562 82.023438 44.785156 82.027344 44.96875 82.027344 C 65.4375 82.027344 82.027344 65.4375 82.027344 44.96875 C 82.027344 24.5 65.4375 7.910156 44.96875 7.910156 "/></g><mask xml:id="mask0" id="mask0"><g filter="url(#alpha)"><rect x="0" width="90" y="0" height="89.999999" style="fill:rgb(0%,0%,0%);fill-opacity:0.498;stroke:none;"/></g></mask></g><g clip-rule="nonzero" clip-path="url(#clip3)"><path style=" stroke:none;fill-rule:nonzero;fill:rgb(100%,100%,100%);fill-opacity:1;" d="M 58.367188 70.925781 L 31.296875 70.925781 C 27.738281 70.925781 24.851562 68.019531 24.851562 64.4375 L 24.851562 25.5 C 24.851562 21.917969 27.738281 19.011719 31.296875 19.011719 L 58.367188 19.011719 C 61.929688 19.011719 64.8125 21.917969 64.8125 25.5 L 64.8125 64.4375 C 64.8125 68.019531 61.929688 70.925781 58.367188 70.925781 Z M 58.367188 70.925781 "/></g><g clip-rule="nonzero" clip-path="url(#clip4)"><path style=" stroke:none;fill-rule:nonzero;fill:rgb(12.159729%,12.939453%,16.859436%);fill-opacity:1;" d="M 58.367188 71.574219 L 31.296875 71.574219 C 27.390625 71.574219 24.207031 68.371094 24.207031 64.4375 L 24.207031 25.5 C 24.207031 21.5625 27.390625 18.363281 31.296875 18.363281 L 58.367188 18.363281 C 62.277344 18.363281 65.457031 21.5625 65.457031 25.5 L 65.457031 64.4375 C 65.457031 68.371094 62.277344 71.574219 58.367188 71.574219 Z M 31.296875 19.660156 C 28.101562 19.660156 25.496094 22.28125 25.496094 25.5 L 25.496094 64.4375 C 25.496094 67.65625 28.101562 70.277344 31.296875 70.277344 L 58.367188 70.277344 C 61.566406 70.277344 64.167969 67.65625 64.167969 64.4375 L 64.167969 25.5 C 64.167969 22.28125 61.566406 19.660156 58.367188 19.660156 Z M 31.296875 19.660156 "/></g><path style=" stroke:none;fill-rule:nonzero;fill:rgb(12.159729%,12.939453%,16.859436%);fill-opacity:1;" d="M 56.113281 67.03125 L 33.554688 67.03125 C 30.886719 67.03125 28.71875 64.851562 28.71875 62.164062 L 28.71875 27.773438 C 28.71875 25.085938 30.886719 22.90625 33.554688 22.90625 C 33.730469 22.90625 33.875 23.050781 33.875 23.230469 C 33.875 23.40625 33.730469 23.554688 33.554688 23.554688 C 31.242188 23.554688 29.363281 25.445312 29.363281 27.773438 L 29.363281 62.164062 C 29.363281 64.492188 31.242188 66.382812 33.554688 66.382812 L 56.113281 66.382812 C 58.421875 66.382812 60.300781 64.492188 60.300781 62.164062 L 60.300781 51.132812 C 60.300781 50.953125 60.445312 50.808594 60.625 50.808594 C 60.800781 50.808594 60.945312 50.953125 60.945312 51.132812 L 60.945312 62.164062 C 60.945312 64.851562 58.777344 67.03125 56.113281 67.03125 Z M 56.113281 67.03125 "/><path style=" stroke:none;fill-rule:nonzero;fill:rgb(12.159729%,12.939453%,16.859436%);fill-opacity:1;" d="M 60.625 50.160156 C 60.445312 50.160156 60.300781 50.015625 60.300781 49.835938 L 60.300781 45.941406 C 60.300781 45.761719 60.445312 45.617188 60.625 45.617188 C 60.800781 45.617188 60.945312 45.761719 60.945312 45.941406 L 60.945312 49.835938 C 60.945312 50.015625 60.800781 50.160156 60.625 50.160156 Z M 60.625 50.160156 "/><path style=" stroke:none;fill-rule:nonzero;fill:rgb(12.159729%,12.939453%,16.859436%);fill-opacity:1;" d="M 60.625 44.96875 C 60.445312 44.96875 60.300781 44.824219 60.300781 44.644531 L 60.300781 42.695312 C 60.300781 42.519531 60.445312 42.371094 60.625 42.371094 C 60.800781 42.371094 60.945312 42.519531 60.945312 42.695312 L 60.945312 44.644531 C 60.945312 44.824219 60.800781 44.96875 60.625 44.96875 Z M 60.625 44.96875 "/><path style=" stroke:none;fill-rule:nonzero;fill:rgb(85.099792%,85.099792%,83.139038%);fill-opacity:1;" d="M 57.402344 32.3125 L 57.402344 35.558594 L 51.601562 35.558594 L 51.601562 29.71875 L 55.46875 29.71875 "/><path style=" stroke:none;fill-rule:nonzero;fill:rgb(12.159729%,12.939453%,16.859436%);fill-opacity:1;" d="M 57.402344 35.882812 L 51.601562 35.882812 C 51.421875 35.882812 51.277344 35.738281 51.277344 35.558594 L 51.277344 29.71875 C 51.277344 29.539062 51.421875 29.394531 51.601562 29.394531 L 55.46875 29.394531 C 55.644531 29.394531 55.789062 29.539062 55.789062 29.71875 C 55.789062 29.898438 55.644531 30.042969 55.46875 30.042969 L 51.921875 30.042969 L 51.921875 35.234375 L 57.078125 35.234375 L 57.078125 32.3125 C 57.078125 32.136719 57.222656 31.988281 57.402344 31.988281 C 57.578125 31.988281 57.722656 32.136719 57.722656 32.3125 L 57.722656 35.558594 C 57.722656 35.738281 57.578125 35.882812 57.402344 35.882812 Z M 57.402344 35.882812 "/><path style=" stroke:none;fill-rule:nonzero;fill:rgb(12.159729%,12.939453%,16.859436%);fill-opacity:1;" d="M 45.800781 31.988281 L 34.84375 31.988281 C 34.664062 31.988281 34.519531 31.84375 34.519531 31.664062 C 34.519531 31.484375 34.664062 31.339844 34.84375 31.339844 L 45.800781 31.339844 C 45.976562 31.339844 46.121094 31.484375 46.121094 31.664062 C 46.121094 31.84375 45.976562 31.988281 45.800781 31.988281 Z M 45.800781 31.988281 "/><path style=" stroke:none;fill-rule:nonzero;fill:rgb(12.159729%,12.939453%,16.859436%);fill-opacity:1;" d="M 42.578125 33.9375 L 40.644531 33.9375 C 40.464844 33.9375 40.320312 33.792969 40.320312 33.613281 C 40.320312 33.433594 40.464844 33.289062 40.644531 33.289062 L 42.578125 33.289062 C 42.753906 33.289062 42.898438 33.433594 42.898438 33.613281 C 42.898438 33.792969 42.753906 33.9375 42.578125 33.9375 Z M 42.578125 33.9375 "/><path style=" stroke:none;fill-rule:nonzero;fill:rgb(12.159729%,12.939453%,16.859436%);fill-opacity:1;" d="M 38.710938 33.9375 L 34.84375 33.9375 C 34.664062 33.9375 34.519531 33.792969 34.519531 33.613281 C 34.519531 33.433594 34.664062 33.289062 34.84375 33.289062 L 38.710938 33.289062 C 38.886719 33.289062 39.03125 33.433594 39.03125 33.613281 C 39.03125 33.792969 38.886719 33.9375 38.710938 33.9375 Z M 38.710938 33.9375 "/><path style=" stroke:none;fill-rule:nonzero;fill:rgb(12.159729%,12.939453%,16.859436%);fill-opacity:1;" d="M 54.824219 33.9375 C 54.820312 33.9375 54.820312 33.9375 54.816406 33.9375 C 54.710938 33.933594 54.613281 33.878906 54.554688 33.792969 L 53.265625 31.84375 C 53.167969 31.695312 53.207031 31.496094 53.355469 31.394531 C 53.503906 31.296875 53.703125 31.335938 53.800781 31.484375 L 54.832031 33.039062 L 57.785156 28.878906 C 57.886719 28.734375 58.089844 28.703125 58.234375 28.804688 C 58.378906 28.910156 58.410156 29.113281 58.308594 29.257812 L 55.085938 33.800781 C 55.023438 33.886719 54.925781 33.9375 54.824219 33.9375 Z M 54.824219 33.9375 "/><path style=" stroke:none;fill-rule:nonzero;fill:rgb(12.159729%,12.939453%,16.859436%);fill-opacity:1;" d="M 48.378906 35.882812 L 32.265625 35.882812 C 32.085938 35.882812 31.941406 35.738281 31.941406 35.558594 L 31.941406 29.71875 C 31.941406 29.539062 32.085938 29.394531 32.265625 29.394531 L 48.378906 29.394531 C 48.554688 29.394531 48.699219 29.539062 48.699219 29.71875 L 48.699219 35.558594 C 48.699219 35.738281 48.554688 35.882812 48.378906 35.882812 Z M 32.585938 35.234375 L 48.054688 35.234375 L 48.054688 30.042969 L 32.585938 30.042969 Z M 32.585938 35.234375 "/><path style=" stroke:none;fill-rule:nonzero;fill:rgb(85.099792%,85.099792%,83.139038%);fill-opacity:1;" d="M 57.402344 44.644531 L 57.402344 47.890625 L 51.601562 47.890625 L 51.601562 42.046875 L 55.46875 42.046875 "/><path style=" stroke:none;fill-rule:nonzero;fill:rgb(12.159729%,12.939453%,16.859436%);fill-opacity:1;" d="M 57.402344 48.214844 L 51.601562 48.214844 C 51.421875 48.214844 51.277344 48.066406 51.277344 47.890625 L 51.277344 42.046875 C 51.277344 41.871094 51.421875 41.722656 51.601562 41.722656 L 55.46875 41.722656 C 55.644531 41.722656 55.789062 41.871094 55.789062 42.046875 C 55.789062 42.226562 55.644531 42.371094 55.46875 42.371094 L 51.921875 42.371094 L 51.921875 47.5625 L 57.078125 47.5625 L 57.078125 44.644531 C 57.078125 44.464844 57.222656 44.320312 57.402344 44.320312 C 57.578125 44.320312 57.722656 44.464844 57.722656 44.644531 L 57.722656 47.890625 C 57.722656 48.066406 57.578125 48.214844 57.402344 48.214844 Z M 57.402344 48.214844 "/><path style=" stroke:none;fill-rule:nonzero;fill:rgb(12.159729%,12.939453%,16.859436%);fill-opacity:1;" d="M 45.800781 44.320312 L 34.84375 44.320312 C 34.664062 44.320312 34.519531 44.175781 34.519531 43.996094 C 34.519531 43.816406 34.664062 43.671875 34.84375 43.671875 L 45.800781 43.671875 C 45.976562 43.671875 46.121094 43.816406 46.121094 43.996094 C 46.121094 44.175781 45.976562 44.320312 45.800781 44.320312 Z M 45.800781 44.320312 "/><path style=" stroke:none;fill-rule:nonzero;fill:rgb(12.159729%,12.939453%,16.859436%);fill-opacity:1;" d="M 42.578125 46.265625 L 40.644531 46.265625 C 40.464844 46.265625 40.320312 46.121094 40.320312 45.941406 C 40.320312 45.761719 40.464844 45.617188 40.644531 45.617188 L 42.578125 45.617188 C 42.753906 45.617188 42.898438 45.761719 42.898438 45.941406 C 42.898438 46.121094 42.753906 46.265625 42.578125 46.265625 Z M 42.578125 46.265625 "/><path style=" stroke:none;fill-rule:nonzero;fill:rgb(12.159729%,12.939453%,16.859436%);fill-opacity:1;" d="M 38.710938 46.265625 L 34.84375 46.265625 C 34.664062 46.265625 34.519531 46.121094 34.519531 45.941406 C 34.519531 45.761719 34.664062 45.617188 34.84375 45.617188 L 38.710938 45.617188 C 38.886719 45.617188 39.03125 45.761719 39.03125 45.941406 C 39.03125 46.121094 38.886719 46.265625 38.710938 46.265625 Z M 38.710938 46.265625 "/><path style=" stroke:none;fill-rule:nonzero;fill:rgb(12.159729%,12.939453%,16.859436%);fill-opacity:1;" d="M 54.824219 46.265625 C 54.820312 46.265625 54.820312 46.265625 54.816406 46.265625 C 54.710938 46.265625 54.613281 46.210938 54.554688 46.121094 L 53.265625 44.175781 C 53.167969 44.027344 53.207031 43.824219 53.355469 43.726562 C 53.503906 43.625 53.703125 43.667969 53.800781 43.816406 L 54.832031 45.371094 L 57.785156 41.210938 C 57.886719 41.066406 58.089844 41.03125 58.234375 41.136719 C 58.378906 41.238281 58.410156 41.441406 58.308594 41.589844 L 55.085938 46.128906 C 55.023438 46.214844 54.925781 46.265625 54.824219 46.265625 Z M 54.824219 46.265625 "/><path style=" stroke:none;fill-rule:nonzero;fill:rgb(12.159729%,12.939453%,16.859436%);fill-opacity:1;" d="M 48.378906 48.214844 L 32.265625 48.214844 C 32.085938 48.214844 31.941406 48.066406 31.941406 47.890625 L 31.941406 42.046875 C 31.941406 41.871094 32.085938 41.722656 32.265625 41.722656 L 48.378906 41.722656 C 48.554688 41.722656 48.699219 41.871094 48.699219 42.046875 L 48.699219 47.890625 C 48.699219 48.066406 48.554688 48.214844 48.378906 48.214844 Z M 32.585938 47.5625 L 48.054688 47.5625 L 48.054688 42.371094 L 32.585938 42.371094 Z M 32.585938 47.5625 "/><path style=" stroke:none;fill-rule:nonzero;fill:rgb(85.099792%,85.099792%,83.139038%);fill-opacity:1;" d="M 57.402344 56.972656 L 57.402344 60.21875 L 51.601562 60.21875 L 51.601562 54.378906 L 55.46875 54.378906 "/><path style=" stroke:none;fill-rule:nonzero;fill:rgb(12.159729%,12.939453%,16.859436%);fill-opacity:1;" d="M 57.402344 60.542969 L 51.601562 60.542969 C 51.421875 60.542969 51.277344 60.398438 51.277344 60.21875 L 51.277344 54.378906 C 51.277344 54.199219 51.421875 54.054688 51.601562 54.054688 L 55.46875 54.054688 C 55.644531 54.054688 55.789062 54.199219 55.789062 54.378906 C 55.789062 54.558594 55.644531 54.703125 55.46875 54.703125 L 51.921875 54.703125 L 51.921875 59.894531 L 57.078125 59.894531 L 57.078125 56.972656 C 57.078125 56.796875 57.222656 56.648438 57.402344 56.648438 C 57.578125 56.648438 57.722656 56.796875 57.722656 56.972656 L 57.722656 60.21875 C 57.722656 60.398438 57.578125 60.542969 57.402344 60.542969 Z M 57.402344 60.542969 "/><path style=" stroke:none;fill-rule:nonzero;fill:rgb(12.159729%,12.939453%,16.859436%);fill-opacity:1;" d="M 45.800781 56.648438 L 34.84375 56.648438 C 34.664062 56.648438 34.519531 56.503906 34.519531 56.324219 C 34.519531 56.144531 34.664062 56 34.84375 56 L 45.800781 56 C 45.976562 56 46.121094 56.144531 46.121094 56.324219 C 46.121094 56.503906 45.976562 56.648438 45.800781 56.648438 Z M 45.800781 56.648438 "/><path style=" stroke:none;fill-rule:nonzero;fill:rgb(12.159729%,12.939453%,16.859436%);fill-opacity:1;" d="M 42.578125 58.597656 L 40.644531 58.597656 C 40.464844 58.597656 40.320312 58.449219 40.320312 58.273438 C 40.320312 58.09375 40.464844 57.949219 40.644531 57.949219 L 42.578125 57.949219 C 42.753906 57.949219 42.898438 58.09375 42.898438 58.273438 C 42.898438 58.449219 42.753906 58.597656 42.578125 58.597656 Z M 42.578125 58.597656 "/><path style=" stroke:none;fill-rule:nonzero;fill:rgb(12.159729%,12.939453%,16.859436%);fill-opacity:1;" d="M 38.710938 58.597656 L 34.84375 58.597656 C 34.664062 58.597656 34.519531 58.449219 34.519531 58.273438 C 34.519531 58.09375 34.664062 57.949219 34.84375 57.949219 L 38.710938 57.949219 C 38.886719 57.949219 39.03125 58.09375 39.03125 58.273438 C 39.03125 58.449219 38.886719 58.597656 38.710938 58.597656 Z M 38.710938 58.597656 "/><path style=" stroke:none;fill-rule:nonzero;fill:rgb(12.159729%,12.939453%,16.859436%);fill-opacity:1;" d="M 54.824219 58.597656 C 54.820312 58.597656 54.820312 58.597656 54.816406 58.597656 C 54.710938 58.59375 54.613281 58.539062 54.554688 58.453125 L 53.265625 56.503906 C 53.167969 56.355469 53.207031 56.15625 53.355469 56.054688 C 53.503906 55.957031 53.703125 55.996094 53.800781 56.144531 L 54.832031 57.699219 L 57.785156 53.539062 C 57.886719 53.394531 58.089844 53.363281 58.234375 53.464844 C 58.378906 53.570312 58.410156 53.773438 58.308594 53.917969 L 55.085938 58.460938 C 55.023438 58.546875 54.925781 58.597656 54.824219 58.597656 Z M 54.824219 58.597656 "/><path style=" stroke:none;fill-rule:nonzero;fill:rgb(12.159729%,12.939453%,16.859436%);fill-opacity:1;" d="M 48.378906 60.542969 L 32.265625 60.542969 C 32.085938 60.542969 31.941406 60.398438 31.941406 60.21875 L 31.941406 54.378906 C 31.941406 54.199219 32.085938 54.054688 32.265625 54.054688 L 48.378906 54.054688 C 48.554688 54.054688 48.699219 54.199219 48.699219 54.378906 L 48.699219 60.21875 C 48.699219 60.398438 48.554688 60.542969 48.378906 60.542969 Z M 32.585938 59.894531 L 48.054688 59.894531 L 48.054688 54.703125 L 32.585938 54.703125 Z M 32.585938 59.894531 "/></g></svg>