<?xml version="1.0" encoding="UTF-8"?><svg xmlns="http://www.w3.org/2000/svg" xmlns:xlink="http://www.w3.org/1999/xlink" contentScriptType="text/ecmascript" width="90pt" zoomAndPan="magnify" contentStyleType="text/css" viewBox="0 0 90 89.999999" height="89.999999pt" preserveAspectRatio="xMidYMid meet" version="1.2"><defs><filter x="0%" y="0%" width="100%" xmlns:xlink="http://www.w3.org/1999/xlink" xlink:type="simple" filterUnits="objectBoundingBox" xlink:actuate="onLoad" id="alpha" height="100%" xlink:show="other" xml:id="alpha"><feColorMatrix values="0 0 0 0 1 0 0 0 0 1 0 0 0 0 1 0 0 0 1 0" type="matrix" in="SourceGraphic"/></filter><clipPath xml:id="clip2" id="clip2"><path d="M 0.71875 0.71875 L 89.21875 0.71875 L 89.21875 89.21875 L 0.71875 89.21875 Z M 0.71875 0.71875 "/></clipPath><clipPath xml:id="clip1" id="clip1"><rect x="0" width="90" y="0" height="90"/></clipPath><clipPath xml:id="clip3" id="clip3"><path d="M 17 33.652344 L 73.234375 33.652344 L 73.234375 56.152344 L 17 56.152344 Z M 17 33.652344 "/></clipPath><clipPath xml:id="clip4" id="clip4"><path d="M 59 33.652344 L 73.234375 33.652344 L 73.234375 56.152344 L 59 56.152344 Z M 59 33.652344 "/></clipPath></defs><g xml:id="surface1" id="surface1"><g mask="url(#mask0)" transform="matrix(1,0,0,1,0.000000000000000056,-0.000000000000009492)"><g xml:id="surface5" id="surface5" clip-path="url(#clip1)"><g clip-rule="nonzero" clip-path="url(#clip2)"><path style=" stroke:none;fill-rule:nonzero;fill:rgb(85.099792%,85.099792%,83.139038%);fill-opacity:1;" d="M 45.9375 87.285156 C 22.03125 87.285156 2.65625 67.90625 2.65625 44 C 2.65625 20.257812 21.773438 0.984375 45.453125 0.726562 C 45.292969 0.722656 45.128906 0.71875 44.96875 0.71875 C 20.53125 0.71875 0.71875 20.53125 0.71875 44.96875 C 0.71875 69.40625 20.53125 89.21875 44.96875 89.21875 C 69.40625 89.21875 89.21875 69.40625 89.21875 44.96875 C 89.21875 44.808594 89.214844 44.644531 89.214844 44.484375 C 88.953125 68.167969 69.679688 87.285156 45.9375 87.285156 "/></g><path style=" stroke:none;fill-rule:nonzero;fill:rgb(85.099792%,85.099792%,83.139038%);fill-opacity:1;" d="M 44.96875 7.910156 C 24.5 7.910156 7.910156 24.5 7.910156 44.96875 C 7.910156 45.152344 7.914062 45.335938 7.917969 45.523438 C 8.210938 25.921875 24.191406 10.121094 43.863281 10.121094 C 63.71875 10.121094 79.816406 26.21875 79.816406 46.074219 C 79.816406 65.746094 64.015625 81.726562 44.417969 82.019531 C 44.601562 82.023438 44.785156 82.027344 44.96875 82.027344 C 65.4375 82.027344 82.027344 65.4375 82.027344 44.96875 C 82.027344 24.5 65.4375 7.910156 44.96875 7.910156 "/></g><mask xml:id="mask0" id="mask0"><g filter="url(#alpha)"><rect x="0" width="90" y="0" height="89.999999" style="fill:rgb(0%,0%,0%);fill-opacity:0.498;stroke:none;"/></g></mask></g><g clip-rule="nonzero" clip-path="url(#clip3)"><path style=" stroke:none;fill-rule:nonzero;fill:rgb(12.939453%,14.509583%,16.079712%);fill-opacity:1;" d="M 59.199219 38.441406 C 58.859375 38.441406 58.582031 38.167969 58.582031 37.832031 C 58.582031 37.496094 58.859375 37.226562 59.199219 37.226562 C 59.539062 37.226562 59.8125 37.496094 59.8125 37.832031 C 59.8125 38.167969 59.539062 38.441406 59.199219 38.441406 Z M 59.199219 40.796875 C 58.859375 40.796875 58.582031 40.527344 58.582031 40.191406 C 58.582031 39.855469 58.859375 39.582031 59.199219 39.582031 C 59.539062 39.582031 59.8125 39.855469 59.8125 40.191406 C 59.8125 40.527344 59.539062 40.796875 59.199219 40.796875 Z M 59.199219 43.15625 C 58.859375 43.15625 58.582031 42.882812 58.582031 42.546875 C 58.582031 42.210938 58.859375 41.9375 59.199219 41.9375 C 59.539062 41.9375 59.8125 42.210938 59.8125 42.546875 C 59.8125 42.882812 59.539062 43.15625 59.199219 43.15625 Z M 59.199219 45.511719 C 58.859375 45.511719 58.582031 45.238281 58.582031 44.902344 C 58.582031 44.566406 58.859375 44.292969 59.199219 44.292969 C 59.539062 44.292969 59.8125 44.566406 59.8125 44.902344 C 59.8125 45.238281 59.539062 45.511719 59.199219 45.511719 Z M 59.199219 47.867188 C 58.859375 47.867188 58.582031 47.597656 58.582031 47.257812 C 58.582031 46.921875 58.859375 46.652344 59.199219 46.652344 C 59.539062 46.652344 59.8125 46.921875 59.8125 47.257812 C 59.8125 47.597656 59.539062 47.867188 59.199219 47.867188 Z M 59.199219 50.226562 C 58.859375 50.226562 58.582031 49.953125 58.582031 49.617188 C 58.582031 49.28125 58.859375 49.007812 59.199219 49.007812 C 59.539062 49.007812 59.8125 49.28125 59.8125 49.617188 C 59.8125 49.953125 59.539062 50.226562 59.199219 50.226562 Z M 59.199219 52.582031 C 58.859375 52.582031 58.582031 52.308594 58.582031 51.972656 C 58.582031 51.636719 58.859375 51.363281 59.199219 51.363281 C 59.539062 51.363281 59.8125 51.636719 59.8125 51.972656 C 59.8125 52.308594 59.539062 52.582031 59.199219 52.582031 Z M 71.253906 33.652344 L 61.121094 33.652344 C 61.121094 34.703125 60.261719 35.550781 59.199219 35.550781 C 58.136719 35.550781 57.273438 34.703125 57.273438 33.652344 L 18.960938 33.652344 C 18.960938 34.703125 18.101562 35.550781 17.039062 35.550781 L 17.039062 54.253906 C 18.101562 54.253906 18.960938 55.105469 18.960938 56.15625 L 57.273438 56.15625 C 57.273438 55.105469 58.136719 54.253906 59.199219 54.253906 C 60.261719 54.253906 61.121094 55.105469 61.121094 56.15625 L 71.253906 56.15625 C 71.253906 55.105469 72.117188 54.253906 73.179688 54.253906 L 73.179688 35.550781 C 72.117188 35.550781 71.253906 34.703125 71.253906 33.652344 "/></g><g clip-rule="nonzero" clip-path="url(#clip4)"><path style=" stroke:none;fill-rule:nonzero;fill:rgb(85.099792%,85.099792%,83.139038%);fill-opacity:1;" d="M 71.253906 33.652344 L 61.121094 33.652344 C 61.121094 34.703125 60.261719 35.550781 59.199219 35.550781 C 59.183594 35.550781 59.167969 35.550781 59.15625 35.550781 L 59.15625 37.226562 C 59.167969 37.226562 59.183594 37.226562 59.199219 37.226562 C 59.539062 37.226562 59.8125 37.496094 59.8125 37.832031 C 59.8125 38.167969 59.539062 38.441406 59.199219 38.441406 C 59.183594 38.441406 59.167969 38.441406 59.15625 38.441406 L 59.15625 39.582031 C 59.167969 39.582031 59.183594 39.582031 59.199219 39.582031 C 59.539062 39.582031 59.8125 39.855469 59.8125 40.191406 C 59.8125 40.527344 59.539062 40.796875 59.199219 40.796875 C 59.183594 40.796875 59.167969 40.796875 59.15625 40.796875 L 59.15625 41.941406 C 59.167969 41.9375 59.183594 41.9375 59.199219 41.9375 C 59.539062 41.9375 59.8125 42.210938 59.8125 42.546875 C 59.8125 42.882812 59.539062 43.15625 59.199219 43.15625 C 59.183594 43.15625 59.167969 43.152344 59.15625 43.152344 L 59.15625 44.296875 C 59.167969 44.296875 59.183594 44.292969 59.199219 44.292969 C 59.539062 44.292969 59.8125 44.566406 59.8125 44.902344 C 59.8125 45.238281 59.539062 45.511719 59.199219 45.511719 C 59.183594 45.511719 59.167969 45.511719 59.15625 45.507812 L 59.15625 46.652344 C 59.167969 46.652344 59.183594 46.652344 59.199219 46.652344 C 59.539062 46.652344 59.8125 46.921875 59.8125 47.257812 C 59.8125 47.597656 59.539062 47.867188 59.199219 47.867188 C 59.183594 47.867188 59.167969 47.867188 59.15625 47.867188 L 59.15625 49.011719 C 59.167969 49.007812 59.183594 49.007812 59.199219 49.007812 C 59.539062 49.007812 59.8125 49.28125 59.8125 49.617188 C 59.8125 49.953125 59.539062 50.226562 59.199219 50.226562 C 59.183594 50.226562 59.167969 50.222656 59.15625 50.222656 L 59.15625 51.367188 C 59.167969 51.367188 59.183594 51.363281 59.199219 51.363281 C 59.539062 51.363281 59.8125 51.636719 59.8125 51.972656 C 59.8125 52.308594 59.539062 52.582031 59.199219 52.582031 C 59.183594 52.582031 59.167969 52.582031 59.15625 52.578125 L 59.15625 54.257812 C 59.167969 54.253906 59.183594 54.253906 59.199219 54.253906 C 60.261719 54.253906 61.121094 55.105469 61.121094 56.15625 L 71.253906 56.15625 C 71.253906 55.105469 72.117188 54.253906 73.179688 54.253906 L 73.179688 35.550781 C 72.117188 35.550781 71.253906 34.703125 71.253906 33.652344 "/></g><path style=" stroke:none;fill-rule:nonzero;fill:rgb(0%,0%,0%);fill-opacity:1;" d="M 68.285156 46.359375 L 62.59375 46.359375 L 62.59375 46.617188 L 68.285156 46.617188 L 68.285156 46.359375 "/><path style=" stroke:none;fill-rule:nonzero;fill:rgb(0%,0%,0%);fill-opacity:1;" d="M 68.285156 45.816406 L 62.59375 45.816406 L 62.59375 46.074219 L 68.285156 46.074219 L 68.285156 45.816406 "/><path style=" stroke:none;fill-rule:nonzero;fill:rgb(0%,0%,0%);fill-opacity:1;" d="M 69.378906 52.589844 L 62.59375 52.589844 L 62.59375 52.9375 L 69.378906 52.9375 L 69.378906 52.589844 "/><path style=" stroke:none;fill-rule:nonzero;fill:rgb(0%,0%,0%);fill-opacity:1;" d="M 69.378906 51.816406 L 62.59375 51.816406 L 62.59375 52.121094 L 69.378906 52.121094 L 69.378906 51.816406 "/><path style=" stroke:none;fill-rule:nonzero;fill:rgb(0%,0%,0%);fill-opacity:1;" d="M 68.285156 50.8125 L 62.59375 50.8125 L 62.59375 51.46875 L 68.285156 51.46875 L 68.285156 50.8125 "/><path style=" stroke:none;fill-rule:nonzero;fill:rgb(0%,0%,0%);fill-opacity:1;" d="M 68.285156 49.8125 L 62.59375 49.8125 L 62.59375 50.378906 L 68.285156 50.378906 L 68.285156 49.8125 "/><path style=" stroke:none;fill-rule:nonzero;fill:rgb(0%,0%,0%);fill-opacity:1;" d="M 68.285156 41.292969 L 62.59375 41.292969 L 62.59375 41.628906 L 68.285156 41.628906 L 68.285156 41.292969 "/><path style=" stroke:none;fill-rule:nonzero;fill:rgb(0%,0%,0%);fill-opacity:1;" d="M 68.285156 40.636719 L 62.59375 40.636719 L 62.59375 40.976562 L 68.285156 40.976562 L 68.285156 40.636719 "/><path style=" stroke:none;fill-rule:nonzero;fill:rgb(0%,0%,0%);fill-opacity:1;" d="M 68.285156 39.742188 L 62.59375 39.742188 L 62.59375 40.324219 L 68.285156 40.324219 L 68.285156 39.742188 "/><path style=" stroke:none;fill-rule:nonzero;fill:rgb(0%,0%,0%);fill-opacity:1;" d="M 68.285156 38.367188 L 62.601562 38.367188 L 62.601562 39.3125 L 68.285156 39.3125 L 68.285156 38.367188 "/><path style=" stroke:none;fill-rule:nonzero;fill:rgb(0%,0%,0%);fill-opacity:1;" d="M 68.285156 41.882812 L 62.59375 41.882812 L 62.59375 42.464844 L 68.285156 42.464844 L 68.285156 41.882812 "/><path style=" stroke:none;fill-rule:nonzero;fill:rgb(0%,0%,0%);fill-opacity:1;" d="M 69.378906 37.808594 L 62.59375 37.808594 L 62.59375 38.007812 L 69.378906 38.007812 L 69.378906 37.808594 "/><path style=" stroke:none;fill-rule:nonzero;fill:rgb(0%,0%,0%);fill-opacity:1;" d="M 69.378906 37.105469 L 62.59375 37.105469 L 62.59375 37.5625 L 69.378906 37.5625 L 69.378906 37.105469 "/><path style=" stroke:none;fill-rule:nonzero;fill:rgb(0%,0%,0%);fill-opacity:1;" d="M 68.285156 43 L 62.59375 43 L 62.59375 43.230469 L 68.285156 43.230469 L 68.285156 43 "/><path style=" stroke:none;fill-rule:nonzero;fill:rgb(0%,0%,0%);fill-opacity:1;" d="M 68.285156 43.71875 L 62.59375 43.71875 L 62.59375 43.917969 L 68.285156 43.917969 L 68.285156 43.71875 "/><path style=" stroke:none;fill-rule:nonzero;fill:rgb(0%,0%,0%);fill-opacity:1;" d="M 68.285156 44.148438 L 62.59375 44.148438 L 62.59375 44.582031 L 68.285156 44.582031 L 68.285156 44.148438 "/><path style=" stroke:none;fill-rule:nonzero;fill:rgb(0%,0%,0%);fill-opacity:1;" d="M 68.285156 44.867188 L 62.59375 44.867188 L 62.59375 45.515625 L 68.285156 45.515625 L 68.285156 44.867188 "/><path style=" stroke:none;fill-rule:nonzero;fill:rgb(0%,0%,0%);fill-opacity:1;" d="M 68.285156 48.40625 L 62.59375 48.40625 L 62.59375 48.964844 L 68.285156 48.964844 L 68.285156 48.40625 "/><path style=" stroke:none;fill-rule:nonzero;fill:rgb(0%,0%,0%);fill-opacity:1;" d="M 68.285156 47.84375 L 62.59375 47.84375 L 62.59375 48.203125 L 68.285156 48.203125 L 68.285156 47.84375 "/><path style=" stroke:none;fill-rule:nonzero;fill:rgb(0%,0%,0%);fill-opacity:1;" d="M 68.285156 47.058594 L 62.59375 47.058594 L 62.59375 47.652344 L 68.285156 47.652344 L 68.285156 47.058594 "/><path style=" stroke:none;fill-rule:nonzero;fill:rgb(85.099792%,85.099792%,83.139038%);fill-opacity:1;" d="M 44.757812 37.035156 L 44.296875 37.035156 L 44.296875 36.765625 L 44.757812 36.765625 Z M 45.671875 37.035156 L 45.214844 37.035156 L 45.214844 36.765625 L 45.671875 36.765625 Z M 46.589844 37.035156 L 46.132812 37.035156 L 46.132812 36.765625 L 46.589844 36.765625 Z M 47.507812 37.035156 L 47.050781 37.035156 L 47.050781 36.765625 L 47.507812 36.765625 Z M 48.425781 37.035156 L 47.96875 37.035156 L 47.96875 36.765625 L 48.425781 36.765625 Z M 49.34375 37.035156 L 48.882812 37.035156 L 48.882812 36.765625 L 49.34375 36.765625 Z M 50.261719 37.035156 L 49.800781 37.035156 L 49.800781 36.765625 L 50.261719 36.765625 Z M 51.179688 37.035156 L 50.71875 37.035156 L 50.71875 36.765625 L 51.179688 36.765625 Z M 52.097656 37.035156 L 51.636719 37.035156 L 51.636719 36.765625 L 52.097656 36.765625 Z M 53.011719 37.035156 L 52.554688 37.035156 L 52.554688 36.765625 L 53.011719 36.765625 Z M 53.929688 37.035156 L 53.472656 37.035156 L 53.472656 36.765625 L 53.929688 36.765625 Z M 54.847656 37.035156 L 54.390625 37.035156 L 54.390625 36.765625 L 54.847656 36.765625 Z M 43.445312 37.113281 L 43.335938 36.867188 C 43.496094 36.800781 43.664062 36.765625 43.839844 36.765625 L 43.839844 37.035156 C 43.703125 37.035156 43.570312 37.0625 43.445312 37.113281 Z M 55.664062 37.175781 C 55.550781 37.105469 55.421875 37.0625 55.289062 37.042969 L 55.324219 36.777344 C 55.496094 36.800781 55.660156 36.855469 55.808594 36.945312 Z M 42.914062 37.679688 L 42.65625 37.589844 C 42.714844 37.429688 42.800781 37.285156 42.921875 37.160156 L 43.121094 37.34375 C 43.027344 37.441406 42.957031 37.554688 42.914062 37.679688 Z M 56.117188 37.808594 C 56.089844 37.675781 56.035156 37.554688 55.957031 37.445312 L 56.179688 37.289062 C 56.28125 37.429688 56.351562 37.585938 56.386719 37.75 Z M 42.855469 38.535156 L 42.582031 38.535156 L 42.582031 38.082031 L 42.855469 38.082031 Z M 56.414062 38.683594 L 56.140625 38.683594 L 56.140625 38.230469 L 56.414062 38.230469 Z M 42.855469 39.441406 L 42.582031 39.441406 L 42.582031 38.988281 L 42.855469 38.988281 Z M 56.414062 39.589844 L 56.140625 39.589844 L 56.140625 39.136719 L 56.414062 39.136719 Z M 42.855469 40.347656 L 42.582031 40.347656 L 42.582031 39.894531 L 42.855469 39.894531 Z M 56.414062 40.496094 L 56.140625 40.496094 L 56.140625 40.042969 L 56.414062 40.042969 Z M 42.855469 41.253906 L 42.582031 41.253906 L 42.582031 40.800781 L 42.855469 40.800781 Z M 56.414062 41.402344 L 56.140625 41.402344 L 56.140625 40.949219 L 56.414062 40.949219 Z M 42.855469 42.160156 L 42.582031 42.160156 L 42.582031 41.707031 L 42.855469 41.707031 Z M 56.414062 42.308594 L 56.140625 42.308594 L 56.140625 41.855469 L 56.414062 41.855469 Z M 42.855469 43.066406 L 42.582031 43.066406 L 42.582031 42.613281 L 42.855469 42.613281 Z M 56.414062 43.214844 L 56.140625 43.214844 L 56.140625 42.761719 L 56.414062 42.761719 Z M 42.855469 43.972656 L 42.582031 43.972656 L 42.582031 43.519531 L 42.855469 43.519531 Z M 56.414062 44.121094 L 56.140625 44.121094 L 56.140625 43.667969 L 56.414062 43.667969 Z M 42.855469 44.878906 L 42.582031 44.878906 L 42.582031 44.425781 L 42.855469 44.425781 Z M 56.414062 45.027344 L 56.140625 45.027344 L 56.140625 44.574219 L 56.414062 44.574219 Z M 42.855469 45.785156 L 42.582031 45.785156 L 42.582031 45.332031 L 42.855469 45.332031 Z M 56.414062 45.933594 L 56.140625 45.933594 L 56.140625 45.480469 L 56.414062 45.480469 Z M 42.855469 46.691406 L 42.582031 46.691406 L 42.582031 46.238281 L 42.855469 46.238281 Z M 56.414062 46.839844 L 56.140625 46.839844 L 56.140625 46.386719 L 56.414062 46.386719 Z M 42.855469 47.597656 L 42.582031 47.597656 L 42.582031 47.144531 L 42.855469 47.144531 Z M 56.414062 47.746094 L 56.140625 47.746094 L 56.140625 47.292969 L 56.414062 47.292969 Z M 42.855469 48.503906 L 42.582031 48.503906 L 42.582031 48.050781 L 42.855469 48.050781 Z M 56.414062 48.652344 L 56.140625 48.652344 L 56.140625 48.199219 L 56.414062 48.199219 Z M 42.609375 49.4375 C 42.589844 49.355469 42.582031 49.269531 42.582031 49.183594 L 42.582031 48.957031 L 42.855469 48.957031 L 42.855469 49.183594 C 42.855469 49.25 42.863281 49.316406 42.875 49.382812 Z M 56.339844 49.597656 L 56.082031 49.507812 C 56.121094 49.402344 56.140625 49.292969 56.140625 49.183594 L 56.140625 49.105469 L 56.414062 49.105469 L 56.414062 49.183594 C 56.414062 49.324219 56.386719 49.464844 56.339844 49.597656 Z M 43.183594 50.246094 C 43.039062 50.15625 42.914062 50.039062 42.8125 49.898438 L 43.035156 49.746094 C 43.113281 49.855469 43.210938 49.945312 43.328125 50.015625 Z M 55.660156 50.320312 L 55.550781 50.074219 C 55.671875 50.019531 55.78125 49.945312 55.875 49.847656 L 56.074219 50.03125 C 55.957031 50.15625 55.816406 50.253906 55.660156 50.320312 Z M 44.144531 50.425781 L 43.839844 50.425781 C 43.78125 50.425781 43.722656 50.421875 43.667969 50.414062 L 43.703125 50.148438 C 43.75 50.152344 43.796875 50.15625 43.839844 50.15625 L 44.144531 50.15625 Z M 45.0625 50.425781 L 44.601562 50.425781 L 44.601562 50.15625 L 45.0625 50.15625 Z M 45.980469 50.425781 L 45.519531 50.425781 L 45.519531 50.15625 L 45.980469 50.15625 Z M 46.894531 50.425781 L 46.4375 50.425781 L 46.4375 50.15625 L 46.894531 50.15625 Z M 47.8125 50.425781 L 47.355469 50.425781 L 47.355469 50.15625 L 47.8125 50.15625 Z M 48.730469 50.425781 L 48.273438 50.425781 L 48.273438 50.15625 L 48.730469 50.15625 Z M 49.648438 50.425781 L 49.191406 50.425781 L 49.191406 50.15625 L 49.648438 50.15625 Z M 50.566406 50.425781 L 50.109375 50.425781 L 50.109375 50.15625 L 50.566406 50.15625 Z M 51.484375 50.425781 L 51.023438 50.425781 L 51.023438 50.15625 L 51.484375 50.15625 Z M 52.402344 50.425781 L 51.941406 50.425781 L 51.941406 50.15625 L 52.402344 50.15625 Z M 53.320312 50.425781 L 52.859375 50.425781 L 52.859375 50.15625 L 53.320312 50.15625 Z M 54.238281 50.425781 L 53.777344 50.425781 L 53.777344 50.15625 L 54.238281 50.15625 Z M 55.160156 50.425781 L 54.695312 50.425781 L 54.695312 50.15625 L 55.152344 50.15625 L 55.160156 50.425781 "/><path style=" stroke:none;fill-rule:nonzero;fill:rgb(85.099792%,85.099792%,83.139038%);fill-opacity:1;" d="M 48.355469 38.863281 C 47.90625 38.863281 47.535156 39.226562 47.535156 39.671875 C 47.535156 40.117188 47.90625 40.480469 48.355469 40.480469 L 49.175781 40.480469 L 49.175781 39.671875 C 49.175781 39.226562 48.808594 38.863281 48.355469 38.863281 Z M 50.636719 40.480469 C 51.089844 40.480469 51.457031 40.117188 51.457031 39.671875 C 51.457031 39.226562 51.089844 38.863281 50.636719 38.863281 C 50.1875 38.863281 49.816406 39.226562 49.816406 39.671875 L 49.816406 40.480469 Z M 45.527344 41.113281 C 45.429688 41.113281 45.351562 41.191406 45.351562 41.289062 L 45.351562 42.597656 C 45.351562 42.691406 45.429688 42.769531 45.527344 42.769531 L 48.488281 42.769531 L 48.488281 41.113281 Z M 53.46875 42.769531 C 53.5625 42.769531 53.644531 42.691406 53.644531 42.597656 L 53.644531 41.289062 C 53.644531 41.191406 53.5625 41.113281 53.46875 41.113281 L 50.507812 41.113281 L 50.507812 42.769531 Z M 45.847656 48.15625 C 45.847656 48.25 45.925781 48.328125 46.023438 48.328125 L 48.488281 48.328125 L 48.488281 43.402344 L 45.847656 43.402344 Z M 49.867188 48.328125 L 49.867188 41.113281 L 49.128906 41.113281 L 49.128906 48.328125 Z M 52.972656 48.328125 C 53.070312 48.328125 53.148438 48.25 53.148438 48.15625 L 53.148438 43.402344 L 50.507812 43.402344 L 50.507812 48.328125 Z M 46.023438 48.960938 C 45.570312 48.960938 45.203125 48.601562 45.203125 48.15625 L 45.203125 43.335938 C 44.90625 43.210938 44.710938 42.917969 44.710938 42.597656 L 44.710938 41.289062 C 44.710938 40.84375 45.078125 40.480469 45.527344 40.480469 L 47.148438 40.480469 C 46.984375 40.242188 46.894531 39.960938 46.894531 39.671875 C 46.894531 38.875 47.550781 38.230469 48.355469 38.230469 C 48.800781 38.230469 49.21875 38.429688 49.496094 38.773438 C 49.773438 38.429688 50.191406 38.230469 50.636719 38.230469 C 51.445312 38.230469 52.097656 38.875 52.097656 39.671875 C 52.097656 39.960938 52.011719 40.242188 51.84375 40.480469 L 53.46875 40.480469 C 53.917969 40.480469 54.285156 40.84375 54.285156 41.289062 L 54.285156 42.597656 C 54.285156 42.917969 54.085938 43.210938 53.789062 43.335938 L 53.789062 48.15625 C 53.789062 48.601562 53.421875 48.960938 52.972656 48.960938 L 46.023438 48.960938 "/></g></svg>