<?xml version="1.0" encoding="UTF-8"?><svg xmlns="http://www.w3.org/2000/svg" xmlns:xlink="http://www.w3.org/1999/xlink" contentScriptType="text/ecmascript" width="90pt" zoomAndPan="magnify" contentStyleType="text/css" viewBox="0 0 90 89.999999" height="89.999999pt" preserveAspectRatio="xMidYMid meet" version="1.2"><defs><filter x="0%" y="0%" width="100%" xmlns:xlink="http://www.w3.org/1999/xlink" xlink:type="simple" filterUnits="objectBoundingBox" xlink:actuate="onLoad" id="alpha" height="100%" xlink:show="other" xml:id="alpha"><feColorMatrix values="0 0 0 0 1 0 0 0 0 1 0 0 0 0 1 0 0 0 1 0" type="matrix" in="SourceGraphic"/></filter><clipPath xml:id="clip2" id="clip2"><path d="M 0.71875 0.71875 L 89.21875 0.71875 L 89.21875 89.21875 L 0.71875 89.21875 Z M 0.71875 0.71875 "/></clipPath><clipPath xml:id="clip1" id="clip1"><rect x="0" width="90" y="0" height="90"/></clipPath><clipPath xml:id="clip3" id="clip3"><path d="M 26.308594 19.527344 L 63.808594 19.527344 L 63.808594 70.527344 L 26.308594 70.527344 Z M 26.308594 19.527344 "/></clipPath></defs><g xml:id="surface1" id="surface1"><g mask="url(#mask0)" transform="matrix(1,0,0,1,0.000000000000000056,-0.000000000000009492)"><g xml:id="surface5" id="surface5" clip-path="url(#clip1)"><g clip-rule="nonzero" clip-path="url(#clip2)"><path style=" stroke:none;fill-rule:nonzero;fill:rgb(85.099792%,85.099792%,83.139038%);fill-opacity:1;" d="M 45.9375 87.285156 C 22.03125 87.285156 2.65625 67.90625 2.65625 44 C 2.65625 20.257812 21.773438 0.984375 45.453125 0.726562 C 45.292969 0.722656 45.128906 0.71875 44.96875 0.71875 C 20.53125 0.71875 0.71875 20.53125 0.71875 44.96875 C 0.71875 69.40625 20.53125 89.21875 44.96875 89.21875 C 69.40625 89.21875 89.21875 69.40625 89.21875 44.96875 C 89.21875 44.808594 89.214844 44.644531 89.214844 44.484375 C 88.953125 68.167969 69.679688 87.285156 45.9375 87.285156 "/></g><path style=" stroke:none;fill-rule:nonzero;fill:rgb(85.099792%,85.099792%,83.139038%);fill-opacity:1;" d="M 44.96875 7.910156 C 24.5 7.910156 7.910156 24.5 7.910156 44.96875 C 7.910156 45.152344 7.914062 45.335938 7.917969 45.523438 C 8.210938 25.921875 24.191406 10.121094 43.863281 10.121094 C 63.71875 10.121094 79.816406 26.21875 79.816406 46.074219 C 79.816406 65.746094 64.015625 81.726562 44.417969 82.019531 C 44.601562 82.023438 44.785156 82.027344 44.96875 82.027344 C 65.4375 82.027344 82.027344 65.4375 82.027344 44.96875 C 82.027344 24.5 65.4375 7.910156 44.96875 7.910156 "/></g><mask xml:id="mask0" id="mask0"><g filter="url(#alpha)"><rect x="0" width="90" y="0" height="89.999999" style="fill:rgb(0%,0%,0%);fill-opacity:0.498;stroke:none;"/></g></mask></g><path style=" stroke:none;fill-rule:nonzero;fill:rgb(12.939453%,14.509583%,16.079712%);fill-opacity:1;" d="M 53.019531 57.738281 L 37.097656 57.738281 C 36.222656 57.738281 35.503906 58.453125 35.503906 59.328125 L 35.503906 64.890625 C 35.503906 65.765625 36.222656 66.480469 37.097656 66.480469 L 53.019531 66.480469 C 53.894531 66.480469 54.613281 65.765625 54.613281 64.890625 L 54.613281 59.328125 C 54.613281 58.453125 53.894531 57.738281 53.019531 57.738281 Z M 37.097656 64.890625 L 37.097656 59.328125 L 53.019531 59.328125 L 53.019531 64.890625 Z M 37.097656 64.890625 "/><path style=" stroke:none;fill-rule:nonzero;fill:rgb(12.939453%,14.509583%,16.079712%);fill-opacity:1;" d="M 46.171875 60.679688 L 44.9375 61.59375 L 44.382812 61.671875 L 44.0625 61.277344 C 43.785156 60.957031 43.265625 60.917969 42.949219 61.195312 C 42.628906 61.472656 42.589844 61.992188 42.867188 62.308594 L 43.824219 63.421875 C 43.984375 63.621094 44.222656 63.699219 44.421875 63.699219 C 44.582031 63.699219 44.738281 63.660156 44.898438 63.539062 L 47.128906 61.949219 C 47.488281 61.710938 47.566406 61.195312 47.328125 60.839844 C 47.050781 60.480469 46.53125 60.402344 46.171875 60.679688 Z M 46.171875 60.679688 "/><path style=" stroke:none;fill-rule:nonzero;fill:rgb(12.939453%,14.509583%,16.079712%);fill-opacity:1;" d="M 55.410156 52.972656 L 54.574219 52.972656 C 54.175781 48.363281 50.472656 44.667969 45.855469 44.269531 L 45.855469 43.597656 C 45.855469 43.160156 45.496094 42.800781 45.058594 42.800781 C 44.621094 42.800781 44.261719 43.160156 44.261719 43.597656 L 44.261719 44.269531 C 39.644531 44.667969 35.941406 48.363281 35.542969 52.972656 L 34.707031 52.972656 C 34.269531 52.972656 33.910156 53.328125 33.910156 53.765625 C 33.910156 54.203125 34.269531 54.5625 34.707031 54.5625 L 55.410156 54.5625 C 55.847656 54.5625 56.203125 54.203125 56.203125 53.765625 C 56.203125 53.328125 55.847656 52.972656 55.410156 52.972656 Z M 37.136719 52.972656 C 37.535156 48.960938 40.917969 45.820312 45.058594 45.820312 C 49.199219 45.820312 52.582031 48.960938 52.980469 52.972656 Z M 37.136719 52.972656 "/><g clip-rule="nonzero" clip-path="url(#clip3)"><path style=" stroke:none;fill-rule:nonzero;fill:rgb(12.939453%,14.509583%,16.079712%);fill-opacity:1;" d="M 56.601562 19.597656 L 33.515625 19.597656 C 31.761719 19.597656 30.328125 21.027344 30.328125 22.777344 L 30.328125 30.605469 L 26.585938 34.539062 C 26.347656 34.777344 26.308594 35.09375 26.429688 35.410156 C 26.507812 35.570312 26.628906 35.691406 26.746094 35.769531 L 26.746094 38.273438 C 26.746094 39.582031 27.820312 40.65625 29.136719 40.65625 C 29.574219 40.65625 29.972656 40.535156 30.328125 40.339844 L 30.328125 67.273438 C 30.328125 69.023438 31.761719 70.453125 33.515625 70.453125 L 56.601562 70.453125 C 58.355469 70.453125 59.789062 69.023438 59.789062 67.273438 L 59.789062 40.339844 C 60.144531 40.535156 60.542969 40.65625 60.980469 40.65625 C 62.296875 40.65625 63.371094 39.582031 63.371094 38.273438 L 63.371094 35.769531 C 63.53125 35.691406 63.648438 35.570312 63.6875 35.410156 C 63.808594 35.132812 63.769531 34.777344 63.53125 34.539062 L 59.789062 30.605469 L 59.789062 22.777344 C 59.789062 21.027344 58.355469 19.597656 56.601562 19.597656 Z M 49.597656 21.1875 L 49.199219 22.777344 L 40.917969 22.777344 L 40.519531 21.1875 Z M 29.929688 38.273438 C 29.929688 38.710938 29.574219 39.066406 29.136719 39.066406 C 28.695312 39.066406 28.339844 38.710938 28.339844 38.273438 L 28.339844 35.886719 L 29.929688 35.886719 Z M 31.523438 38.273438 L 31.523438 35.886719 L 33.117188 35.886719 L 33.117188 38.273438 C 33.117188 38.710938 32.757812 39.066406 32.320312 39.066406 C 31.882812 39.066406 31.523438 38.710938 31.523438 38.273438 Z M 58.195312 67.273438 C 58.195312 68.148438 57.480469 68.863281 56.601562 68.863281 L 33.515625 68.863281 C 32.636719 68.863281 31.921875 68.148438 31.921875 67.273438 L 31.921875 40.617188 C 32.039062 40.65625 32.199219 40.65625 32.320312 40.65625 C 32.917969 40.65625 33.472656 40.417969 33.910156 40.058594 C 34.351562 40.457031 34.90625 40.65625 35.503906 40.65625 C 36.101562 40.65625 36.660156 40.417969 37.097656 40.058594 C 37.535156 40.457031 38.09375 40.65625 38.6875 40.65625 C 39.285156 40.65625 39.84375 40.417969 40.28125 40.058594 C 40.71875 40.457031 41.277344 40.65625 41.875 40.65625 C 42.472656 40.65625 43.027344 40.417969 43.464844 40.058594 C 43.902344 40.457031 44.460938 40.65625 45.058594 40.65625 C 45.65625 40.65625 46.214844 40.417969 46.652344 40.058594 C 47.089844 40.457031 47.644531 40.65625 48.242188 40.65625 C 48.839844 40.65625 49.398438 40.417969 49.835938 40.058594 C 50.273438 40.457031 50.832031 40.65625 51.429688 40.65625 C 52.023438 40.65625 52.582031 40.417969 53.019531 40.058594 C 53.457031 40.457031 54.015625 40.65625 54.613281 40.65625 C 55.210938 40.65625 55.765625 40.417969 56.203125 40.058594 C 56.644531 40.457031 57.199219 40.65625 57.796875 40.65625 C 57.917969 40.65625 58.074219 40.65625 58.195312 40.617188 Z M 34.707031 38.273438 L 34.707031 35.886719 L 36.300781 35.886719 L 36.300781 38.273438 C 36.300781 38.710938 35.941406 39.066406 35.503906 39.066406 C 35.066406 39.066406 34.707031 38.710938 34.707031 38.273438 Z M 37.894531 38.273438 L 37.894531 35.886719 L 39.484375 35.886719 L 39.484375 38.273438 C 39.484375 38.710938 39.128906 39.066406 38.6875 39.066406 C 38.25 39.066406 37.894531 38.710938 37.894531 38.273438 Z M 41.078125 38.273438 L 41.078125 35.886719 L 42.671875 35.886719 L 42.671875 38.273438 C 42.671875 38.710938 42.3125 39.066406 41.875 39.066406 C 41.4375 39.066406 41.078125 38.710938 41.078125 38.273438 Z M 44.261719 38.273438 L 44.261719 35.886719 L 45.855469 35.886719 L 45.855469 38.273438 C 45.855469 38.710938 45.496094 39.066406 45.058594 39.066406 C 44.621094 39.066406 44.261719 38.710938 44.261719 38.273438 Z M 47.445312 38.273438 L 47.445312 35.886719 L 49.039062 35.886719 L 49.039062 38.273438 C 49.039062 38.710938 48.679688 39.066406 48.242188 39.066406 C 47.804688 39.066406 47.445312 38.710938 47.445312 38.273438 Z M 50.632812 38.273438 L 50.632812 35.886719 L 52.222656 35.886719 L 52.222656 38.273438 C 52.222656 38.710938 51.867188 39.066406 51.429688 39.066406 C 50.988281 39.066406 50.632812 38.710938 50.632812 38.273438 Z M 53.816406 38.273438 L 53.816406 35.886719 L 55.410156 35.886719 L 55.410156 38.273438 C 55.410156 38.710938 55.050781 39.066406 54.613281 39.066406 C 54.175781 39.066406 53.816406 38.710938 53.816406 38.273438 Z M 58.59375 38.273438 C 58.59375 38.710938 58.234375 39.066406 57.796875 39.066406 C 57.359375 39.066406 57 38.710938 57 38.273438 L 57 35.886719 L 58.59375 35.886719 Z M 61.777344 38.273438 C 61.777344 38.710938 61.421875 39.066406 60.980469 39.066406 C 60.542969 39.066406 60.1875 38.710938 60.1875 38.273438 L 60.1875 35.886719 L 61.777344 35.886719 Z M 61.101562 34.300781 L 29.015625 34.300781 L 35.34375 27.703125 C 35.664062 27.386719 35.625 26.871094 35.304688 26.589844 C 34.988281 26.273438 34.46875 26.3125 34.191406 26.632812 L 31.921875 28.933594 L 31.921875 22.777344 C 31.921875 21.902344 32.636719 21.1875 33.515625 21.1875 L 38.847656 21.1875 L 39.324219 23.175781 C 39.484375 23.890625 40.121094 24.367188 40.878906 24.367188 L 49.199219 24.367188 C 49.914062 24.367188 50.550781 23.890625 50.75 23.175781 L 51.230469 21.1875 L 56.601562 21.1875 C 57.480469 21.1875 58.195312 21.902344 58.195312 22.777344 L 58.195312 28.933594 L 55.964844 26.589844 C 55.648438 26.273438 55.171875 26.273438 54.851562 26.550781 C 54.53125 26.871094 54.53125 27.347656 54.8125 27.664062 Z M 61.101562 34.300781 "/></g></g></svg>