<?xml version="1.0" encoding="UTF-8"?><svg xmlns="http://www.w3.org/2000/svg" xmlns:xlink="http://www.w3.org/1999/xlink" contentScriptType="text/ecmascript" width="90pt" zoomAndPan="magnify" contentStyleType="text/css" viewBox="0 0 90 89.999999" height="89.999999pt" preserveAspectRatio="xMidYMid meet" version="1.2"><defs><filter x="0%" y="0%" width="100%" xmlns:xlink="http://www.w3.org/1999/xlink" xlink:type="simple" filterUnits="objectBoundingBox" xlink:actuate="onLoad" id="alpha" height="100%" xlink:show="other" xml:id="alpha"><feColorMatrix values="0 0 0 0 1 0 0 0 0 1 0 0 0 0 1 0 0 0 1 0" type="matrix" in="SourceGraphic"/></filter><clipPath xml:id="clip2" id="clip2"><path d="M 0.71875 0.71875 L 89.21875 0.71875 L 89.21875 89.21875 L 0.71875 89.21875 Z M 0.71875 0.71875 "/></clipPath><clipPath xml:id="clip1" id="clip1"><rect x="0" width="90" y="0" height="90"/></clipPath><clipPath xml:id="clip3" id="clip3"><path d="M 24.207031 20 L 65.132812 20 L 65.132812 70.238281 L 24.207031 70.238281 Z M 24.207031 20 "/></clipPath><clipPath xml:id="clip4" id="clip4"><path d="M 47.703125 36.453125 L 51.492188 36.453125 L 51.492188 37.996094 L 47.703125 37.996094 Z M 47.703125 36.453125 "/></clipPath><clipPath xml:id="clip5" id="clip5"><path d="M 46 28 L 54 28 L 54 37.996094 L 46 37.996094 Z M 46 28 "/></clipPath><clipPath xml:id="clip6" id="clip6"><path d="M 45.003906 25.246094 L 53.996094 25.246094 L 53.996094 31.421875 L 45.003906 31.421875 Z M 45.003906 25.246094 "/></clipPath></defs><g xml:id="surface1" id="surface1"><g mask="url(#mask0)" transform="matrix(1,0,0,1,0.000000000000000056,-0.000000000000009492)"><g xml:id="surface5" id="surface5" clip-path="url(#clip1)"><g clip-rule="nonzero" clip-path="url(#clip2)"><path style=" stroke:none;fill-rule:nonzero;fill:rgb(85.099792%,85.099792%,83.139038%);fill-opacity:1;" d="M 45.9375 87.285156 C 22.03125 87.285156 2.65625 67.90625 2.65625 44 C 2.65625 20.257812 21.773438 0.984375 45.453125 0.726562 C 45.292969 0.722656 45.128906 0.71875 44.96875 0.71875 C 20.53125 0.71875 0.71875 20.53125 0.71875 44.96875 C 0.71875 69.40625 20.53125 89.21875 44.96875 89.21875 C 69.40625 89.21875 89.21875 69.40625 89.21875 44.96875 C 89.21875 44.808594 89.214844 44.644531 89.214844 44.484375 C 88.953125 68.167969 69.679688 87.285156 45.9375 87.285156 "/></g><path style=" stroke:none;fill-rule:nonzero;fill:rgb(85.099792%,85.099792%,83.139038%);fill-opacity:1;" d="M 44.96875 7.910156 C 24.5 7.910156 7.910156 24.5 7.910156 44.96875 C 7.910156 45.152344 7.914062 45.335938 7.917969 45.523438 C 8.210938 25.921875 24.191406 10.121094 43.863281 10.121094 C 63.71875 10.121094 79.816406 26.21875 79.816406 46.074219 C 79.816406 65.746094 64.015625 81.726562 44.417969 82.019531 C 44.601562 82.023438 44.785156 82.027344 44.96875 82.027344 C 65.4375 82.027344 82.027344 65.4375 82.027344 44.96875 C 82.027344 24.5 65.4375 7.910156 44.96875 7.910156 "/></g><mask xml:id="mask0" id="mask0"><g filter="url(#alpha)"><rect x="0" width="90" y="0" height="89.999999" style="fill:rgb(0%,0%,0%);fill-opacity:0.498;stroke:none;"/></g></mask></g><g clip-rule="nonzero" clip-path="url(#clip3)"><path style=" stroke:none;fill-rule:nonzero;fill:rgb(6.269836%,5.879211%,5.099487%);fill-opacity:1;" d="M 30.316406 63.652344 C 30.59375 63.160156 30.757812 62.585938 30.757812 61.976562 L 30.757812 23.363281 C 30.757812 22.4375 31.492188 21.683594 32.394531 21.683594 C 33.296875 21.683594 34.03125 22.4375 34.03125 23.363281 L 34.03125 63.652344 Z M 25.84375 61.976562 L 25.84375 26.722656 L 29.117188 26.722656 L 29.117188 61.976562 C 29.117188 62.902344 28.382812 63.652344 27.480469 63.652344 C 26.578125 63.652344 25.84375 62.902344 25.84375 61.976562 Z M 63.496094 22.523438 L 63.496094 67.503906 L 62.4375 66.417969 C 62.117188 66.089844 61.597656 66.089844 61.28125 66.417969 L 59.402344 68.34375 L 57.527344 66.417969 C 57.207031 66.089844 56.6875 66.089844 56.367188 66.417969 L 54.492188 68.34375 L 52.617188 66.417969 C 52.296875 66.089844 51.777344 66.089844 51.457031 66.417969 L 49.582031 68.34375 L 47.703125 66.417969 C 47.382812 66.089844 46.867188 66.089844 46.546875 66.417969 L 44.671875 68.34375 L 42.792969 66.417969 C 42.472656 66.089844 41.957031 66.089844 41.636719 66.417969 L 39.757812 68.34375 L 37.882812 66.417969 C 37.5625 66.089844 37.042969 66.089844 36.726562 66.417969 L 35.667969 67.503906 L 35.667969 23.363281 C 35.667969 22.753906 35.503906 22.179688 35.226562 21.683594 L 62.675781 21.683594 C 63.128906 21.683594 63.496094 22.0625 63.496094 22.523438 Z M 34.535156 70.304688 C 34.839844 70.433594 35.191406 70.363281 35.425781 70.125 L 37.304688 68.199219 L 39.179688 70.125 C 39.5 70.449219 40.019531 70.449219 40.339844 70.125 L 42.214844 68.199219 L 44.089844 70.125 C 44.410156 70.449219 44.929688 70.449219 45.25 70.125 L 47.125 68.199219 L 49.003906 70.125 C 49.320312 70.449219 49.839844 70.449219 50.160156 70.125 L 52.035156 68.199219 L 53.914062 70.125 C 54.234375 70.449219 54.75 70.449219 55.070312 70.125 L 56.949219 68.199219 L 58.824219 70.125 C 59.144531 70.449219 59.660156 70.449219 59.980469 70.125 L 61.859375 68.199219 L 63.734375 70.125 C 63.890625 70.285156 64.101562 70.367188 64.3125 70.367188 C 64.417969 70.367188 64.527344 70.347656 64.628906 70.304688 C 64.933594 70.175781 65.132812 69.867188 65.132812 69.53125 L 65.132812 22.523438 C 65.132812 21.136719 64.03125 20.007812 62.675781 20.007812 L 32.394531 20.007812 C 30.585938 20.007812 29.117188 21.511719 29.117188 23.363281 L 29.117188 25.042969 L 25.027344 25.042969 C 24.574219 25.042969 24.207031 25.417969 24.207031 25.882812 L 24.207031 61.976562 C 24.207031 63.828125 25.675781 65.332031 27.480469 65.332031 L 34.03125 65.332031 L 34.03125 69.53125 C 34.03125 69.867188 34.230469 70.175781 34.535156 70.304688 "/></g><path style=" stroke:none;fill-rule:nonzero;fill:rgb(6.269836%,5.879211%,5.099487%);fill-opacity:1;" d="M 49.582031 34.277344 C 49.128906 34.277344 48.761719 33.898438 48.761719 33.4375 C 48.761719 32.972656 48.394531 32.597656 47.945312 32.597656 C 47.492188 32.597656 47.125 32.972656 47.125 33.4375 C 47.125 34.53125 47.808594 35.464844 48.761719 35.808594 L 48.761719 35.953125 C 48.761719 36.417969 49.128906 36.792969 49.582031 36.792969 C 50.03125 36.792969 50.398438 36.417969 50.398438 35.953125 L 50.398438 35.808594 C 51.351562 35.464844 52.035156 34.53125 52.035156 33.4375 C 52.035156 32.046875 50.933594 30.917969 49.582031 30.917969 C 49.128906 30.917969 48.761719 30.542969 48.761719 30.078125 C 48.761719 29.617188 49.128906 29.238281 49.582031 29.238281 C 50.03125 29.238281 50.398438 29.617188 50.398438 30.078125 C 50.398438 30.542969 50.765625 30.917969 51.21875 30.917969 C 51.671875 30.917969 52.035156 30.542969 52.035156 30.078125 C 52.035156 28.984375 51.351562 28.050781 50.398438 27.707031 L 50.398438 27.5625 C 50.398438 27.097656 50.03125 26.722656 49.582031 26.722656 C 49.128906 26.722656 48.761719 27.097656 48.761719 27.5625 L 48.761719 27.707031 C 47.808594 28.050781 47.125 28.984375 47.125 30.078125 C 47.125 31.46875 48.226562 32.597656 49.582031 32.597656 C 50.03125 32.597656 50.398438 32.972656 50.398438 33.4375 C 50.398438 33.898438 50.03125 34.277344 49.582031 34.277344 "/><path style=" stroke:none;fill-rule:nonzero;fill:rgb(6.269836%,5.879211%,5.099487%);fill-opacity:1;" d="M 49.582031 25.042969 C 53.191406 25.042969 56.128906 28.054688 56.128906 31.757812 C 56.128906 35.460938 53.191406 38.472656 49.582031 38.472656 C 45.96875 38.472656 43.035156 35.460938 43.035156 31.757812 C 43.035156 28.054688 45.96875 25.042969 49.582031 25.042969 Z M 49.582031 40.152344 C 54.09375 40.152344 57.765625 36.386719 57.765625 31.757812 C 57.765625 27.128906 54.09375 23.363281 49.582031 23.363281 C 45.066406 23.363281 41.394531 27.128906 41.394531 31.757812 C 41.394531 36.386719 45.066406 40.152344 49.582031 40.152344 "/><path style=" stroke:none;fill-rule:nonzero;fill:rgb(6.269836%,5.879211%,5.099487%);fill-opacity:1;" d="M 51.21875 41.832031 L 47.945312 41.832031 C 47.492188 41.832031 47.125 42.207031 47.125 42.667969 C 47.125 43.132812 47.492188 43.507812 47.945312 43.507812 L 51.21875 43.507812 C 51.671875 43.507812 52.035156 43.132812 52.035156 42.667969 C 52.035156 42.207031 51.671875 41.832031 51.21875 41.832031 "/><path style=" stroke:none;fill-rule:nonzero;fill:rgb(6.269836%,5.879211%,5.099487%);fill-opacity:1;" d="M 38.941406 46.867188 L 50.398438 46.867188 C 50.851562 46.867188 51.21875 46.492188 51.21875 46.027344 C 51.21875 45.5625 50.851562 45.1875 50.398438 45.1875 L 38.941406 45.1875 C 38.488281 45.1875 38.121094 45.5625 38.121094 46.027344 C 38.121094 46.492188 38.488281 46.867188 38.941406 46.867188 "/><path style=" stroke:none;fill-rule:nonzero;fill:rgb(6.269836%,5.879211%,5.099487%);fill-opacity:1;" d="M 53.671875 46.867188 L 55.3125 46.867188 C 55.761719 46.867188 56.128906 46.492188 56.128906 46.027344 C 56.128906 45.5625 55.761719 45.1875 55.3125 45.1875 L 53.671875 45.1875 C 53.222656 45.1875 52.855469 45.5625 52.855469 46.027344 C 52.855469 46.492188 53.222656 46.867188 53.671875 46.867188 "/><path style=" stroke:none;fill-rule:nonzero;fill:rgb(6.269836%,5.879211%,5.099487%);fill-opacity:1;" d="M 58.585938 46.867188 L 60.222656 46.867188 C 60.671875 46.867188 61.039062 46.492188 61.039062 46.027344 C 61.039062 45.5625 60.671875 45.1875 60.222656 45.1875 L 58.585938 45.1875 C 58.132812 45.1875 57.765625 45.5625 57.765625 46.027344 C 57.765625 46.492188 58.132812 46.867188 58.585938 46.867188 "/><path style=" stroke:none;fill-rule:nonzero;fill:rgb(6.269836%,5.879211%,5.099487%);fill-opacity:1;" d="M 38.941406 50.222656 L 50.398438 50.222656 C 50.851562 50.222656 51.21875 49.847656 51.21875 49.382812 C 51.21875 48.921875 50.851562 48.546875 50.398438 48.546875 L 38.941406 48.546875 C 38.488281 48.546875 38.121094 48.921875 38.121094 49.382812 C 38.121094 49.847656 38.488281 50.222656 38.941406 50.222656 "/><path style=" stroke:none;fill-rule:nonzero;fill:rgb(6.269836%,5.879211%,5.099487%);fill-opacity:1;" d="M 53.671875 50.222656 L 55.3125 50.222656 C 55.761719 50.222656 56.128906 49.847656 56.128906 49.382812 C 56.128906 48.921875 55.761719 48.546875 55.3125 48.546875 L 53.671875 48.546875 C 53.222656 48.546875 52.855469 48.921875 52.855469 49.382812 C 52.855469 49.847656 53.222656 50.222656 53.671875 50.222656 "/><path style=" stroke:none;fill-rule:nonzero;fill:rgb(6.269836%,5.879211%,5.099487%);fill-opacity:1;" d="M 60.222656 48.546875 L 58.585938 48.546875 C 58.132812 48.546875 57.765625 48.921875 57.765625 49.382812 C 57.765625 49.847656 58.132812 50.222656 58.585938 50.222656 L 60.222656 50.222656 C 60.671875 50.222656 61.039062 49.847656 61.039062 49.382812 C 61.039062 48.921875 60.671875 48.546875 60.222656 48.546875 "/><path style=" stroke:none;fill-rule:nonzero;fill:rgb(6.269836%,5.879211%,5.099487%);fill-opacity:1;" d="M 38.941406 53.582031 L 50.398438 53.582031 C 50.851562 53.582031 51.21875 53.207031 51.21875 52.742188 C 51.21875 52.277344 50.851562 51.902344 50.398438 51.902344 L 38.941406 51.902344 C 38.488281 51.902344 38.121094 52.277344 38.121094 52.742188 C 38.121094 53.207031 38.488281 53.582031 38.941406 53.582031 "/><path style=" stroke:none;fill-rule:nonzero;fill:rgb(6.269836%,5.879211%,5.099487%);fill-opacity:1;" d="M 53.671875 53.582031 L 55.3125 53.582031 C 55.761719 53.582031 56.128906 53.207031 56.128906 52.742188 C 56.128906 52.277344 55.761719 51.902344 55.3125 51.902344 L 53.671875 51.902344 C 53.222656 51.902344 52.855469 52.277344 52.855469 52.742188 C 52.855469 53.207031 53.222656 53.582031 53.671875 53.582031 "/><path style=" stroke:none;fill-rule:nonzero;fill:rgb(6.269836%,5.879211%,5.099487%);fill-opacity:1;" d="M 60.222656 51.902344 L 58.585938 51.902344 C 58.132812 51.902344 57.765625 52.277344 57.765625 52.742188 C 57.765625 53.207031 58.132812 53.582031 58.585938 53.582031 L 60.222656 53.582031 C 60.671875 53.582031 61.039062 53.207031 61.039062 52.742188 C 61.039062 52.277344 60.671875 51.902344 60.222656 51.902344 "/><path style=" stroke:none;fill-rule:nonzero;fill:rgb(6.269836%,5.879211%,5.099487%);fill-opacity:1;" d="M 38.941406 56.9375 L 50.398438 56.9375 C 50.851562 56.9375 51.21875 56.5625 51.21875 56.101562 C 51.21875 55.636719 50.851562 55.261719 50.398438 55.261719 L 38.941406 55.261719 C 38.488281 55.261719 38.121094 55.636719 38.121094 56.101562 C 38.121094 56.5625 38.488281 56.9375 38.941406 56.9375 "/><path style=" stroke:none;fill-rule:nonzero;fill:rgb(6.269836%,5.879211%,5.099487%);fill-opacity:1;" d="M 53.671875 56.9375 L 55.3125 56.9375 C 55.761719 56.9375 56.128906 56.5625 56.128906 56.101562 C 56.128906 55.636719 55.761719 55.261719 55.3125 55.261719 L 53.671875 55.261719 C 53.222656 55.261719 52.855469 55.636719 52.855469 56.101562 C 52.855469 56.5625 53.222656 56.9375 53.671875 56.9375 "/><path style=" stroke:none;fill-rule:nonzero;fill:rgb(6.269836%,5.879211%,5.099487%);fill-opacity:1;" d="M 60.222656 55.261719 L 58.585938 55.261719 C 58.132812 55.261719 57.765625 55.636719 57.765625 56.101562 C 57.765625 56.5625 58.132812 56.9375 58.585938 56.9375 L 60.222656 56.9375 C 60.671875 56.9375 61.039062 56.5625 61.039062 56.101562 C 61.039062 55.636719 60.671875 55.261719 60.222656 55.261719 "/><path style=" stroke:none;fill-rule:nonzero;fill:rgb(6.269836%,5.879211%,5.099487%);fill-opacity:1;" d="M 38.941406 60.296875 L 50.398438 60.296875 C 50.851562 60.296875 51.21875 59.921875 51.21875 59.457031 C 51.21875 58.992188 50.851562 58.617188 50.398438 58.617188 L 38.941406 58.617188 C 38.488281 58.617188 38.121094 58.992188 38.121094 59.457031 C 38.121094 59.921875 38.488281 60.296875 38.941406 60.296875 "/><path style=" stroke:none;fill-rule:nonzero;fill:rgb(6.269836%,5.879211%,5.099487%);fill-opacity:1;" d="M 53.671875 60.296875 L 55.3125 60.296875 C 55.761719 60.296875 56.128906 59.921875 56.128906 59.457031 C 56.128906 58.992188 55.761719 58.617188 55.3125 58.617188 L 53.671875 58.617188 C 53.222656 58.617188 52.855469 58.992188 52.855469 59.457031 C 52.855469 59.921875 53.222656 60.296875 53.671875 60.296875 "/><path style=" stroke:none;fill-rule:nonzero;fill:rgb(6.269836%,5.879211%,5.099487%);fill-opacity:1;" d="M 60.222656 58.617188 L 58.585938 58.617188 C 58.132812 58.617188 57.765625 58.992188 57.765625 59.457031 C 57.765625 59.921875 58.132812 60.296875 58.585938 60.296875 L 60.222656 60.296875 C 60.671875 60.296875 61.039062 59.921875 61.039062 59.457031 C 61.039062 58.992188 60.671875 58.617188 60.222656 58.617188 "/><path style=" stroke:none;fill-rule:nonzero;fill:rgb(6.269836%,5.879211%,5.099487%);fill-opacity:1;" d="M 60.222656 61.976562 L 53.671875 61.976562 C 53.222656 61.976562 52.855469 62.351562 52.855469 62.816406 C 52.855469 63.277344 53.222656 63.652344 53.671875 63.652344 L 60.222656 63.652344 C 60.671875 63.652344 61.039062 63.277344 61.039062 62.816406 C 61.039062 62.351562 60.671875 61.976562 60.222656 61.976562 "/><g clip-rule="nonzero" clip-path="url(#clip4)"><path style=" stroke:none;fill-rule:nonzero;fill:rgb(100%,100%,100%);fill-opacity:1;" d="M 50.875 36.890625 C 50.46875 37.175781 50.113281 37.558594 49.589844 37.558594 C 49.066406 37.558594 48.710938 37.175781 48.304688 36.890625 C 48.109375 36.75 47.910156 36.613281 47.714844 36.46875 L 47.714844 37.996094 L 51.476562 37.996094 L 51.476562 36.457031 C 51.277344 36.605469 51.074219 36.746094 50.875 36.890625 "/></g><g clip-rule="nonzero" clip-path="url(#clip5)"><path style=" stroke:none;fill-rule:nonzero;fill:rgb(85.099792%,85.099792%,83.139038%);fill-opacity:1;" d="M 53.148438 30.082031 C 53.148438 29.902344 53.113281 29.726562 53.050781 29.570312 C 52.808594 28.972656 52.140625 28.730469 51.5625 28.949219 C 51.25 29.070312 50.660156 29.203125 49.59375 29.203125 C 48.53125 29.203125 47.941406 29.070312 47.628906 28.949219 C 47.050781 28.730469 46.378906 28.972656 46.140625 29.570312 C 46.078125 29.726562 46.042969 29.902344 46.042969 30.082031 L 46.035156 32.085938 C 46.035156 33.464844 46.140625 34.984375 47.128906 35.972656 C 47.484375 36.328125 47.902344 36.601562 48.304688 36.890625 C 48.710938 37.175781 49.066406 37.558594 49.589844 37.558594 C 50.113281 37.558594 50.46875 37.175781 50.875 36.890625 C 51.277344 36.601562 51.695312 36.328125 52.050781 35.972656 C 53.039062 34.984375 53.148438 33.441406 53.148438 32.0625 L 53.148438 30.082031 "/></g><g clip-rule="nonzero" clip-path="url(#clip6)"><path style=" stroke:none;fill-rule:nonzero;fill:rgb(12.159729%,12.939453%,16.859436%);fill-opacity:1;" d="M 52.519531 26.125 C 51.527344 25.136719 50.429688 26.125 50.429688 26.125 C 49.953125 26.125 50.011719 25.246094 50.011719 25.246094 C 50.011719 25.246094 48.648438 25.144531 46.878906 27.003906 L 46.644531 27.25 C 46.496094 27.40625 46.285156 27.484375 46.082031 27.441406 C 45.871094 27.394531 45.710938 27.238281 46.042969 26.785156 C 46.042969 26.785156 43.710938 29.273438 46.039062 31.398438 L 46.042969 30.082031 C 46.042969 29.902344 46.078125 29.726562 46.140625 29.570312 C 46.378906 28.972656 47.050781 28.730469 47.628906 28.949219 C 47.941406 29.070312 48.53125 29.203125 49.59375 29.203125 C 50.660156 29.203125 51.25 29.070312 51.5625 28.949219 C 52.140625 28.730469 52.808594 28.972656 53.050781 29.570312 C 53.113281 29.726562 53.148438 29.902344 53.148438 30.082031 L 53.148438 31.402344 C 55.367188 28.332031 52.519531 26.125 52.519531 26.125 "/></g></g></svg>