<?xml version="1.0" encoding="UTF-8"?><svg xmlns="http://www.w3.org/2000/svg" xmlns:xlink="http://www.w3.org/1999/xlink" contentScriptType="text/ecmascript" width="90pt" zoomAndPan="magnify" contentStyleType="text/css" viewBox="0 0 90 89.999999" height="89.999999pt" preserveAspectRatio="xMidYMid meet" version="1.2"><defs><filter x="0%" y="0%" width="100%" xmlns:xlink="http://www.w3.org/1999/xlink" xlink:type="simple" filterUnits="objectBoundingBox" xlink:actuate="onLoad" id="alpha" height="100%" xlink:show="other" xml:id="alpha"><feColorMatrix values="0 0 0 0 1 0 0 0 0 1 0 0 0 0 1 0 0 0 1 0" type="matrix" in="SourceGraphic"/></filter><clipPath xml:id="clip2" id="clip2"><path d="M 0.71875 0.71875 L 89.21875 0.71875 L 89.21875 89.21875 L 0.71875 89.21875 Z M 0.71875 0.71875 "/></clipPath><clipPath xml:id="clip1" id="clip1"><rect x="0" width="90" y="0" height="90"/></clipPath><clipPath xml:id="clip3" id="clip3"><path d="M 60 68 L 70 68 L 70 77.277344 L 60 77.277344 Z M 60 68 "/></clipPath></defs><g xml:id="surface1" id="surface1"><g mask="url(#mask0)" transform="matrix(1,0,0,1,0.000000000000000056,-0.000000000000009492)"><g xml:id="surface5" id="surface5" clip-path="url(#clip1)"><g clip-rule="nonzero" clip-path="url(#clip2)"><path style=" stroke:none;fill-rule:nonzero;fill:rgb(85.099792%,85.099792%,83.139038%);fill-opacity:1;" d="M 45.9375 87.285156 C 22.03125 87.285156 2.65625 67.90625 2.65625 44 C 2.65625 20.257812 21.773438 0.984375 45.453125 0.726562 C 45.292969 0.722656 45.128906 0.71875 44.96875 0.71875 C 20.53125 0.71875 0.71875 20.53125 0.71875 44.96875 C 0.71875 69.40625 20.53125 89.21875 44.96875 89.21875 C 69.40625 89.21875 89.21875 69.40625 89.21875 44.96875 C 89.21875 44.808594 89.214844 44.644531 89.214844 44.484375 C 88.953125 68.167969 69.679688 87.285156 45.9375 87.285156 "/></g><path style=" stroke:none;fill-rule:nonzero;fill:rgb(85.099792%,85.099792%,83.139038%);fill-opacity:1;" d="M 44.96875 7.910156 C 24.5 7.910156 7.910156 24.5 7.910156 44.96875 C 7.910156 45.152344 7.914062 45.335938 7.917969 45.523438 C 8.210938 25.921875 24.191406 10.121094 43.863281 10.121094 C 63.71875 10.121094 79.816406 26.21875 79.816406 46.074219 C 79.816406 65.746094 64.015625 81.726562 44.417969 82.019531 C 44.601562 82.023438 44.785156 82.027344 44.96875 82.027344 C 65.4375 82.027344 82.027344 65.4375 82.027344 44.96875 C 82.027344 24.5 65.4375 7.910156 44.96875 7.910156 "/></g><mask xml:id="mask0" id="mask0"><g filter="url(#alpha)"><rect x="0" width="90" y="0" height="89.999999" style="fill:rgb(0%,0%,0%);fill-opacity:0.498;stroke:none;"/></g></mask></g><path style=" stroke:none;fill-rule:nonzero;fill:rgb(100%,100%,100%);fill-opacity:1;" d="M 57.429688 27.097656 C 58.117188 27.738281 60.25 25.476562 59.660156 23.332031 C 59.289062 21.992188 60.464844 20.925781 60.191406 18.695312 C 59.511719 13.203125 64.492188 12.773438 64.492188 19.066406 C 64.492188 24.671875 67.785156 18.617188 67.050781 25.980469 C 66.855469 27.945312 70.617188 31.183594 73.539062 35.542969 C 75.710938 38.78125 78.253906 45.808594 77.042969 49.792969 C 76.640625 51.121094 75.324219 52.902344 74.308594 54.660156 C 73.265625 56.460938 72.511719 58.230469 71.007812 59.066406 C 68.523438 60.449219 71.625 64.054688 67.175781 63.863281 C 65.945312 63.8125 64.855469 66.675781 61.800781 64.375 C 60.101562 63.09375 59.773438 66.351562 56.632812 63.542969 C 52.742188 60.058594 55.054688 59.6875 51.382812 59.136719 C 47.082031 58.496094 49.601562 56.269531 46.03125 53.933594 C 37.710938 48.492188 40.6875 53.230469 33.941406 53.8125 C 30.4375 54.117188 33.804688 59.046875 27.46875 56.445312 C 25.441406 55.613281 25.847656 59.070312 22.054688 58.941406 C 20.566406 58.890625 18.929688 58.566406 18.664062 56.785156 C 18.484375 55.59375 19.214844 54.355469 18.734375 52.753906 C 18.234375 51.082031 16.511719 49.027344 15.777344 47.015625 C 12.84375 38.972656 11.832031 35.628906 21.007812 33.824219 C 22.191406 33.589844 29.425781 29.59375 26.898438 27.292969 C 25.851562 26.339844 26.71875 23.886719 28.785156 24.933594 C 30.609375 25.863281 31.277344 20.882812 34.097656 20.773438 C 36.914062 20.660156 35.625 23.933594 39.472656 22.242188 C 40.230469 19.3125 37.613281 20.332031 41.46875 17.597656 C 42.375 16.953125 42.914062 15.84375 44.816406 15.949219 C 46.121094 16.019531 54.042969 17.328125 52.023438 19.550781 C 51.375 20.265625 50.367188 21.632812 50.765625 23.074219 C 50.980469 23.835938 53.511719 24.164062 54.667969 24.804688 C 54.816406 24.886719 57.351562 27.027344 57.429688 27.097656 Z M 57.429688 27.097656 "/><path style=" stroke:none;fill-rule:nonzero;fill:rgb(100%,100%,100%);fill-opacity:1;" d="M 61.71875 71.671875 C 62.292969 73.449219 62.085938 74.511719 63.8125 75.75 C 64.765625 76.433594 66.535156 75.527344 67.019531 74.40625 C 67.664062 72.917969 68.199219 72.351562 67.90625 70.664062 C 67.683594 69.371094 66.558594 70.371094 64.933594 70.253906 C 63.097656 70.121094 61.027344 69.542969 61.71875 71.671875 Z M 61.71875 71.671875 "/><path style=" stroke:none;fill-rule:nonzero;fill:rgb(85.099792%,85.099792%,83.139038%);fill-opacity:1;" d="M 33.472656 33.40625 C 35.140625 33.40625 40.574219 27.367188 40.574219 22.71875 C 40.574219 21.414062 40.210938 20.183594 39.582031 19.125 C 38.347656 17.035156 36.074219 15.609375 33.496094 15.589844 L 33.449219 15.589844 C 29.5625 15.617188 26.371094 18.84375 26.371094 22.71875 C 26.371094 23.511719 26.527344 24.34375 26.800781 25.179688 C 28.113281 29.25 32.089844 33.40625 33.472656 33.40625 Z M 33.472656 33.40625 "/><path style=" stroke:none;fill-rule:nonzero;fill:rgb(85.099792%,85.099792%,83.139038%);fill-opacity:1;" d="M 59.582031 35.6875 C 55.695312 35.710938 52.503906 38.9375 52.503906 42.816406 C 52.503906 47.460938 57.933594 53.503906 59.605469 53.503906 C 61.273438 53.503906 66.707031 47.460938 66.707031 42.816406 C 66.707031 38.9375 63.515625 35.710938 59.628906 35.6875 Z M 59.582031 35.6875 "/><path style=" stroke:none;fill-rule:nonzero;fill:rgb(0%,0%,0%);fill-opacity:1;" d="M 70.375 57.941406 C 68.695312 58.875 68.613281 60.519531 68.566406 61.5 C 68.550781 61.789062 68.523438 62.324219 68.4375 62.425781 C 68.4375 62.429688 68.207031 62.617188 67.230469 62.578125 C 67.199219 62.574219 67.167969 62.574219 67.140625 62.574219 C 66.34375 62.574219 65.726562 63.023438 65.226562 63.386719 C 64.378906 64.007812 63.910156 64.347656 62.582031 63.347656 C 61.234375 62.332031 60.074219 62.929688 59.515625 63.214844 C 59.195312 63.378906 59.046875 63.445312 58.890625 63.433594 C 58.746094 63.421875 58.3125 63.3125 57.5 62.582031 C 55.984375 61.226562 55.539062 60.449219 55.210938 59.878906 C 54.5 58.632812 53.933594 58.214844 51.574219 57.863281 C 49.972656 57.625 49.863281 57.328125 49.546875 56.445312 C 49.191406 55.472656 48.707031 54.140625 46.738281 52.855469 C 44.085938 51.117188 42.398438 50.296875 41.101562 50.105469 C 39.554688 49.875 38.628906 50.523438 37.8125 51.09375 C 36.976562 51.679688 36.027344 52.339844 33.828125 52.53125 C 31.539062 52.730469 31.011719 54.386719 30.726562 55.28125 C 30.660156 55.488281 30.5625 55.796875 30.488281 55.894531 C 30.386719 55.921875 29.8125 56.011719 27.964844 55.253906 C 26.15625 54.511719 25.136719 55.75 24.589844 56.414062 C 23.996094 57.132812 23.53125 57.703125 22.101562 57.652344 C 20.089844 57.585938 20 56.992188 19.941406 56.597656 C 19.898438 56.300781 19.960938 55.910156 20.035156 55.460938 C 20.171875 54.636719 20.339844 53.605469 19.972656 52.386719 C 19.671875 51.382812 19.066406 50.375 18.425781 49.308594 C 17.878906 48.394531 17.3125 47.449219 16.996094 46.578125 C 14.53125 39.824219 14.242188 37.9375 16.722656 36.53125 C 17.34375 36.183594 17.558594 35.394531 17.207031 34.777344 C 16.855469 34.15625 16.066406 33.941406 15.441406 34.292969 C 10.734375 36.957031 12.421875 41.589844 14.5625 47.457031 C 14.964844 48.5625 15.597656 49.613281 16.207031 50.628906 C 16.761719 51.554688 17.285156 52.425781 17.492188 53.121094 C 17.691406 53.777344 17.59375 54.367188 17.480469 55.046875 C 17.382812 55.65625 17.28125 56.28125 17.382812 56.976562 C 17.691406 59.042969 19.25 60.136719 22.011719 60.230469 C 24.71875 60.324219 25.890625 58.898438 26.589844 58.046875 C 26.707031 57.90625 26.855469 57.726562 26.957031 57.628906 C 26.964844 57.628906 26.96875 57.632812 26.976562 57.636719 C 29.167969 58.535156 30.550781 58.710938 31.597656 58.226562 C 32.65625 57.734375 32.980469 56.726562 33.191406 56.0625 C 33.460938 55.214844 33.527344 55.144531 34.054688 55.097656 C 36.945312 54.847656 38.304688 53.898438 39.296875 53.203125 C 40.011719 52.703125 40.21875 52.578125 40.722656 52.652344 C 41.585938 52.78125 43.089844 53.550781 45.320312 55.007812 C 46.566406 55.824219 46.820312 56.519531 47.113281 57.324219 C 47.632812 58.757812 48.300781 59.976562 51.191406 60.410156 C 52.007812 60.53125 52.515625 60.648438 52.703125 60.757812 C 52.746094 60.78125 52.804688 60.875 52.964844 61.152344 C 53.332031 61.792969 53.945312 62.863281 55.769531 64.5 C 57.976562 66.476562 59.449219 66.152344 60.703125 65.503906 C 60.789062 65.457031 60.902344 65.402344 60.976562 65.371094 C 60.988281 65.378906 61.003906 65.390625 61.019531 65.402344 C 62.15625 66.257812 63.148438 66.554688 63.988281 66.554688 C 65.265625 66.554688 66.191406 65.875 66.753906 65.46875 C 66.90625 65.355469 67.105469 65.210938 67.214844 65.152344 C 70.964844 65.273438 71.089844 62.816406 71.148438 61.628906 C 71.199219 60.671875 71.257812 60.402344 71.636719 60.191406 C 72.261719 59.84375 72.484375 59.0625 72.136719 58.4375 C 71.789062 57.820312 71 57.597656 70.375 57.941406 Z M 70.375 57.941406 "/><path style=" stroke:none;fill-rule:nonzero;fill:rgb(0%,0%,0%);fill-opacity:1;" d="M 74.613281 34.828125 C 73.476562 33.128906 72.230469 31.613281 71.132812 30.277344 C 69.855469 28.726562 68.269531 26.800781 68.339844 26.105469 C 68.546875 24.019531 68.472656 22.773438 68.09375 21.9375 C 67.554688 20.75 66.5 20.621094 66.050781 20.566406 C 66.015625 20.5625 65.976562 20.558594 65.9375 20.550781 C 65.882812 20.390625 65.785156 19.980469 65.785156 19.066406 C 65.785156 16.324219 64.910156 14.292969 63.386719 13.496094 C 62.460938 13.011719 61.394531 13.078125 60.53125 13.667969 C 59.222656 14.570312 58.617188 16.507812 58.90625 18.851562 C 59.015625 19.757812 58.824219 20.402344 58.617188 21.085938 C 58.394531 21.832031 58.136719 22.679688 58.410156 23.671875 C 58.628906 24.457031 58.175781 25.308594 57.804688 25.722656 C 57.019531 25.050781 55.574219 23.832031 55.296875 23.679688 C 54.726562 23.363281 53.992188 23.136719 53.28125 22.921875 C 52.894531 22.800781 52.289062 22.617188 51.972656 22.46875 C 51.929688 21.703125 52.566406 20.871094 52.980469 20.414062 C 53.628906 19.703125 53.8125 18.839844 53.484375 18.042969 C 53.027344 16.9375 51.617188 16.101562 49.046875 15.417969 C 47.335938 14.960938 45.554688 14.695312 44.886719 14.660156 C 42.898438 14.550781 41.886719 15.496094 41.214844 16.121094 C 41.03125 16.292969 40.871094 16.4375 40.714844 16.546875 C 40.363281 16.796875 40.0625 17.019531 39.804688 17.214844 C 38.277344 15.457031 36.039062 14.332031 33.542969 14.304688 C 33.527344 14.304688 33.511719 14.300781 33.496094 14.300781 L 33.476562 14.304688 C 33.441406 14.300781 33.421875 14.300781 33.402344 14.304688 C 28.808594 14.355469 25.078125 18.121094 25.078125 22.71875 C 25.078125 23.496094 25.199219 24.273438 25.402344 25.023438 C 24.929688 26.121094 25.152344 27.445312 26.027344 28.242188 C 26.136719 28.347656 26.136719 28.386719 26.136719 28.402344 C 26.132812 28.625 25.828125 29.25 24.714844 30.183594 C 24.167969 30.640625 24.09375 31.453125 24.554688 31.996094 C 24.808594 32.300781 25.175781 32.457031 25.546875 32.457031 C 25.839844 32.457031 26.132812 32.359375 26.375 32.15625 C 27.125 31.53125 27.691406 30.925781 28.078125 30.332031 C 28.140625 30.417969 28.203125 30.5 28.257812 30.574219 C 28.773438 31.265625 31.449219 34.695312 33.472656 34.695312 C 35.496094 34.695312 38.171875 31.265625 38.6875 30.574219 C 39.875 28.988281 41.867188 25.859375 41.867188 22.71875 C 41.867188 21.546875 41.625 20.429688 41.1875 19.410156 C 41.578125 19.101562 42.019531 18.789062 42.21875 18.648438 C 42.511719 18.441406 42.757812 18.207031 42.976562 18.003906 C 43.546875 17.476562 43.863281 17.183594 44.746094 17.234375 C 45.175781 17.257812 46.667969 17.46875 48.167969 17.851562 C 49.816406 18.273438 50.566406 18.660156 50.890625 18.882812 C 49.589844 20.398438 49.113281 21.960938 49.519531 23.417969 C 49.839844 24.5625 51.144531 24.960938 52.523438 25.382812 C 53.046875 25.542969 53.632812 25.722656 53.980469 25.898438 C 54.378906 26.210938 56.359375 27.875 56.5625 28.054688 C 57.042969 28.488281 57.898438 28.738281 58.882812 28.148438 C 60.121094 27.402344 61.515625 25.195312 60.90625 22.992188 C 60.832031 22.722656 60.921875 22.40625 61.097656 21.824219 C 61.332031 21.046875 61.652344 19.976562 61.472656 18.539062 C 61.257812 16.800781 61.726562 15.980469 62.003906 15.785156 C 62.074219 15.742188 62.101562 15.734375 62.1875 15.777344 C 62.539062 15.960938 63.199219 16.882812 63.199219 19.066406 C 63.199219 20.558594 63.410156 21.511719 63.890625 22.160156 C 64.484375 22.96875 65.292969 23.070312 65.730469 23.121094 C 65.746094 23.125 65.761719 23.125 65.78125 23.128906 C 65.847656 23.390625 65.9375 24.105469 65.765625 25.851562 C 65.589844 27.605469 67.074219 29.410156 69.128906 31.910156 C 70.191406 33.199219 71.394531 34.664062 72.460938 36.257812 C 74.523438 39.328125 76.847656 45.984375 75.804688 49.417969 C 75.597656 50.101562 75.984375 50.820312 76.667969 51.023438 C 76.792969 51.0625 76.917969 51.082031 77.042969 51.082031 C 77.597656 51.082031 78.113281 50.722656 78.28125 50.164062 C 79.625 45.734375 77.015625 38.410156 74.613281 34.828125 Z M 36.792969 28.789062 C 35.355469 30.777344 33.972656 31.882812 33.472656 32.09375 C 32.96875 31.882812 31.589844 30.777344 30.152344 28.789062 C 29.164062 27.421875 28.4375 26.046875 28.035156 24.796875 L 28.027344 24.78125 C 27.789062 24.039062 27.664062 23.339844 27.664062 22.71875 C 27.664062 19.519531 30.265625 16.898438 33.457031 16.878906 C 33.464844 16.878906 33.46875 16.878906 33.472656 16.878906 C 33.476562 16.878906 33.480469 16.878906 33.488281 16.878906 C 35.558594 16.894531 37.382812 18.003906 38.40625 19.652344 C 38.441406 19.734375 38.488281 19.816406 38.542969 19.890625 C 39.011719 20.730469 39.28125 21.695312 39.28125 22.71875 C 39.28125 24.394531 38.375 26.605469 36.792969 28.789062 Z M 36.792969 28.789062 "/><g clip-rule="nonzero" clip-path="url(#clip3)"><path style=" stroke:none;fill-rule:nonzero;fill:rgb(0%,0%,0%);fill-opacity:1;" d="M 68.34375 69.03125 C 67.644531 68.554688 66.863281 68.710938 66.238281 68.835938 C 65.847656 68.917969 65.445312 68.996094 65.027344 68.96875 C 64.777344 68.949219 64.511719 68.921875 64.25 68.894531 C 62.925781 68.753906 61.558594 68.609375 60.742188 69.609375 C 60.242188 70.21875 60.15625 71.046875 60.484375 72.070312 C 60.613281 72.457031 60.699219 72.8125 60.78125 73.160156 C 61.066406 74.351562 61.363281 75.582031 63.054688 76.796875 C 63.496094 77.113281 64.03125 77.277344 64.609375 77.277344 C 64.902344 77.277344 65.210938 77.234375 65.523438 77.148438 C 66.707031 76.820312 67.761719 75.945312 68.207031 74.917969 C 68.324219 74.648438 68.4375 74.410156 68.546875 74.175781 C 69.050781 73.121094 69.488281 72.207031 69.183594 70.445312 C 69.070312 69.808594 68.789062 69.335938 68.34375 69.03125 Z M 66.210938 73.074219 C 66.097656 73.3125 65.964844 73.585938 65.832031 73.898438 C 65.621094 74.386719 64.804688 74.761719 64.554688 74.695312 C 63.652344 74.046875 63.546875 73.609375 63.296875 72.5625 C 63.210938 72.210938 63.117188 71.816406 62.980469 71.371094 C 63.289062 71.382812 63.679688 71.421875 63.976562 71.457031 C 64.257812 71.484375 64.546875 71.515625 64.839844 71.539062 C 65.578125 71.589844 66.214844 71.46875 66.691406 71.375 C 66.726562 71.988281 66.554688 72.347656 66.210938 73.074219 Z M 66.210938 73.074219 "/></g><path style=" stroke:none;fill-rule:nonzero;fill:rgb(0%,0%,0%);fill-opacity:1;" d="M 21.007812 35.109375 C 21.132812 35.109375 21.261719 35.09375 21.386719 35.054688 C 22.070312 34.84375 22.453125 34.125 22.242188 33.445312 C 22.035156 32.765625 21.308594 32.382812 20.628906 32.589844 L 20.625 32.59375 C 19.945312 32.800781 19.558594 33.523438 19.769531 34.199219 C 19.941406 34.753906 20.453125 35.109375 21.007812 35.109375 Z M 21.007812 35.109375 "/><path style=" stroke:none;fill-rule:nonzero;fill:rgb(0%,0%,0%);fill-opacity:1;" d="M 59.605469 54.789062 C 61.628906 54.789062 64.300781 51.359375 64.816406 50.671875 C 66.003906 49.085938 68 45.957031 68 42.816406 C 68 38.21875 64.269531 34.453125 59.679688 34.402344 C 59.660156 34.398438 59.644531 34.398438 59.625 34.398438 L 59.605469 34.398438 C 59.570312 34.398438 59.550781 34.398438 59.53125 34.402344 C 54.9375 34.453125 51.210938 38.21875 51.210938 42.816406 C 51.210938 45.957031 53.203125 49.085938 54.390625 50.671875 C 54.90625 51.359375 57.578125 54.789062 59.605469 54.789062 Z M 59.589844 36.976562 C 59.59375 36.976562 59.601562 36.976562 59.605469 36.976562 C 59.609375 36.976562 59.613281 36.976562 59.617188 36.976562 C 62.8125 36.996094 65.410156 39.617188 65.410156 42.816406 C 65.410156 44.488281 64.503906 46.703125 62.925781 48.882812 C 61.484375 50.875 60.105469 51.980469 59.605469 52.191406 C 59.101562 51.980469 57.722656 50.875 56.28125 48.882812 C 54.703125 46.703125 53.796875 44.488281 53.796875 42.816406 C 53.796875 39.617188 56.394531 36.996094 59.589844 36.976562 Z M 59.589844 36.976562 "/><path style=" stroke:none;fill-rule:nonzero;fill:rgb(0%,0%,0%);fill-opacity:1;" d="M 33.472656 21.230469 C 32.757812 21.230469 32.179688 21.808594 32.179688 22.519531 C 32.179688 23.230469 32.757812 23.808594 33.472656 23.808594 C 34.1875 23.808594 34.765625 23.230469 34.765625 22.519531 C 34.765625 21.808594 34.1875 21.230469 33.472656 21.230469 Z M 33.472656 21.230469 "/><path style=" stroke:none;fill-rule:nonzero;fill:rgb(0%,0%,0%);fill-opacity:1;" d="M 59.605469 43.90625 C 60.320312 43.90625 60.898438 43.328125 60.898438 42.617188 C 60.898438 41.90625 60.320312 41.328125 59.605469 41.328125 C 58.890625 41.328125 58.308594 41.90625 58.308594 42.617188 C 58.308594 43.328125 58.890625 43.90625 59.605469 43.90625 Z M 59.605469 43.90625 "/><path style=" stroke:none;fill-rule:nonzero;fill:rgb(0%,0%,0%);fill-opacity:1;" d="M 74.949219 53.542969 C 74.328125 53.191406 73.539062 53.40625 73.183594 54.023438 C 72.828125 54.640625 73.046875 55.425781 73.664062 55.78125 C 73.867188 55.894531 74.089844 55.949219 74.304688 55.949219 C 74.753906 55.949219 75.191406 55.71875 75.429688 55.300781 C 75.785156 54.683594 75.570312 53.894531 74.949219 53.542969 Z M 74.949219 53.542969 "/></g></svg>