<?xml version="1.0" encoding="UTF-8"?><svg xmlns="http://www.w3.org/2000/svg" xmlns:xlink="http://www.w3.org/1999/xlink" contentScriptType="text/ecmascript" width="90pt" zoomAndPan="magnify" contentStyleType="text/css" viewBox="0 0 90 89.999999" height="89.999999pt" preserveAspectRatio="xMidYMid meet" version="1.2"><defs><filter x="0%" y="0%" width="100%" xmlns:xlink="http://www.w3.org/1999/xlink" xlink:type="simple" filterUnits="objectBoundingBox" xlink:actuate="onLoad" id="alpha" height="100%" xlink:show="other" xml:id="alpha"><feColorMatrix values="0 0 0 0 1 0 0 0 0 1 0 0 0 0 1 0 0 0 1 0" type="matrix" in="SourceGraphic"/></filter><clipPath xml:id="clip2" id="clip2"><path d="M 0.71875 0.71875 L 89.21875 0.71875 L 89.21875 89.21875 L 0.71875 89.21875 Z M 0.71875 0.71875 "/></clipPath><clipPath xml:id="clip1" id="clip1"><rect x="0" width="90" y="0" height="90"/></clipPath><clipPath xml:id="clip3" id="clip3"><path d="M 11.699219 19.441406 L 53.699219 19.441406 L 53.699219 50.191406 L 11.699219 50.191406 Z M 11.699219 19.441406 "/></clipPath><clipPath xml:id="clip4" id="clip4"><path d="M 24.824219 59.667969 L 43.574219 59.667969 L 43.574219 74.667969 L 24.824219 74.667969 Z M 24.824219 59.667969 "/></clipPath><clipPath xml:id="clip5" id="clip5"><path d="M 73 49.839844 L 83.828125 49.839844 L 83.828125 64.089844 L 73 64.089844 Z M 73 49.839844 "/></clipPath><clipPath xml:id="clip6" id="clip6"><path d="M 61.328125 49.839844 L 73 49.839844 L 73 64.089844 L 61.328125 64.089844 Z M 61.328125 49.839844 "/></clipPath><clipPath xml:id="clip7" id="clip7"><path d="M 61.328125 9 L 76.328125 9 L 76.328125 24 L 61.328125 24 Z M 61.328125 9 "/></clipPath><clipPath xml:id="clip8" id="clip8"><path d="M 71 12 L 76.328125 12 L 76.328125 17 L 71 17 Z M 71 12 "/></clipPath><clipPath xml:id="clip9" id="clip9"><path d="M 71 17 L 76.328125 17 L 76.328125 22 L 71 22 Z M 71 17 "/></clipPath><clipPath xml:id="clip10" id="clip10"><path d="M 75 17 L 76.328125 17 L 76.328125 21 L 75 21 Z M 75 17 "/></clipPath></defs><g xml:id="surface1" id="surface1"><g mask="url(#mask0)" transform="matrix(1,0,0,1,0.000000000000000056,-0.000000000000009492)"><g xml:id="surface5" id="surface5" clip-path="url(#clip1)"><g clip-rule="nonzero" clip-path="url(#clip2)"><path style=" stroke:none;fill-rule:nonzero;fill:rgb(85.099792%,85.099792%,83.139038%);fill-opacity:1;" d="M 45.9375 87.285156 C 22.03125 87.285156 2.65625 67.90625 2.65625 44 C 2.65625 20.257812 21.773438 0.984375 45.453125 0.726562 C 45.292969 0.722656 45.128906 0.71875 44.96875 0.71875 C 20.53125 0.71875 0.71875 20.53125 0.71875 44.96875 C 0.71875 69.40625 20.53125 89.21875 44.96875 89.21875 C 69.40625 89.21875 89.21875 69.40625 89.21875 44.96875 C 89.21875 44.808594 89.214844 44.644531 89.214844 44.484375 C 88.953125 68.167969 69.679688 87.285156 45.9375 87.285156 "/></g><path style=" stroke:none;fill-rule:nonzero;fill:rgb(85.099792%,85.099792%,83.139038%);fill-opacity:1;" d="M 44.96875 7.910156 C 24.5 7.910156 7.910156 24.5 7.910156 44.96875 C 7.910156 45.152344 7.914062 45.335938 7.917969 45.523438 C 8.210938 25.921875 24.191406 10.121094 43.863281 10.121094 C 63.71875 10.121094 79.816406 26.21875 79.816406 46.074219 C 79.816406 65.746094 64.015625 81.726562 44.417969 82.019531 C 44.601562 82.023438 44.785156 82.027344 44.96875 82.027344 C 65.4375 82.027344 82.027344 65.4375 82.027344 44.96875 C 82.027344 24.5 65.4375 7.910156 44.96875 7.910156 "/></g><mask xml:id="mask0" id="mask0"><g filter="url(#alpha)"><rect x="0" width="90" y="0" height="89.999999" style="fill:rgb(0%,0%,0%);fill-opacity:0.498;stroke:none;"/></g></mask></g><path style=" stroke:none;fill-rule:nonzero;fill:rgb(12.939453%,14.509583%,16.079712%);fill-opacity:1;" d="M 38.757812 33.363281 C 38.632812 33.363281 38.304688 33.40625 37.9375 33.796875 L 37.9375 37.066406 C 38.113281 37.15625 38.304688 37.199219 38.523438 37.199219 C 38.835938 37.199219 39.105469 37.023438 39.277344 36.6875 C 39.480469 36.332031 39.574219 35.8125 39.574219 35.140625 C 39.574219 33.964844 39.304688 33.363281 38.757812 33.363281 Z M 38.757812 33.363281 "/><path style=" stroke:none;fill-rule:nonzero;fill:rgb(12.939453%,14.509583%,16.079712%);fill-opacity:1;" d="M 45.488281 33.175781 C 44.992188 33.175781 44.730469 33.636719 44.671875 34.617188 L 46.261719 34.617188 C 46.226562 33.644531 45.976562 33.175781 45.488281 33.175781 Z M 45.488281 33.175781 "/><g clip-rule="nonzero" clip-path="url(#clip3)"><path style=" stroke:none;fill-rule:nonzero;fill:rgb(12.939453%,14.509583%,16.079712%);fill-opacity:1;" d="M 49.5 19.441406 L 15.902344 19.441406 C 13.585938 19.441406 11.703125 21.355469 11.703125 23.710938 L 11.703125 45.917969 C 11.703125 48.273438 13.585938 50.191406 15.902344 50.191406 L 49.5 50.191406 C 51.816406 50.191406 53.699219 48.273438 53.699219 45.917969 L 53.699219 23.710938 C 53.699219 21.355469 51.816406 19.441406 49.5 19.441406 Z M 21.964844 38.296875 C 21.53125 38.648438 20.886719 38.835938 20.113281 38.835938 C 19.140625 38.835938 18.199219 38.535156 17.695312 38.242188 L 17.957031 36.589844 C 18.546875 36.941406 19.453125 37.21875 20 37.21875 C 20.445312 37.21875 20.6875 37.050781 20.6875 36.757812 C 20.6875 36.457031 20.433594 36.261719 19.679688 35.988281 C 18.503906 35.554688 17.78125 35.042969 17.78125 33.839844 C 17.78125 33.175781 18.019531 32.625 18.46875 32.246094 C 18.90625 31.882812 19.511719 31.691406 20.242188 31.691406 C 21.277344 31.691406 22.027344 31.980469 22.390625 32.160156 L 22.128906 33.792969 C 21.667969 33.566406 21 33.308594 20.347656 33.308594 C 19.992188 33.308594 19.789062 33.449219 19.789062 33.699219 C 19.789062 33.988281 20.136719 34.175781 20.773438 34.414062 C 21.964844 34.847656 22.703125 35.359375 22.703125 36.589844 C 22.703125 37.332031 22.453125 37.90625 21.964844 38.296875 Z M 26.445312 37.050781 C 26.644531 37.050781 26.941406 36.988281 27.070312 36.953125 L 27.070312 38.675781 C 26.835938 38.738281 26.496094 38.835938 25.9375 38.835938 C 25.21875 38.835938 24.703125 38.695312 24.347656 38.402344 C 23.921875 38.050781 23.710938 37.476562 23.710938 36.644531 L 23.710938 33.449219 L 22.820312 33.449219 L 23.066406 31.929688 L 23.714844 31.824219 L 23.984375 30.15625 L 25.835938 29.847656 L 25.835938 31.824219 L 27.210938 31.824219 L 26.953125 33.449219 C 26.953125 33.449219 25.835938 33.449219 25.835938 33.449219 L 25.835938 36.324219 C 25.835938 36.828125 26.019531 37.050781 26.445312 37.050781 Z M 31.765625 33.804688 C 31.617188 33.777344 31.496094 33.777344 31.382812 33.777344 C 30.859375 33.777344 30.476562 33.902344 30.207031 34.238281 L 30.207031 38.703125 L 28.050781 38.703125 L 28.050781 31.824219 L 29.9375 31.824219 L 30.070312 32.636719 C 30.257812 32.050781 30.746094 31.726562 31.355469 31.726562 C 31.484375 31.726562 31.617188 31.746094 31.765625 31.78125 Z M 34.773438 38.703125 L 32.609375 38.703125 L 32.609375 31.824219 L 34.773438 31.824219 Z M 33.695312 31.140625 C 33.058594 31.140625 32.554688 30.621094 32.554688 29.984375 C 32.554688 29.339844 33.058594 28.824219 33.695312 28.824219 C 34.320312 28.824219 34.824219 29.339844 34.824219 29.984375 C 34.824219 30.621094 34.320312 31.140625 33.695312 31.140625 Z M 40.84375 38.023438 C 40.234375 38.695312 39.453125 38.835938 38.914062 38.835938 C 38.609375 38.835938 38.269531 38.78125 37.941406 38.675781 L 37.941406 40.886719 L 35.78125 41.25 L 35.78125 31.824219 L 37.675781 31.824219 L 37.789062 32.511719 C 38.304688 31.957031 38.851562 31.691406 39.476562 31.691406 C 40.15625 31.691406 40.6875 31.9375 41.070312 32.441406 C 41.503906 33.007812 41.722656 33.890625 41.722656 35.058594 C 41.722656 36.375 41.429688 37.375 40.84375 38.023438 Z M 48.261719 35.964844 L 44.6875 35.964844 C 44.734375 36.414062 44.863281 36.734375 45.089844 36.925781 C 45.296875 37.113281 45.585938 37.203125 46.003906 37.203125 C 46.699219 37.203125 47.316406 37.042969 47.847656 36.75 L 48.082031 38.253906 C 47.542969 38.617188 46.6875 38.835938 45.769531 38.835938 C 44.765625 38.835938 43.992188 38.570312 43.453125 38.042969 C 42.855469 37.449219 42.550781 36.519531 42.550781 35.28125 C 42.550781 33.070312 43.6875 31.691406 45.523438 31.691406 C 46.417969 31.691406 47.125 32.007812 47.59375 32.628906 C 48.054688 33.238281 48.289062 34.105469 48.289062 35.203125 C 48.289062 35.359375 48.273438 35.855469 48.261719 35.964844 Z M 48.261719 35.964844 "/></g><g clip-rule="nonzero" clip-path="url(#clip4)"><path style=" stroke:none;fill-rule:nonzero;fill:rgb(12.939453%,14.509583%,16.079712%);fill-opacity:1;" d="M 26.699219 59.667969 C 25.664062 59.667969 24.824219 60.507812 24.824219 61.542969 L 24.824219 72.792969 C 24.824219 73.832031 25.664062 74.667969 26.699219 74.667969 L 41.699219 74.667969 C 42.734375 74.667969 43.574219 73.832031 43.574219 72.792969 L 43.574219 61.542969 C 43.574219 60.507812 42.734375 59.667969 41.699219 59.667969 Z M 26.699219 61.542969 L 41.699219 61.542969 L 41.699219 72.792969 L 26.699219 72.792969 Z M 36.027344 64.808594 C 34.804688 64.808594 34.238281 65.460938 34.238281 66.191406 C 34.238281 67.65625 35.863281 67.410156 35.863281 68.140625 C 35.863281 68.304688 35.78125 68.546875 35.128906 68.546875 C 34.480469 68.546875 33.992188 68.304688 33.992188 68.304688 L 33.832031 69.28125 C 33.832031 69.28125 34.238281 69.523438 35.050781 69.523438 C 35.78125 69.605469 36.917969 68.953125 36.917969 67.980469 C 36.917969 66.839844 35.296875 66.757812 35.296875 66.191406 C 35.296875 65.945312 35.457031 65.703125 36.027344 65.703125 C 36.429688 65.703125 36.839844 66.027344 36.839844 66.027344 L 37.082031 65.050781 C 37.082031 65.050781 36.511719 64.808594 36.027344 64.808594 Z M 30.902344 64.890625 L 29.847656 68.140625 C 29.847656 68.140625 29.765625 67.898438 29.765625 67.734375 C 29.199219 66.351562 28.222656 65.78125 28.222656 65.78125 L 29.117188 69.441406 L 30.335938 69.441406 L 32.042969 64.890625 Z M 38.789062 64.890625 L 36.917969 69.441406 L 38.058594 69.441406 L 38.300781 68.792969 L 39.765625 68.792969 L 39.925781 69.441406 L 40.902344 69.441406 L 40.007812 64.890625 Z M 26.839844 64.96875 C 26.839844 64.96875 29.199219 65.703125 29.6875 67.410156 L 29.28125 65.375 C 29.28125 65.375 29.117188 64.96875 28.628906 64.96875 Z M 32.53125 64.96875 L 31.878906 69.523438 L 33.019531 69.523438 L 33.75 64.96875 Z M 39.195312 66.273438 L 39.523438 67.980469 L 38.546875 67.980469 Z M 39.195312 66.273438 "/></g><g clip-rule="nonzero" clip-path="url(#clip5)"><path style=" stroke:none;fill-rule:nonzero;fill:rgb(12.939453%,14.509583%,16.079712%);fill-opacity:1;" d="M 83.828125 56.964844 C 83.828125 53.03125 80.714844 49.839844 76.875 49.839844 C 75.453125 49.839844 74.128906 50.277344 73.027344 51.03125 C 73.085938 51.078125 73.140625 51.125 73.183594 51.175781 C 74.828125 52.632812 75.769531 54.746094 75.769531 56.964844 C 75.769531 59.183594 74.832031 61.296875 73.195312 62.761719 C 73.140625 62.808594 73.082031 62.855469 73.023438 62.902344 C 74.128906 63.652344 75.453125 64.089844 76.875 64.089844 C 80.714844 64.09375 83.828125 60.902344 83.828125 56.964844 Z M 83.828125 56.964844 "/></g><path style=" stroke:none;fill-rule:nonzero;fill:rgb(12.939453%,14.509583%,16.079712%);fill-opacity:1;" d="M 72.578125 62.566406 C 72.667969 62.492188 72.757812 62.417969 72.839844 62.34375 C 74.308594 61.035156 75.234375 59.113281 75.234375 56.964844 C 75.234375 54.816406 74.308594 52.894531 72.839844 51.589844 C 72.757812 51.515625 72.667969 51.441406 72.578125 51.367188 C 72.488281 51.441406 72.402344 51.511719 72.316406 51.589844 C 70.851562 52.894531 69.925781 54.820312 69.925781 56.964844 C 69.925781 59.113281 70.851562 61.035156 72.316406 62.34375 C 72.402344 62.417969 72.488281 62.492188 72.578125 62.566406 Z M 72.578125 62.566406 "/><g clip-rule="nonzero" clip-path="url(#clip6)"><path style=" stroke:none;fill-rule:nonzero;fill:rgb(12.939453%,14.509583%,16.079712%);fill-opacity:1;" d="M 68.28125 64.089844 C 69.703125 64.089844 71.027344 63.652344 72.132812 62.902344 C 72.074219 62.855469 72.015625 62.808594 71.964844 62.761719 C 70.324219 61.300781 69.386719 59.1875 69.386719 56.964844 C 69.386719 54.746094 70.328125 52.632812 71.976562 51.175781 C 72.015625 51.125 72.074219 51.078125 72.128906 51.03125 C 71.027344 50.277344 69.703125 49.839844 68.28125 49.839844 C 64.441406 49.839844 61.328125 53.03125 61.328125 56.964844 C 61.328125 60.902344 64.441406 64.09375 68.28125 64.089844 Z M 68.28125 64.089844 "/></g><g clip-rule="nonzero" clip-path="url(#clip7)"><path style=" stroke:none;fill-rule:nonzero;fill:rgb(0%,0%,0%);fill-opacity:1;" d="M 73.914062 12.683594 C 73.757812 12.269531 73.621094 11.917969 73.496094 11.5625 C 73.453125 11.441406 73.390625 11.398438 73.257812 11.398438 C 72.367188 11.402344 71.476562 11.40625 70.582031 11.398438 C 70.425781 11.394531 70.386719 11.457031 70.390625 11.597656 C 70.394531 11.890625 70.390625 12.1875 70.355469 12.492188 C 70.21875 12.195312 70.070312 11.90625 69.949219 11.605469 C 69.882812 11.441406 69.792969 11.394531 69.625 11.398438 C 68.945312 11.40625 68.269531 11.40625 67.59375 11.398438 C 67.449219 11.394531 67.382812 11.445312 67.324219 11.574219 C 66.558594 13.320312 65.789062 15.066406 65.015625 16.8125 C 64.914062 17.046875 64.914062 17.046875 65.179688 17.046875 C 65.679688 17.046875 66.179688 17.058594 66.679688 17.042969 C 66.859375 17.039062 66.90625 17.101562 66.90625 17.269531 C 66.898438 18.71875 66.902344 20.167969 66.902344 21.617188 C 66.902344 21.925781 66.902344 21.925781 67.214844 21.925781 C 69.03125 21.925781 70.847656 21.921875 72.660156 21.929688 C 72.871094 21.933594 73.019531 21.867188 73.144531 21.707031 C 73.300781 21.507812 73.484375 21.328125 73.644531 21.132812 C 73.71875 21.042969 73.769531 21.035156 73.847656 21.132812 C 74.019531 21.34375 74.210938 21.539062 74.375 21.757812 C 74.480469 21.894531 74.601562 21.933594 74.765625 21.929688 C 75.308594 21.921875 75.855469 21.933594 76.398438 21.925781 C 76.574219 21.921875 76.648438 21.960938 76.636719 22.15625 C 76.621094 22.433594 76.632812 22.710938 76.632812 22.992188 C 76.632812 23.800781 76.125 24.308594 75.320312 24.308594 C 73.847656 24.3125 72.371094 24.3125 70.898438 24.3125 C 68.148438 24.3125 65.394531 24.3125 62.644531 24.3125 C 62.019531 24.3125 61.558594 23.996094 61.394531 23.457031 C 61.347656 23.3125 61.328125 23.164062 61.328125 23.007812 C 61.328125 18.777344 61.328125 14.542969 61.328125 10.308594 C 61.328125 9.511719 61.839844 9 62.636719 9 C 66.867188 9 71.097656 9 75.332031 9 C 76.125 9 76.632812 9.515625 76.636719 10.3125 C 76.636719 10.617188 76.628906 10.917969 76.636719 11.222656 C 76.640625 11.367188 76.589844 11.40625 76.449219 11.402344 C 75.835938 11.398438 75.222656 11.40625 74.609375 11.398438 C 74.449219 11.394531 74.363281 11.4375 74.308594 11.601562 C 74.199219 11.949219 74.058594 12.285156 73.914062 12.683594 Z M 73.914062 12.683594 "/></g><g clip-rule="nonzero" clip-path="url(#clip8)"><path style=" stroke:none;fill-rule:nonzero;fill:rgb(0%,0%,0%);fill-opacity:1;" d="M 75.632812 13.140625 C 75.523438 13.199219 75.523438 13.277344 75.5 13.335938 C 75.15625 14.246094 74.8125 15.15625 74.476562 16.070312 C 74.421875 16.214844 74.355469 16.285156 74.191406 16.273438 C 74.007812 16.257812 73.824219 16.257812 73.640625 16.269531 C 73.484375 16.28125 73.410156 16.226562 73.351562 16.074219 C 73.019531 15.160156 72.675781 14.25 72.332031 13.339844 C 72.308594 13.277344 72.296875 13.207031 72.226562 13.152344 C 72.175781 13.210938 72.195312 13.285156 72.195312 13.347656 C 72.195312 14.25 72.191406 15.15625 72.199219 16.0625 C 72.203125 16.234375 72.148438 16.28125 71.984375 16.273438 C 71.769531 16.261719 71.554688 16.265625 71.339844 16.269531 C 71.230469 16.273438 71.195312 16.230469 71.195312 16.125 C 71.199219 14.871094 71.199219 13.617188 71.195312 12.363281 C 71.195312 12.253906 71.242188 12.226562 71.34375 12.226562 C 71.820312 12.230469 72.292969 12.230469 72.765625 12.226562 C 72.894531 12.222656 72.921875 12.300781 72.957031 12.390625 C 73.234375 13.117188 73.511719 13.84375 73.789062 14.570312 C 73.800781 14.59375 73.808594 14.617188 73.820312 14.640625 C 73.847656 14.699219 73.84375 14.804688 73.917969 14.804688 C 73.996094 14.808594 73.992188 14.703125 74.015625 14.644531 C 74.300781 13.902344 74.585938 13.15625 74.859375 12.410156 C 74.910156 12.265625 74.980469 12.21875 75.132812 12.222656 C 75.574219 12.234375 76.019531 12.230469 76.460938 12.222656 C 76.589844 12.222656 76.636719 12.257812 76.636719 12.394531 C 76.632812 13.628906 76.632812 14.863281 76.636719 16.097656 C 76.636719 16.230469 76.59375 16.273438 76.460938 16.269531 C 76.253906 16.261719 76.042969 16.261719 75.835938 16.269531 C 75.679688 16.277344 75.628906 16.226562 75.632812 16.066406 C 75.636719 15.175781 75.632812 14.285156 75.632812 13.390625 C 75.632812 13.316406 75.632812 13.242188 75.632812 13.140625 Z M 75.632812 13.140625 "/></g><path style=" stroke:none;fill-rule:nonzero;fill:rgb(0%,0%,0%);fill-opacity:1;" d="M 67.78125 19.058594 C 67.78125 18.457031 67.785156 17.855469 67.777344 17.253906 C 67.777344 17.101562 67.8125 17.042969 67.976562 17.046875 C 68.976562 17.054688 69.972656 17.050781 70.972656 17.046875 C 71.125 17.046875 71.179688 17.089844 71.167969 17.242188 C 71.15625 17.398438 71.160156 17.558594 71.167969 17.714844 C 71.175781 17.859375 71.121094 17.898438 70.980469 17.898438 C 70.324219 17.890625 69.664062 17.898438 69.007812 17.890625 C 68.839844 17.890625 68.761719 17.933594 68.777344 18.113281 C 68.792969 18.226562 68.789062 18.34375 68.78125 18.457031 C 68.765625 18.605469 68.824219 18.652344 68.976562 18.652344 C 69.601562 18.644531 70.226562 18.648438 70.855469 18.648438 C 71.105469 18.648438 71.105469 18.648438 71.105469 18.898438 C 71.105469 19.03125 71.097656 19.164062 71.105469 19.296875 C 71.117188 19.445312 71.066406 19.496094 70.914062 19.496094 C 70.273438 19.484375 69.636719 19.496094 68.996094 19.488281 C 68.832031 19.484375 68.777344 19.535156 68.777344 19.703125 C 68.78125 20.238281 68.773438 20.238281 69.3125 20.238281 C 69.871094 20.238281 70.425781 20.242188 70.984375 20.238281 C 71.125 20.234375 71.179688 20.277344 71.167969 20.421875 C 71.160156 20.578125 71.15625 20.738281 71.167969 20.894531 C 71.179688 21.046875 71.125 21.089844 70.972656 21.089844 C 70.050781 21.082031 69.128906 21.085938 68.203125 21.085938 C 67.78125 21.085938 67.78125 21.085938 67.78125 20.671875 C 67.78125 20.132812 67.78125 19.59375 67.78125 19.058594 Z M 67.78125 19.058594 "/><path style=" stroke:none;fill-rule:nonzero;fill:rgb(0%,0%,0%);fill-opacity:1;" d="M 68.675781 12.226562 C 68.847656 12.226562 69.019531 12.238281 69.1875 12.222656 C 69.328125 12.210938 69.390625 12.273438 69.441406 12.394531 C 69.980469 13.625 70.519531 14.859375 71.066406 16.085938 C 71.125 16.222656 71.125 16.277344 70.957031 16.269531 C 70.683594 16.261719 70.410156 16.265625 70.140625 16.269531 C 70.027344 16.273438 69.96875 16.230469 69.929688 16.125 C 69.882812 15.980469 69.808594 15.847656 69.765625 15.703125 C 69.714844 15.535156 69.625 15.476562 69.449219 15.480469 C 68.917969 15.492188 68.386719 15.488281 67.855469 15.480469 C 67.714844 15.480469 67.632812 15.527344 67.589844 15.664062 C 67.542969 15.8125 67.46875 15.953125 67.417969 16.105469 C 67.378906 16.222656 67.316406 16.277344 67.183594 16.269531 C 66.914062 16.261719 66.640625 16.265625 66.371094 16.269531 C 66.257812 16.273438 66.222656 16.242188 66.273438 16.128906 C 66.835938 14.863281 67.394531 13.601562 67.953125 12.332031 C 67.988281 12.25 68.042969 12.222656 68.128906 12.226562 C 68.308594 12.230469 68.492188 12.226562 68.675781 12.226562 Z M 68.640625 13.101562 C 68.445312 13.582031 68.25 14.0625 68.058594 14.546875 C 68.011719 14.660156 68.109375 14.652344 68.175781 14.652344 C 68.5 14.652344 68.820312 14.648438 69.144531 14.652344 C 69.296875 14.65625 69.3125 14.59375 69.257812 14.46875 C 69.082031 14.046875 68.914062 13.628906 68.742188 13.207031 C 68.726562 13.167969 68.71875 13.121094 68.640625 13.101562 Z M 68.640625 13.101562 "/><g clip-rule="nonzero" clip-path="url(#clip9)"><path style=" stroke:none;fill-rule:nonzero;fill:rgb(0%,0%,0%);fill-opacity:1;" d="M 76.289062 17.050781 C 75.683594 17.691406 75.117188 18.300781 74.539062 18.902344 C 74.421875 19.023438 74.414062 19.09375 74.535156 19.222656 C 75.070312 19.777344 75.589844 20.347656 76.117188 20.910156 C 76.160156 20.953125 76.21875 20.988281 76.226562 21.082031 C 75.828125 21.082031 75.433594 21.085938 75.039062 21.082031 C 74.960938 21.082031 74.921875 21.015625 74.875 20.964844 C 74.539062 20.605469 74.199219 20.246094 73.867188 19.878906 C 73.769531 19.773438 73.710938 19.773438 73.617188 19.878906 C 73.289062 20.238281 72.949219 20.589844 72.621094 20.949219 C 72.535156 21.046875 72.445312 21.09375 72.3125 21.089844 C 71.972656 21.078125 71.628906 21.085938 71.285156 21.085938 C 71.265625 21.007812 71.332031 20.980469 71.367188 20.945312 C 71.902344 20.371094 72.433594 19.796875 72.976562 19.230469 C 73.09375 19.113281 73.089844 19.042969 72.976562 18.925781 C 72.445312 18.367188 71.921875 17.800781 71.398438 17.234375 C 71.351562 17.183594 71.289062 17.144531 71.265625 17.050781 C 71.667969 17.050781 72.066406 17.050781 72.460938 17.046875 C 72.542969 17.046875 72.582031 17.109375 72.628906 17.160156 C 72.953125 17.511719 73.285156 17.859375 73.605469 18.21875 C 73.722656 18.355469 73.792969 18.375 73.921875 18.226562 C 74.234375 17.871094 74.570312 17.53125 74.886719 17.179688 C 74.976562 17.082031 75.070312 17.042969 75.199219 17.046875 C 75.546875 17.054688 75.894531 17.050781 76.289062 17.050781 Z M 76.289062 17.050781 "/></g><g clip-rule="nonzero" clip-path="url(#clip10)"><path style=" stroke:none;fill-rule:nonzero;fill:rgb(0%,0%,0%);fill-opacity:1;" d="M 76.621094 20.113281 C 76.28125 19.789062 75.933594 19.457031 75.589844 19.128906 C 75.542969 19.082031 75.539062 19.046875 75.585938 19 C 75.925781 18.664062 76.265625 18.328125 76.621094 17.976562 C 76.621094 18.707031 76.621094 19.417969 76.621094 20.113281 Z M 76.621094 20.113281 "/></g></g></svg>