<?xml version="1.0" encoding="UTF-8"?><svg xmlns="http://www.w3.org/2000/svg" xmlns:xlink="http://www.w3.org/1999/xlink" contentScriptType="text/ecmascript" width="90pt" zoomAndPan="magnify" contentStyleType="text/css" viewBox="0 0 90 89.999999" height="89.999999pt" preserveAspectRatio="xMidYMid meet" version="1.2"><defs><filter x="0%" y="0%" width="100%" xmlns:xlink="http://www.w3.org/1999/xlink" xlink:type="simple" filterUnits="objectBoundingBox" xlink:actuate="onLoad" id="alpha" height="100%" xlink:show="other" xml:id="alpha"><feColorMatrix values="0 0 0 0 1 0 0 0 0 1 0 0 0 0 1 0 0 0 1 0" type="matrix" in="SourceGraphic"/></filter><clipPath xml:id="clip2" id="clip2"><path d="M 0.71875 0.71875 L 89.21875 0.71875 L 89.21875 89.21875 L 0.71875 89.21875 Z M 0.71875 0.71875 "/></clipPath><clipPath xml:id="clip1" id="clip1"><rect x="0" width="90" y="0" height="90"/></clipPath><clipPath xml:id="clip3" id="clip3"><path d="M 25 30.113281 L 29 30.113281 L 29 35 L 25 35 Z M 25 30.113281 "/></clipPath><clipPath xml:id="clip4" id="clip4"><path d="M 34 30.113281 L 40.199219 30.113281 L 40.199219 56.363281 L 34 56.363281 Z M 34 30.113281 "/></clipPath><clipPath xml:id="clip5" id="clip5"><path d="M 13.949219 30.113281 L 20 30.113281 L 20 56.363281 L 13.949219 56.363281 Z M 13.949219 30.113281 "/></clipPath><clipPath xml:id="clip6" id="clip6"><path d="M 21 35 L 33 35 L 33 56.363281 L 21 56.363281 Z M 21 35 "/></clipPath><clipPath xml:id="clip7" id="clip7"><path d="M 31 30.113281 L 34 30.113281 L 34 31 L 31 31 Z M 31 30.113281 "/></clipPath><clipPath xml:id="clip8" id="clip8"><path d="M 31 55 L 34 55 L 34 56.363281 L 31 56.363281 Z M 31 55 "/></clipPath><clipPath xml:id="clip9" id="clip9"><path d="M 20 30.113281 L 23 30.113281 L 23 31 L 20 31 Z M 20 30.113281 "/></clipPath><clipPath xml:id="clip10" id="clip10"><path d="M 20 55 L 23 55 L 23 56.363281 L 20 56.363281 Z M 20 55 "/></clipPath></defs><g xml:id="surface1" id="surface1"><g mask="url(#mask0)" transform="matrix(1,0,0,1,0.000000000000000056,-0.000000000000009492)"><g xml:id="surface5" id="surface5" clip-path="url(#clip1)"><g clip-rule="nonzero" clip-path="url(#clip2)"><path style=" stroke:none;fill-rule:nonzero;fill:rgb(85.099792%,85.099792%,83.139038%);fill-opacity:1;" d="M 45.9375 87.285156 C 22.03125 87.285156 2.65625 67.90625 2.65625 44 C 2.65625 20.257812 21.773438 0.984375 45.453125 0.726562 C 45.292969 0.722656 45.128906 0.71875 44.96875 0.71875 C 20.53125 0.71875 0.71875 20.53125 0.71875 44.96875 C 0.71875 69.40625 20.53125 89.21875 44.96875 89.21875 C 69.40625 89.21875 89.21875 69.40625 89.21875 44.96875 C 89.21875 44.808594 89.214844 44.644531 89.214844 44.484375 C 88.953125 68.167969 69.679688 87.285156 45.9375 87.285156 "/></g><path style=" stroke:none;fill-rule:nonzero;fill:rgb(85.099792%,85.099792%,83.139038%);fill-opacity:1;" d="M 44.96875 7.910156 C 24.5 7.910156 7.910156 24.5 7.910156 44.96875 C 7.910156 45.152344 7.914062 45.335938 7.917969 45.523438 C 8.210938 25.921875 24.191406 10.121094 43.863281 10.121094 C 63.71875 10.121094 79.816406 26.21875 79.816406 46.074219 C 79.816406 65.746094 64.015625 81.726562 44.417969 82.019531 C 44.601562 82.023438 44.785156 82.027344 44.96875 82.027344 C 65.4375 82.027344 82.027344 65.4375 82.027344 44.96875 C 82.027344 24.5 65.4375 7.910156 44.96875 7.910156 "/></g><mask xml:id="mask0" id="mask0"><g filter="url(#alpha)"><rect x="0" width="90" y="0" height="89.999999" style="fill:rgb(0%,0%,0%);fill-opacity:0.498;stroke:none;"/></g></mask></g><g clip-rule="nonzero" clip-path="url(#clip3)"><path style=" stroke:none;fill-rule:nonzero;fill:rgb(12.939453%,14.509583%,16.079712%);fill-opacity:1;" d="M 26.664062 33.3125 L 26.664062 34.644531 C 26.808594 34.625 26.929688 34.625 27.074219 34.625 C 27.21875 34.625 27.339844 34.644531 27.484375 34.644531 L 27.484375 33.3125 L 28.859375 32.144531 C 29.023438 32 29.042969 31.734375 28.898438 31.570312 C 28.757812 31.40625 28.488281 31.382812 28.324219 31.527344 L 27.484375 32.226562 L 27.484375 30.523438 C 27.484375 30.296875 27.300781 30.113281 27.074219 30.113281 C 26.847656 30.113281 26.664062 30.296875 26.664062 30.523438 L 26.664062 32.226562 L 25.824219 31.507812 C 25.660156 31.363281 25.394531 31.382812 25.25 31.546875 C 25.105469 31.710938 25.125 31.980469 25.289062 32.121094 Z M 26.664062 33.3125 "/></g><path style=" stroke:none;fill-rule:nonzero;fill:rgb(12.939453%,14.509583%,16.079712%);fill-opacity:1;" d="M 32.960938 38.519531 L 34.664062 38.519531 C 34.886719 38.519531 35.074219 38.335938 35.074219 38.109375 C 35.074219 37.886719 34.886719 37.699219 34.664062 37.699219 L 32.960938 37.699219 L 33.679688 36.859375 C 33.820312 36.695312 33.800781 36.429688 33.636719 36.285156 C 33.472656 36.140625 33.207031 36.164062 33.0625 36.328125 L 31.875 37.699219 L 30.152344 37.699219 L 30.152344 38.519531 L 31.875 38.519531 C 31.875 38.519531 33.042969 39.894531 33.042969 39.894531 C 33.1875 40.058594 33.453125 40.078125 33.617188 39.9375 C 33.78125 39.792969 33.800781 39.527344 33.65625 39.363281 Z M 32.960938 38.519531 "/><path style=" stroke:none;fill-rule:nonzero;fill:rgb(12.939453%,14.509583%,16.079712%);fill-opacity:1;" d="M 20.511719 39.9375 C 20.675781 40.078125 20.941406 40.058594 21.085938 39.894531 L 22.253906 38.519531 L 24 38.519531 L 24 37.699219 L 22.277344 37.699219 L 21.105469 36.328125 C 20.964844 36.164062 20.695312 36.140625 20.53125 36.285156 C 20.367188 36.429688 20.347656 36.695312 20.492188 36.859375 L 21.210938 37.699219 L 19.488281 37.699219 C 19.261719 37.699219 19.078125 37.886719 19.078125 38.109375 C 19.078125 38.335938 19.261719 38.519531 19.488281 38.519531 L 21.1875 38.519531 L 20.472656 39.363281 C 20.328125 39.527344 20.347656 39.792969 20.511719 39.9375 Z M 20.511719 39.9375 "/><g clip-rule="nonzero" clip-path="url(#clip4)"><path style=" stroke:none;fill-rule:nonzero;fill:rgb(12.939453%,14.509583%,16.079712%);fill-opacity:1;" d="M 38.558594 30.113281 L 34.867188 30.113281 C 34.640625 30.113281 34.457031 30.296875 34.457031 30.523438 C 34.457031 30.75 34.640625 30.933594 34.867188 30.933594 L 38.558594 30.933594 C 39.011719 30.933594 39.378906 31.300781 39.378906 31.753906 L 39.378906 54.722656 C 39.378906 55.171875 39.011719 55.542969 38.558594 55.542969 L 34.867188 55.542969 C 34.640625 55.542969 34.457031 55.726562 34.457031 55.953125 C 34.457031 56.179688 34.640625 56.363281 34.867188 56.363281 L 38.558594 56.363281 C 39.460938 56.363281 40.199219 55.625 40.199219 54.722656 L 40.199219 31.753906 C 40.199219 30.851562 39.460938 30.113281 38.558594 30.113281 Z M 38.558594 30.113281 "/></g><g clip-rule="nonzero" clip-path="url(#clip5)"><path style=" stroke:none;fill-rule:nonzero;fill:rgb(12.939453%,14.509583%,16.079712%);fill-opacity:1;" d="M 19.28125 55.542969 L 15.589844 55.542969 C 15.140625 55.542969 14.769531 55.171875 14.769531 54.722656 L 14.769531 31.753906 C 14.769531 31.300781 15.140625 30.933594 15.589844 30.933594 L 19.28125 30.933594 C 19.507812 30.933594 19.691406 30.75 19.691406 30.523438 C 19.691406 30.296875 19.507812 30.113281 19.28125 30.113281 L 15.589844 30.113281 C 14.6875 30.113281 13.949219 30.851562 13.949219 31.753906 L 13.949219 54.722656 C 13.949219 55.625 14.6875 56.363281 15.589844 56.363281 L 19.28125 56.363281 C 19.507812 56.363281 19.691406 56.179688 19.691406 55.953125 C 19.691406 55.726562 19.507812 55.542969 19.28125 55.542969 Z M 19.28125 55.542969 "/></g><path style=" stroke:none;fill-rule:nonzero;fill:rgb(12.939453%,14.509583%,16.079712%);fill-opacity:1;" d="M 21.375 32.410156 C 21.210938 32.574219 21.210938 32.820312 21.375 32.984375 L 22.542969 34.152344 L 21.414062 34.234375 C 21.1875 34.253906 21.023438 34.441406 21.046875 34.664062 C 21.066406 34.890625 21.269531 35.054688 21.476562 35.035156 L 23.300781 34.890625 L 24.46875 36.058594 C 24.613281 35.835938 24.796875 35.609375 25.003906 35.425781 L 23.894531 34.316406 L 24.039062 32.492188 C 24.058594 32.265625 23.894531 32.0625 23.671875 32.0625 C 23.445312 32.039062 23.238281 32.203125 23.238281 32.429688 L 23.15625 33.558594 L 21.949219 32.410156 C 21.785156 32.246094 21.515625 32.246094 21.375 32.410156 Z M 21.375 32.410156 "/><path style=" stroke:none;fill-rule:nonzero;fill:rgb(12.939453%,14.509583%,16.079712%);fill-opacity:1;" d="M 29.679688 36.082031 L 30.847656 34.910156 L 32.671875 35.054688 C 32.898438 35.074219 33.105469 34.890625 33.105469 34.6875 C 33.125 34.460938 32.960938 34.253906 32.734375 34.253906 L 31.605469 34.171875 L 32.777344 33.003906 C 32.941406 32.839844 32.941406 32.59375 32.777344 32.429688 C 32.613281 32.265625 32.367188 32.265625 32.203125 32.429688 L 31.03125 33.597656 L 30.949219 32.472656 C 30.929688 32.246094 30.746094 32.082031 30.519531 32.101562 C 30.292969 32.121094 30.128906 32.308594 30.152344 32.53125 L 30.292969 34.359375 L 29.167969 35.445312 C 29.371094 35.628906 29.535156 35.855469 29.679688 36.082031 Z M 29.679688 36.082031 "/><path style=" stroke:none;fill-rule:nonzero;fill:rgb(12.939453%,14.509583%,16.079712%);fill-opacity:1;" d="M 24 40.613281 L 23.300781 41.308594 L 21.476562 41.167969 C 21.25 41.144531 21.046875 41.308594 21.046875 41.535156 C 21.046875 41.761719 21.1875 41.964844 21.414062 41.964844 L 22.542969 42.046875 L 21.375 43.238281 C 21.210938 43.402344 21.210938 43.648438 21.375 43.8125 C 21.539062 43.976562 21.804688 43.976562 21.949219 43.8125 L 23.117188 42.644531 C 23.117188 42.644531 23.199219 43.769531 23.199219 43.769531 C 23.21875 43.996094 23.425781 44.160156 23.628906 44.140625 C 23.8125 44.121094 23.9375 43.996094 24 43.851562 L 24 43.484375 L 23.875 41.863281 L 24 41.742188 Z M 24 40.613281 "/><path style=" stroke:none;fill-rule:nonzero;fill:rgb(12.939453%,14.509583%,16.079712%);fill-opacity:1;" d="M 33.125 41.554688 C 33.105469 41.332031 32.917969 41.167969 32.695312 41.1875 L 30.867188 41.332031 L 30.152344 40.613281 L 30.152344 41.78125 L 30.273438 41.90625 L 30.152344 43.503906 L 30.152344 43.851562 C 30.191406 44.015625 30.335938 44.140625 30.519531 44.140625 C 30.746094 44.160156 30.949219 43.976562 30.949219 43.769531 L 31.03125 42.644531 C 31.03125 42.644531 32.203125 43.8125 32.203125 43.8125 C 32.34375 43.957031 32.632812 43.976562 32.777344 43.8125 C 32.941406 43.648438 32.941406 43.402344 32.777344 43.238281 L 31.605469 42.070312 L 32.734375 41.988281 C 32.960938 41.964844 33.144531 41.78125 33.125 41.554688 Z M 33.125 41.554688 "/><g clip-rule="nonzero" clip-path="url(#clip6)"><path style=" stroke:none;fill-rule:nonzero;fill:rgb(12.939453%,14.509583%,16.079712%);fill-opacity:1;" d="M 29.332031 45.761719 L 29.332031 37.699219 C 29.332031 36.449219 28.324219 35.445312 27.074219 35.445312 C 25.824219 35.445312 24.820312 36.449219 24.820312 37.699219 L 24.820312 45.761719 C 22.726562 46.703125 21.414062 48.816406 21.539062 51.152344 C 21.703125 53.941406 23.917969 56.179688 26.707031 56.34375 C 26.828125 56.34375 26.953125 56.363281 27.054688 56.363281 C 28.46875 56.363281 29.800781 55.828125 30.847656 54.867188 C 31.957031 53.820312 32.589844 52.34375 32.589844 50.824219 C 32.613281 48.652344 31.300781 46.664062 29.332031 45.761719 Z M 30.292969 54.269531 C 29.332031 55.171875 28.078125 55.625 26.765625 55.542969 C 24.429688 55.398438 22.5 53.449219 22.359375 51.113281 C 22.234375 49.0625 23.445312 47.175781 25.371094 46.4375 C 25.535156 46.375 25.640625 46.230469 25.640625 46.046875 L 25.640625 37.699219 C 25.640625 36.902344 26.273438 36.265625 27.074219 36.265625 C 27.875 36.265625 28.511719 36.902344 28.511719 37.699219 L 28.511719 46.046875 C 28.511719 46.210938 28.613281 46.375 28.777344 46.4375 C 30.582031 47.113281 31.792969 48.898438 31.792969 50.824219 C 31.792969 52.136719 31.257812 53.367188 30.292969 54.269531 Z M 30.292969 54.269531 "/></g><path style=" stroke:none;fill-rule:nonzero;fill:rgb(12.939453%,14.509583%,16.079712%);fill-opacity:1;" d="M 27.484375 47.769531 C 27.484375 47.769531 27.484375 47.75 27.484375 47.75 L 27.484375 42.828125 C 27.484375 42.601562 27.300781 42.417969 27.074219 42.417969 C 26.847656 42.417969 26.664062 42.601562 26.664062 42.828125 L 26.664062 47.75 C 26.664062 47.769531 26.664062 47.769531 26.664062 47.769531 C 25.167969 47.976562 24 49.265625 24 50.824219 C 24 52.527344 25.371094 53.902344 27.074219 53.902344 C 28.777344 53.902344 30.152344 52.527344 30.152344 50.824219 C 30.152344 49.265625 28.980469 47.976562 27.484375 47.769531 Z M 27.074219 53.082031 C 25.824219 53.082031 24.820312 52.078125 24.820312 50.824219 C 24.820312 49.574219 25.824219 48.570312 27.074219 48.570312 C 28.324219 48.570312 29.332031 49.574219 29.332031 50.824219 C 29.332031 52.078125 28.324219 53.082031 27.074219 53.082031 Z M 27.074219 53.082031 "/><g clip-rule="nonzero" clip-path="url(#clip7)"><path style=" stroke:none;fill-rule:nonzero;fill:rgb(12.939453%,14.509583%,16.079712%);fill-opacity:1;" d="M 32.40625 30.933594 L 33.226562 30.933594 C 33.453125 30.933594 33.636719 30.75 33.636719 30.523438 C 33.636719 30.296875 33.453125 30.113281 33.226562 30.113281 L 32.40625 30.113281 C 32.179688 30.113281 31.996094 30.296875 31.996094 30.523438 C 31.996094 30.75 32.179688 30.933594 32.40625 30.933594 Z M 32.40625 30.933594 "/></g><g clip-rule="nonzero" clip-path="url(#clip8)"><path style=" stroke:none;fill-rule:nonzero;fill:rgb(12.939453%,14.509583%,16.079712%);fill-opacity:1;" d="M 33.226562 55.542969 L 32.40625 55.542969 C 32.179688 55.542969 31.996094 55.726562 31.996094 55.953125 C 31.996094 56.179688 32.179688 56.363281 32.40625 56.363281 L 33.226562 56.363281 C 33.453125 56.363281 33.636719 56.179688 33.636719 55.953125 C 33.636719 55.726562 33.453125 55.542969 33.226562 55.542969 Z M 33.226562 55.542969 "/></g><g clip-rule="nonzero" clip-path="url(#clip9)"><path style=" stroke:none;fill-rule:nonzero;fill:rgb(12.939453%,14.509583%,16.079712%);fill-opacity:1;" d="M 20.921875 30.933594 L 21.742188 30.933594 C 21.96875 30.933594 22.152344 30.75 22.152344 30.523438 C 22.152344 30.296875 21.96875 30.113281 21.742188 30.113281 L 20.921875 30.113281 C 20.695312 30.113281 20.511719 30.296875 20.511719 30.523438 C 20.511719 30.75 20.695312 30.933594 20.921875 30.933594 Z M 20.921875 30.933594 "/></g><g clip-rule="nonzero" clip-path="url(#clip10)"><path style=" stroke:none;fill-rule:nonzero;fill:rgb(12.939453%,14.509583%,16.079712%);fill-opacity:1;" d="M 21.742188 55.542969 L 20.921875 55.542969 C 20.695312 55.542969 20.511719 55.726562 20.511719 55.953125 C 20.511719 56.179688 20.695312 56.363281 20.921875 56.363281 L 21.742188 56.363281 C 21.96875 56.363281 22.152344 56.179688 22.152344 55.953125 C 22.152344 55.726562 21.96875 55.542969 21.742188 55.542969 Z M 21.742188 55.542969 "/></g><path style=" stroke:none;fill-rule:nonzero;fill:rgb(0%,0%,0%);fill-opacity:1;" d="M 45.855469 27 C 45.371094 27 45 27.371094 45 27.855469 C 45 28.34375 45.371094 28.714844 45.855469 28.714844 L 59.855469 28.714844 C 61.542969 28.714844 63.058594 29.570312 63.972656 30.972656 L 74 46.886719 C 74.085938 47 74.199219 47.113281 74.3125 47.199219 L 77.457031 48.855469 C 78.601562 49.457031 79.285156 50.628906 79.285156 51.886719 L 79.285156 56.714844 C 79.285156 57.027344 79.027344 57.285156 78.714844 57.285156 L 75.199219 57.285156 C 74.800781 55.027344 72.800781 53.285156 70.429688 53.285156 C 68.058594 53.285156 66.058594 55.027344 65.65625 57.285156 L 45.855469 57.285156 C 45.371094 57.285156 45 57.65625 45 58.144531 C 45 58.628906 45.371094 59 45.855469 59 L 65.65625 59 C 66.058594 61.257812 68.058594 63 70.429688 63 C 72.800781 63 74.800781 61.257812 75.199219 59 L 78.714844 59 C 79.972656 59 81 57.972656 81 56.714844 L 81 51.886719 C 81 49.972656 79.941406 48.199219 78.257812 47.3125 L 75.3125 45.769531 L 65.398438 30.058594 C 64.199219 28.144531 62.113281 27 59.855469 27 Z M 63.285156 34.714844 C 62.800781 34.714844 62.429688 35.085938 62.429688 35.570312 L 62.429688 43.570312 C 62.429688 44.570312 62.828125 45.484375 63.515625 46.199219 C 64.230469 46.914062 65.144531 47.285156 66.144531 47.285156 L 70.429688 47.285156 C 70.914062 47.285156 71.285156 46.914062 71.285156 46.429688 C 71.285156 45.941406 70.914062 45.570312 70.429688 45.570312 L 66.144531 45.570312 C 65.601562 45.570312 65.113281 45.371094 64.742188 45 C 64.371094 44.628906 64.144531 44.113281 64.144531 43.570312 L 64.144531 35.570312 C 64.144531 35.085938 63.769531 34.714844 63.285156 34.714844 Z M 48.347656 41.8125 C 48.269531 41.8125 48.191406 41.816406 48.113281 41.828125 C 47.398438 41.914062 46.941406 42.570312 46.058594 43.769531 C 45.855469 44.113281 45.570312 44.484375 45.285156 44.886719 C 45 45.257812 45.058594 45.800781 45.429688 46.085938 C 45.800781 46.371094 46.34375 46.316406 46.628906 45.941406 C 46.941406 45.542969 47.226562 45.144531 47.484375 44.800781 C 47.828125 44.34375 48.257812 43.742188 48.457031 43.542969 C 48.800781 43.628906 49.34375 44.316406 49.742188 44.800781 C 50.515625 45.742188 51.371094 46.828125 52.628906 46.828125 L 52.855469 46.828125 C 53.742188 46.742188 54.398438 46.113281 54.972656 45.570312 C 55.398438 45.144531 55.828125 44.742188 56.144531 44.769531 C 56.230469 44.769531 56.371094 44.828125 56.484375 44.886719 C 56.914062 45.085938 57.429688 44.914062 57.628906 44.484375 C 57.828125 44.058594 57.65625 43.542969 57.230469 43.34375 C 56.914062 43.199219 56.601562 43.085938 56.285156 43.058594 C 55.171875 42.941406 54.371094 43.714844 53.742188 44.3125 C 53.34375 44.6875 52.941406 45.085938 52.628906 45.113281 C 52.171875 45.171875 51.542969 44.371094 51.027344 43.714844 C 50.304688 42.804688 49.480469 41.792969 48.347656 41.8125 Z M 70.429688 55 C 72.171875 55 73.570312 56.398438 73.570312 58.144531 C 73.570312 59.886719 72.171875 61.285156 70.429688 61.285156 C 68.6875 61.285156 67.285156 59.886719 67.285156 58.144531 C 67.285156 56.398438 68.6875 55 70.429688 55 Z M 70.429688 55 "/></g></svg>