<?xml version="1.0" encoding="UTF-8"?><svg xmlns="http://www.w3.org/2000/svg" xmlns:xlink="http://www.w3.org/1999/xlink" contentScriptType="text/ecmascript" width="90pt" zoomAndPan="magnify" contentStyleType="text/css" viewBox="0 0 90 89.999999" height="89.999999pt" preserveAspectRatio="xMidYMid meet" version="1.2"><defs><filter x="0%" y="0%" width="100%" xmlns:xlink="http://www.w3.org/1999/xlink" xlink:type="simple" filterUnits="objectBoundingBox" xlink:actuate="onLoad" id="alpha" height="100%" xlink:show="other" xml:id="alpha"><feColorMatrix values="0 0 0 0 1 0 0 0 0 1 0 0 0 0 1 0 0 0 1 0" type="matrix" in="SourceGraphic"/></filter><clipPath xml:id="clip2" id="clip2"><path d="M 0.71875 0.71875 L 89.21875 0.71875 L 89.21875 89.21875 L 0.71875 89.21875 Z M 0.71875 0.71875 "/></clipPath><clipPath xml:id="clip1" id="clip1"><rect x="0" width="90" y="0" height="90"/></clipPath><clipPath xml:id="clip3" id="clip3"><path d="M 55 20.25 L 69.75 20.25 L 69.75 35 L 55 35 Z M 55 20.25 "/></clipPath><clipPath xml:id="clip4" id="clip4"><path d="M 20.25 55 L 35 55 L 35 69.75 L 20.25 69.75 Z M 20.25 55 "/></clipPath><clipPath xml:id="clip5" id="clip5"><path d="M 37 37 L 68 37 L 68 69.75 L 37 69.75 Z M 37 37 "/></clipPath><clipPath xml:id="clip6" id="clip6"><path d="M 22 20.25 L 53 20.25 L 53 53 L 22 53 Z M 22 20.25 "/></clipPath></defs><g xml:id="surface1" id="surface1"><g mask="url(#mask0)" transform="matrix(1,0,0,1,0.000000000000000056,-0.000000000000009492)"><g xml:id="surface5" id="surface5" clip-path="url(#clip1)"><g clip-rule="nonzero" clip-path="url(#clip2)"><path style=" stroke:none;fill-rule:nonzero;fill:rgb(85.099792%,85.099792%,83.139038%);fill-opacity:1;" d="M 45.9375 87.285156 C 22.03125 87.285156 2.65625 67.90625 2.65625 44 C 2.65625 20.257812 21.773438 0.984375 45.453125 0.726562 C 45.292969 0.722656 45.128906 0.71875 44.96875 0.71875 C 20.53125 0.71875 0.71875 20.53125 0.71875 44.96875 C 0.71875 69.40625 20.53125 89.21875 44.96875 89.21875 C 69.40625 89.21875 89.21875 69.40625 89.21875 44.96875 C 89.21875 44.808594 89.214844 44.644531 89.214844 44.484375 C 88.953125 68.167969 69.679688 87.285156 45.9375 87.285156 "/></g><path style=" stroke:none;fill-rule:nonzero;fill:rgb(85.099792%,85.099792%,83.139038%);fill-opacity:1;" d="M 44.96875 7.910156 C 24.5 7.910156 7.910156 24.5 7.910156 44.96875 C 7.910156 45.152344 7.914062 45.335938 7.917969 45.523438 C 8.210938 25.921875 24.191406 10.121094 43.863281 10.121094 C 63.71875 10.121094 79.816406 26.21875 79.816406 46.074219 C 79.816406 65.746094 64.015625 81.726562 44.417969 82.019531 C 44.601562 82.023438 44.785156 82.027344 44.96875 82.027344 C 65.4375 82.027344 82.027344 65.4375 82.027344 44.96875 C 82.027344 24.5 65.4375 7.910156 44.96875 7.910156 "/></g><mask xml:id="mask0" id="mask0"><g filter="url(#alpha)"><rect x="0" width="90" y="0" height="89.999999" style="fill:rgb(0%,0%,0%);fill-opacity:0.498;stroke:none;"/></g></mask></g><path style=" stroke:none;fill-rule:nonzero;fill:rgb(12.159729%,12.939453%,16.859436%);fill-opacity:1;" d="M 53.769531 36.191406 L 38.625 36.191406 C 38.304688 36.191406 38 36.253906 37.707031 36.375 C 37.414062 36.496094 37.15625 36.667969 36.933594 36.890625 C 36.707031 37.117188 36.535156 37.375 36.414062 37.667969 C 36.292969 37.960938 36.230469 38.265625 36.230469 38.582031 L 36.230469 52.929688 C 36.230469 53.25 36.292969 53.554688 36.414062 53.847656 C 36.535156 54.140625 36.707031 54.398438 36.933594 54.621094 C 37.15625 54.847656 37.414062 55.019531 37.707031 55.140625 C 38 55.261719 38.304688 55.324219 38.625 55.324219 L 51.375 55.324219 C 51.597656 55.324219 51.785156 55.246094 51.941406 55.089844 L 55.925781 51.101562 C 56.082031 50.949219 56.160156 50.761719 56.160156 50.539062 L 56.160156 38.582031 C 56.160156 38.265625 56.097656 37.960938 55.976562 37.667969 C 55.855469 37.375 55.683594 37.117188 55.460938 36.890625 C 55.234375 36.667969 54.976562 36.496094 54.683594 36.375 C 54.390625 36.253906 54.085938 36.191406 53.769531 36.191406 Z M 52.175781 52.601562 L 52.175781 51.335938 L 53.4375 51.335938 Z M 54.566406 49.742188 L 51.375 49.742188 C 51.15625 49.742188 50.96875 49.820312 50.8125 49.976562 C 50.65625 50.132812 50.578125 50.320312 50.578125 50.539062 L 50.578125 53.726562 L 38.625 53.726562 C 38.402344 53.726562 38.214844 53.652344 38.058594 53.496094 C 37.902344 53.339844 37.824219 53.152344 37.824219 52.929688 L 37.824219 40.976562 L 54.566406 40.976562 Z M 54.566406 39.378906 L 37.824219 39.378906 L 37.824219 38.582031 C 37.824219 38.363281 37.902344 38.175781 38.058594 38.019531 C 38.214844 37.863281 38.402344 37.785156 38.625 37.785156 L 53.769531 37.785156 C 53.988281 37.785156 54.175781 37.863281 54.332031 38.019531 C 54.488281 38.175781 54.566406 38.363281 54.566406 38.582031 Z M 54.566406 39.378906 "/><path style=" stroke:none;fill-rule:nonzero;fill:rgb(12.159729%,12.939453%,16.859436%);fill-opacity:1;" d="M 43.40625 43.367188 L 45 43.367188 L 45 44.960938 L 43.40625 44.960938 Z M 43.40625 43.367188 "/><path style=" stroke:none;fill-rule:nonzero;fill:rgb(12.159729%,12.939453%,16.859436%);fill-opacity:1;" d="M 47.390625 43.367188 L 48.984375 43.367188 L 48.984375 44.960938 L 47.390625 44.960938 Z M 47.390625 43.367188 "/><path style=" stroke:none;fill-rule:nonzero;fill:rgb(12.159729%,12.939453%,16.859436%);fill-opacity:1;" d="M 51.375 43.367188 L 52.972656 43.367188 L 52.972656 44.960938 L 51.375 44.960938 Z M 51.375 43.367188 "/><path style=" stroke:none;fill-rule:nonzero;fill:rgb(12.159729%,12.939453%,16.859436%);fill-opacity:1;" d="M 43.40625 46.554688 L 45 46.554688 L 45 48.148438 L 43.40625 48.148438 Z M 43.40625 46.554688 "/><path style=" stroke:none;fill-rule:nonzero;fill:rgb(12.159729%,12.939453%,16.859436%);fill-opacity:1;" d="M 39.421875 46.554688 L 41.015625 46.554688 L 41.015625 48.148438 L 39.421875 48.148438 Z M 39.421875 46.554688 "/><path style=" stroke:none;fill-rule:nonzero;fill:rgb(12.159729%,12.939453%,16.859436%);fill-opacity:1;" d="M 47.390625 46.554688 L 48.984375 46.554688 L 48.984375 48.148438 L 47.390625 48.148438 Z M 47.390625 46.554688 "/><path style=" stroke:none;fill-rule:nonzero;fill:rgb(12.159729%,12.939453%,16.859436%);fill-opacity:1;" d="M 43.40625 49.742188 L 45 49.742188 L 45 51.335938 L 43.40625 51.335938 Z M 43.40625 49.742188 "/><path style=" stroke:none;fill-rule:nonzero;fill:rgb(12.159729%,12.939453%,16.859436%);fill-opacity:1;" d="M 39.421875 49.742188 L 41.015625 49.742188 L 41.015625 51.335938 L 39.421875 51.335938 Z M 39.421875 49.742188 "/><path style=" stroke:none;fill-rule:nonzero;fill:rgb(12.159729%,12.939453%,16.859436%);fill-opacity:1;" d="M 47.390625 49.742188 L 48.984375 49.742188 L 48.984375 51.335938 L 47.390625 51.335938 Z M 47.390625 49.742188 "/><path style=" stroke:none;fill-rule:nonzero;fill:rgb(12.159729%,12.939453%,16.859436%);fill-opacity:1;" d="M 51.375 46.554688 L 52.972656 46.554688 L 52.972656 48.148438 L 51.375 48.148438 Z M 51.375 46.554688 "/><g clip-rule="nonzero" clip-path="url(#clip3)"><path style=" stroke:none;fill-rule:nonzero;fill:rgb(12.159729%,12.939453%,16.859436%);fill-opacity:1;" d="M 62.535156 20.25 C 62.066406 20.25 61.597656 20.296875 61.136719 20.386719 C 60.675781 20.480469 60.226562 20.617188 59.789062 20.796875 C 59.355469 20.976562 58.941406 21.199219 58.550781 21.460938 C 58.160156 21.722656 57.796875 22.019531 57.464844 22.351562 C 57.128906 22.683594 56.832031 23.046875 56.570312 23.4375 C 56.308594 23.828125 56.089844 24.242188 55.910156 24.679688 C 55.726562 25.113281 55.59375 25.5625 55.5 26.023438 C 55.410156 26.488281 55.363281 26.953125 55.363281 27.425781 C 55.363281 27.894531 55.410156 28.363281 55.5 28.824219 C 55.59375 29.285156 55.726562 29.734375 55.910156 30.167969 C 56.089844 30.605469 56.308594 31.019531 56.570312 31.410156 C 56.832031 31.800781 57.128906 32.164062 57.464844 32.496094 C 57.796875 32.828125 58.160156 33.128906 58.550781 33.390625 C 58.941406 33.652344 59.355469 33.871094 59.789062 34.050781 C 60.226562 34.230469 60.675781 34.367188 61.136719 34.460938 C 61.597656 34.550781 62.066406 34.597656 62.535156 34.597656 C 63.007812 34.597656 63.472656 34.550781 63.9375 34.460938 C 64.398438 34.367188 64.847656 34.230469 65.28125 34.050781 C 65.714844 33.871094 66.128906 33.652344 66.523438 33.390625 C 66.914062 33.128906 67.277344 32.828125 67.609375 32.496094 C 67.941406 32.164062 68.238281 31.800781 68.5 31.410156 C 68.761719 31.019531 68.984375 30.605469 69.164062 30.167969 C 69.34375 29.734375 69.480469 29.285156 69.574219 28.824219 C 69.664062 28.363281 69.710938 27.894531 69.710938 27.425781 C 69.710938 26.953125 69.664062 26.488281 69.570312 26.023438 C 69.480469 25.5625 69.34375 25.113281 69.160156 24.679688 C 68.980469 24.246094 68.761719 23.832031 68.5 23.441406 C 68.238281 23.046875 67.941406 22.6875 67.605469 22.355469 C 67.273438 22.019531 66.910156 21.722656 66.519531 21.460938 C 66.128906 21.199219 65.714844 20.980469 65.28125 20.796875 C 64.84375 20.617188 64.398438 20.480469 63.933594 20.390625 C 63.472656 20.296875 63.007812 20.25 62.535156 20.25 Z M 62.535156 33.003906 C 62.167969 33.003906 61.808594 32.96875 61.449219 32.894531 C 61.089844 32.824219 60.738281 32.71875 60.402344 32.578125 C 60.0625 32.4375 59.742188 32.265625 59.4375 32.0625 C 59.132812 31.859375 58.851562 31.628906 58.589844 31.371094 C 58.332031 31.109375 58.101562 30.828125 57.898438 30.523438 C 57.691406 30.21875 57.519531 29.898438 57.382812 29.558594 C 57.242188 29.222656 57.136719 28.871094 57.0625 28.511719 C 56.992188 28.152344 56.957031 27.789062 56.957031 27.425781 C 56.957031 27.058594 56.992188 26.695312 57.0625 26.335938 C 57.136719 25.976562 57.242188 25.628906 57.382812 25.289062 C 57.519531 24.949219 57.691406 24.628906 57.898438 24.324219 C 58.101562 24.019531 58.332031 23.738281 58.589844 23.476562 C 58.851562 23.21875 59.132812 22.988281 59.4375 22.785156 C 59.742188 22.582031 60.0625 22.410156 60.402344 22.269531 C 60.738281 22.128906 61.089844 22.023438 61.449219 21.953125 C 61.808594 21.878906 62.167969 21.84375 62.535156 21.84375 C 62.902344 21.84375 63.265625 21.878906 63.625 21.953125 C 63.984375 22.023438 64.332031 22.128906 64.671875 22.269531 C 65.011719 22.410156 65.332031 22.582031 65.636719 22.785156 C 65.941406 22.988281 66.222656 23.21875 66.480469 23.476562 C 66.742188 23.738281 66.972656 24.019531 67.175781 24.324219 C 67.378906 24.628906 67.550781 24.949219 67.691406 25.289062 C 67.832031 25.628906 67.9375 25.976562 68.007812 26.335938 C 68.082031 26.695312 68.117188 27.058594 68.117188 27.425781 C 68.117188 27.789062 68.078125 28.152344 68.007812 28.511719 C 67.9375 28.871094 67.828125 29.21875 67.6875 29.558594 C 67.550781 29.894531 67.375 30.21875 67.171875 30.523438 C 66.96875 30.828125 66.738281 31.109375 66.480469 31.367188 C 66.21875 31.625 65.9375 31.859375 65.632812 32.0625 C 65.328125 32.265625 65.007812 32.4375 64.671875 32.578125 C 64.332031 32.71875 63.984375 32.824219 63.625 32.894531 C 63.265625 32.96875 62.902344 33.003906 62.535156 33.003906 Z M 62.535156 33.003906 "/></g><g clip-rule="nonzero" clip-path="url(#clip4)"><path style=" stroke:none;fill-rule:nonzero;fill:rgb(12.159729%,12.939453%,16.859436%);fill-opacity:1;" d="M 27.464844 69.671875 C 27.933594 69.671875 28.402344 69.625 28.863281 69.53125 C 29.324219 69.441406 29.773438 69.304688 30.210938 69.125 C 30.644531 68.945312 31.058594 68.722656 31.449219 68.460938 C 31.839844 68.199219 32.203125 67.902344 32.535156 67.570312 C 32.871094 67.234375 33.167969 66.875 33.429688 66.480469 C 33.691406 66.089844 33.910156 65.675781 34.089844 65.242188 C 34.273438 64.804688 34.40625 64.359375 34.5 63.894531 C 34.589844 63.433594 34.636719 62.96875 34.636719 62.496094 C 34.636719 62.023438 34.589844 61.558594 34.5 61.097656 C 34.40625 60.636719 34.273438 60.1875 34.089844 59.75 C 33.910156 59.316406 33.691406 58.902344 33.429688 58.511719 C 33.167969 58.117188 32.871094 57.757812 32.535156 57.421875 C 32.203125 57.089844 31.839844 56.792969 31.449219 56.53125 C 31.058594 56.269531 30.644531 56.046875 30.210938 55.867188 C 29.773438 55.6875 29.324219 55.550781 28.863281 55.460938 C 28.402344 55.367188 27.933594 55.324219 27.464844 55.324219 C 26.992188 55.324219 26.527344 55.367188 26.0625 55.460938 C 25.601562 55.550781 25.152344 55.6875 24.71875 55.867188 C 24.285156 56.046875 23.871094 56.269531 23.476562 56.53125 C 23.085938 56.792969 22.722656 57.089844 22.390625 57.421875 C 22.058594 57.757812 21.761719 58.117188 21.5 58.511719 C 21.238281 58.902344 21.015625 59.316406 20.835938 59.75 C 20.65625 60.1875 20.519531 60.636719 20.425781 61.097656 C 20.335938 61.558594 20.289062 62.023438 20.289062 62.496094 C 20.289062 62.96875 20.335938 63.433594 20.429688 63.894531 C 20.519531 64.355469 20.65625 64.804688 20.839844 65.242188 C 21.019531 65.675781 21.238281 66.089844 21.5 66.480469 C 21.761719 66.871094 22.058594 67.234375 22.394531 67.566406 C 22.726562 67.898438 23.089844 68.195312 23.480469 68.457031 C 23.871094 68.71875 24.285156 68.941406 24.71875 69.121094 C 25.15625 69.300781 25.601562 69.4375 26.066406 69.53125 C 26.527344 69.625 26.992188 69.667969 27.464844 69.671875 Z M 27.464844 56.917969 C 27.832031 56.917969 28.191406 56.953125 28.550781 57.023438 C 28.910156 57.09375 29.261719 57.203125 29.597656 57.339844 C 29.9375 57.480469 30.257812 57.652344 30.5625 57.855469 C 30.867188 58.0625 31.148438 58.292969 31.410156 58.550781 C 31.667969 58.808594 31.898438 59.09375 32.101562 59.394531 C 32.308594 59.699219 32.480469 60.023438 32.617188 60.359375 C 32.757812 60.699219 32.863281 61.046875 32.9375 61.40625 C 33.007812 61.765625 33.042969 62.128906 33.042969 62.496094 C 33.042969 62.863281 33.007812 63.226562 32.9375 63.585938 C 32.863281 63.945312 32.757812 64.292969 32.617188 64.632812 C 32.480469 64.96875 32.308594 65.292969 32.101562 65.597656 C 31.898438 65.902344 31.667969 66.183594 31.410156 66.441406 C 31.148438 66.699219 30.867188 66.933594 30.5625 67.136719 C 30.257812 67.339844 29.9375 67.511719 29.597656 67.652344 C 29.261719 67.792969 28.910156 67.898438 28.550781 67.96875 C 28.191406 68.039062 27.832031 68.074219 27.464844 68.074219 C 27.097656 68.074219 26.734375 68.039062 26.375 67.96875 C 26.015625 67.898438 25.667969 67.792969 25.328125 67.652344 C 24.988281 67.511719 24.667969 67.339844 24.363281 67.136719 C 24.058594 66.933594 23.777344 66.699219 23.519531 66.441406 C 23.257812 66.183594 23.027344 65.902344 22.824219 65.597656 C 22.621094 65.292969 22.449219 64.96875 22.308594 64.632812 C 22.167969 64.292969 22.0625 63.945312 21.992188 63.585938 C 21.917969 63.226562 21.882812 62.863281 21.882812 62.496094 C 21.882812 62.128906 21.921875 61.765625 21.992188 61.410156 C 22.0625 61.050781 22.171875 60.699219 22.3125 60.363281 C 22.449219 60.023438 22.621094 59.703125 22.828125 59.398438 C 23.03125 59.09375 23.261719 58.8125 23.519531 58.554688 C 23.78125 58.292969 24.0625 58.0625 24.367188 57.859375 C 24.671875 57.65625 24.992188 57.484375 25.328125 57.34375 C 25.667969 57.203125 26.015625 57.097656 26.375 57.023438 C 26.734375 56.953125 27.097656 56.917969 27.464844 56.917969 Z M 27.464844 56.917969 "/></g><path style=" stroke:none;fill-rule:nonzero;fill:rgb(12.159729%,12.939453%,16.859436%);fill-opacity:1;" d="M 61.128906 28.550781 L 60 27.425781 L 58.871094 28.550781 L 60.558594 30.242188 C 60.714844 30.398438 60.902344 30.476562 61.125 30.476562 C 61.34375 30.476562 61.53125 30.398438 61.6875 30.242188 L 66.203125 25.734375 L 65.074219 24.605469 Z M 61.128906 28.550781 "/><path style=" stroke:none;fill-rule:nonzero;fill:rgb(12.159729%,12.939453%,16.859436%);fill-opacity:1;" d="M 27.863281 64.089844 L 27.066406 64.089844 C 26.957031 64.089844 26.859375 64.050781 26.785156 63.972656 C 26.707031 63.894531 26.667969 63.800781 26.667969 63.691406 L 25.074219 63.691406 C 25.074219 63.921875 25.109375 64.144531 25.1875 64.359375 C 25.265625 64.578125 25.375 64.773438 25.523438 64.953125 C 25.667969 65.128906 25.835938 65.277344 26.035156 65.398438 C 26.230469 65.515625 26.441406 65.597656 26.667969 65.644531 L 26.667969 66.480469 L 28.261719 66.480469 L 28.261719 65.644531 C 28.503906 65.59375 28.726562 65.503906 28.933594 65.371094 C 29.144531 65.238281 29.320312 65.070312 29.464844 64.871094 C 29.613281 64.671875 29.71875 64.453125 29.78125 64.21875 C 29.847656 63.980469 29.867188 63.738281 29.84375 63.492188 C 29.816406 63.246094 29.75 63.011719 29.640625 62.792969 C 29.527344 62.574219 29.378906 62.378906 29.199219 62.214844 C 29.015625 62.050781 28.808594 61.921875 28.578125 61.832031 C 28.347656 61.742188 28.109375 61.699219 27.863281 61.699219 L 27.066406 61.699219 C 26.957031 61.699219 26.859375 61.660156 26.785156 61.582031 C 26.707031 61.503906 26.667969 61.410156 26.667969 61.300781 C 26.667969 61.191406 26.707031 61.097656 26.785156 61.019531 C 26.859375 60.941406 26.957031 60.902344 27.066406 60.902344 L 27.863281 60.902344 C 27.972656 60.902344 28.066406 60.941406 28.144531 61.019531 C 28.222656 61.097656 28.261719 61.191406 28.261719 61.300781 L 29.855469 61.300781 C 29.855469 61.070312 29.816406 60.847656 29.738281 60.632812 C 29.664062 60.414062 29.550781 60.21875 29.40625 60.039062 C 29.261719 59.863281 29.089844 59.714844 28.894531 59.59375 C 28.695312 59.476562 28.484375 59.394531 28.261719 59.347656 L 28.261719 58.511719 L 26.667969 58.511719 L 26.667969 59.347656 C 26.425781 59.398438 26.199219 59.488281 25.992188 59.621094 C 25.785156 59.753906 25.609375 59.921875 25.460938 60.121094 C 25.316406 60.320312 25.210938 60.539062 25.144531 60.777344 C 25.078125 61.015625 25.058594 61.253906 25.085938 61.5 C 25.109375 61.746094 25.175781 61.980469 25.289062 62.199219 C 25.398438 62.417969 25.546875 62.613281 25.730469 62.777344 C 25.914062 62.945312 26.121094 63.070312 26.351562 63.160156 C 26.578125 63.25 26.820312 63.292969 27.066406 63.292969 L 27.863281 63.292969 C 27.972656 63.292969 28.066406 63.332031 28.144531 63.410156 C 28.222656 63.488281 28.261719 63.582031 28.261719 63.691406 C 28.261719 63.800781 28.222656 63.894531 28.144531 63.972656 C 28.066406 64.050781 27.972656 64.089844 27.863281 64.089844 Z M 27.863281 64.089844 "/><g clip-rule="nonzero" clip-path="url(#clip5)"><path style=" stroke:none;fill-rule:nonzero;fill:rgb(12.159729%,12.939453%,16.859436%);fill-opacity:1;" d="M 45 65.683594 C 44.476562 65.683594 43.941406 65.65625 43.40625 65.613281 L 43.40625 64.089844 C 43.40625 63.78125 43.269531 63.550781 43 63.398438 C 42.730469 63.246094 42.464844 63.246094 42.199219 63.40625 L 38.210938 65.796875 C 38.09375 65.871094 38 65.96875 37.929688 66.089844 C 37.859375 66.210938 37.828125 66.34375 37.828125 66.480469 C 37.828125 66.621094 37.859375 66.753906 37.929688 66.875 C 38 66.996094 38.09375 67.09375 38.210938 67.164062 L 42.199219 69.554688 C 42.464844 69.714844 42.730469 69.71875 43 69.566406 C 43.269531 69.414062 43.40625 69.183594 43.40625 68.875 L 43.40625 67.210938 C 43.941406 67.25 44.476562 67.277344 45 67.277344 C 45.890625 67.277344 46.777344 67.226562 47.660156 67.117188 C 48.542969 67.011719 49.414062 66.855469 50.277344 66.644531 C 51.144531 66.433594 51.992188 66.171875 52.824219 65.859375 C 53.65625 65.546875 54.46875 65.1875 55.257812 64.777344 C 56.046875 64.367188 56.808594 63.914062 57.546875 63.414062 C 58.28125 62.914062 58.984375 62.371094 59.65625 61.789062 C 60.324219 61.203125 60.960938 60.582031 61.554688 59.921875 C 62.152344 59.261719 62.707031 58.570312 63.21875 57.84375 C 63.734375 57.117188 64.203125 56.363281 64.625 55.582031 C 65.046875 54.796875 65.425781 53.992188 65.75 53.167969 C 66.078125 52.339844 66.355469 51.496094 66.582031 50.636719 C 66.808594 49.777344 66.980469 48.90625 67.105469 48.023438 C 67.226562 47.144531 67.296875 46.257812 67.3125 45.371094 C 67.328125 44.480469 67.292969 43.59375 67.203125 42.707031 C 67.113281 41.824219 66.972656 40.945312 66.777344 40.078125 C 66.585938 39.210938 66.339844 38.359375 66.042969 37.519531 L 64.542969 38.054688 C 64.816406 38.832031 65.042969 39.625 65.222656 40.429688 C 65.402344 41.234375 65.535156 42.050781 65.617188 42.871094 C 65.699219 43.691406 65.734375 44.515625 65.71875 45.34375 C 65.703125 46.167969 65.640625 46.988281 65.523438 47.808594 C 65.410156 48.625 65.25 49.433594 65.039062 50.230469 C 64.828125 51.03125 64.570312 51.8125 64.269531 52.582031 C 63.964844 53.347656 63.617188 54.097656 63.222656 54.824219 C 62.828125 55.546875 62.394531 56.25 61.917969 56.921875 C 61.441406 57.597656 60.925781 58.242188 60.371094 58.851562 C 59.816406 59.464844 59.230469 60.042969 58.605469 60.585938 C 57.984375 61.128906 57.332031 61.632812 56.648438 62.097656 C 55.964844 62.558594 55.257812 62.980469 54.523438 63.363281 C 53.792969 63.742188 53.039062 64.078125 52.265625 64.367188 C 51.492188 64.65625 50.703125 64.898438 49.902344 65.09375 C 49.097656 65.289062 48.289062 65.4375 47.46875 65.535156 C 46.648438 65.636719 45.824219 65.683594 45 65.683594 Z M 41.8125 67.464844 L 40.171875 66.480469 L 41.8125 65.5 Z M 41.8125 67.464844 "/></g><g clip-rule="nonzero" clip-path="url(#clip6)"><path style=" stroke:none;fill-rule:nonzero;fill:rgb(12.159729%,12.939453%,16.859436%);fill-opacity:1;" d="M 45 24.234375 C 45.519531 24.234375 46.050781 24.261719 46.59375 24.300781 L 46.59375 25.828125 C 46.59375 26.140625 46.730469 26.371094 47 26.523438 C 47.269531 26.675781 47.535156 26.671875 47.800781 26.511719 L 51.789062 24.121094 C 51.90625 24.050781 52 23.953125 52.070312 23.832031 C 52.140625 23.710938 52.171875 23.578125 52.171875 23.4375 C 52.171875 23.296875 52.140625 23.167969 52.070312 23.046875 C 52 22.925781 51.90625 22.828125 51.789062 22.753906 L 47.800781 20.363281 C 47.535156 20.203125 47.269531 20.199219 47 20.351562 C 46.730469 20.507812 46.59375 20.738281 46.59375 21.046875 L 46.59375 22.703125 C 46.054688 22.667969 45.519531 22.640625 45 22.640625 C 44.109375 22.640625 43.222656 22.695312 42.339844 22.800781 C 41.457031 22.90625 40.585938 23.066406 39.722656 23.277344 C 38.855469 23.488281 38.007812 23.75 37.175781 24.0625 C 36.34375 24.371094 35.53125 24.734375 34.742188 25.140625 C 33.953125 25.550781 33.191406 26.007812 32.453125 26.507812 C 31.71875 27.007812 31.015625 27.546875 30.34375 28.132812 C 29.675781 28.71875 29.039062 29.339844 28.445312 30 C 27.847656 30.660156 27.292969 31.351562 26.78125 32.078125 C 26.265625 32.804688 25.796875 33.558594 25.375 34.339844 C 24.953125 35.121094 24.574219 35.925781 24.25 36.753906 C 23.921875 37.582031 23.644531 38.425781 23.417969 39.285156 C 23.191406 40.144531 23.019531 41.015625 22.894531 41.894531 C 22.773438 42.777344 22.703125 43.660156 22.6875 44.550781 C 22.671875 45.441406 22.707031 46.328125 22.796875 47.210938 C 22.886719 48.097656 23.027344 48.972656 23.222656 49.839844 C 23.414062 50.710938 23.660156 51.5625 23.957031 52.402344 L 25.457031 51.867188 C 25.183594 51.089844 24.957031 50.296875 24.777344 49.488281 C 24.597656 48.683594 24.464844 47.871094 24.382812 47.050781 C 24.300781 46.226562 24.265625 45.402344 24.28125 44.578125 C 24.296875 43.753906 24.359375 42.929688 24.476562 42.113281 C 24.589844 41.292969 24.75 40.488281 24.960938 39.6875 C 25.171875 38.890625 25.429688 38.105469 25.730469 37.339844 C 26.035156 36.570312 26.382812 35.824219 26.777344 35.097656 C 27.171875 34.371094 27.605469 33.671875 28.082031 32.996094 C 28.558594 32.324219 29.074219 31.679688 29.628906 31.066406 C 30.183594 30.453125 30.769531 29.875 31.394531 29.335938 C 32.015625 28.792969 32.667969 28.289062 33.351562 27.824219 C 34.035156 27.359375 34.742188 26.9375 35.476562 26.558594 C 36.207031 26.179688 36.960938 25.84375 37.734375 25.554688 C 38.507812 25.265625 39.296875 25.019531 40.097656 24.824219 C 40.902344 24.628906 41.710938 24.484375 42.53125 24.382812 C 43.351562 24.285156 44.175781 24.234375 45 24.234375 Z M 48.1875 22.457031 L 49.828125 23.4375 L 48.1875 24.421875 Z M 48.1875 22.457031 "/></g></g></svg>