<?xml version="1.0" encoding="UTF-8"?><svg xmlns="http://www.w3.org/2000/svg" xmlns:xlink="http://www.w3.org/1999/xlink" contentScriptType="text/ecmascript" width="90pt" zoomAndPan="magnify" contentStyleType="text/css" viewBox="0 0 90 89.999999" height="89.999999pt" preserveAspectRatio="xMidYMid meet" version="1.2"><defs><filter x="0%" y="0%" width="100%" xmlns:xlink="http://www.w3.org/1999/xlink" xlink:type="simple" filterUnits="objectBoundingBox" xlink:actuate="onLoad" id="alpha" height="100%" xlink:show="other" xml:id="alpha"><feColorMatrix values="0 0 0 0 1 0 0 0 0 1 0 0 0 0 1 0 0 0 1 0" type="matrix" in="SourceGraphic"/></filter><clipPath xml:id="clip2" id="clip2"><path d="M 0.71875 0.71875 L 89.21875 0.71875 L 89.21875 89.21875 L 0.71875 89.21875 Z M 0.71875 0.71875 "/></clipPath><clipPath xml:id="clip1" id="clip1"><rect x="0" width="90" y="0" height="90"/></clipPath><clipPath xml:id="clip3" id="clip3"><path d="M 24.636719 18.933594 L 65 18.933594 L 65 71.433594 L 24.636719 71.433594 Z M 24.636719 18.933594 "/></clipPath><clipPath xml:id="clip4" id="clip4"><path d="M 64 70 L 65.136719 70 L 65.136719 71.433594 L 64 71.433594 Z M 64 70 "/></clipPath><clipPath xml:id="clip5" id="clip5"><path d="M 59.550781 8.210938 L 81.300781 8.210938 L 81.300781 29.960938 L 59.550781 29.960938 Z M 59.550781 8.210938 "/></clipPath></defs><g xml:id="surface1" id="surface1"><g mask="url(#mask0)" transform="matrix(1,0,0,1,0.000000000000000056,-0.000000000000009492)"><g xml:id="surface5" id="surface5" clip-path="url(#clip1)"><g clip-rule="nonzero" clip-path="url(#clip2)"><path style=" stroke:none;fill-rule:nonzero;fill:rgb(85.099792%,85.099792%,83.139038%);fill-opacity:1;" d="M 45.9375 87.285156 C 22.03125 87.285156 2.65625 67.90625 2.65625 44 C 2.65625 20.257812 21.773438 0.984375 45.453125 0.726562 C 45.292969 0.722656 45.128906 0.71875 44.96875 0.71875 C 20.53125 0.71875 0.71875 20.53125 0.71875 44.96875 C 0.71875 69.40625 20.53125 89.21875 44.96875 89.21875 C 69.40625 89.21875 89.21875 69.40625 89.21875 44.96875 C 89.21875 44.808594 89.214844 44.644531 89.214844 44.484375 C 88.953125 68.167969 69.679688 87.285156 45.9375 87.285156 "/></g><path style=" stroke:none;fill-rule:nonzero;fill:rgb(85.099792%,85.099792%,83.139038%);fill-opacity:1;" d="M 44.96875 7.910156 C 24.5 7.910156 7.910156 24.5 7.910156 44.96875 C 7.910156 45.152344 7.914062 45.335938 7.917969 45.523438 C 8.210938 25.921875 24.191406 10.121094 43.863281 10.121094 C 63.71875 10.121094 79.816406 26.21875 79.816406 46.074219 C 79.816406 65.746094 64.015625 81.726562 44.417969 82.019531 C 44.601562 82.023438 44.785156 82.027344 44.96875 82.027344 C 65.4375 82.027344 82.027344 65.4375 82.027344 44.96875 C 82.027344 24.5 65.4375 7.910156 44.96875 7.910156 "/></g><mask xml:id="mask0" id="mask0"><g filter="url(#alpha)"><rect x="0" width="90" y="0" height="89.999999" style="fill:rgb(0%,0%,0%);fill-opacity:0.498;stroke:none;"/></g></mask></g><g clip-rule="nonzero" clip-path="url(#clip3)"><path style=" stroke:none;fill-rule:nonzero;fill:rgb(12.939453%,14.509583%,16.079712%);fill-opacity:1;" d="M 25.855469 49.171875 L 25.066406 50.355469 C 24.765625 50.804688 24.652344 51.347656 24.753906 51.886719 C 24.855469 52.425781 25.15625 52.886719 25.601562 53.195312 L 29.183594 55.660156 C 29.292969 55.734375 29.40625 55.792969 29.523438 55.84375 C 29.53125 57.636719 30.976562 59.101562 32.742188 59.101562 L 33.050781 59.101562 L 37.996094 63.558594 C 38.707031 64.195312 39.882812 64.867188 40.679688 65.085938 C 41.316406 65.261719 42.222656 65.976562 42.667969 66.660156 L 45.898438 71.214844 C 45.976562 71.324219 46.097656 71.382812 46.222656 71.382812 C 46.304688 71.382812 46.386719 71.359375 46.457031 71.304688 C 46.640625 71.171875 46.679688 70.917969 46.550781 70.734375 L 43.332031 66.195312 C 42.785156 65.355469 41.710938 64.519531 40.886719 64.292969 C 40.21875 64.109375 39.140625 63.492188 38.53125 62.945312 L 34.265625 59.101562 L 48.839844 59.101562 C 50.609375 59.101562 52.203125 57.628906 52.203125 55.828125 L 52.203125 35.964844 C 52.605469 35.105469 53.628906 34.300781 54.707031 34.15625 C 55.335938 34.070312 55.738281 34.214844 56.007812 34.589844 C 56.523438 35.308594 56.332031 36.761719 55.871094 37.757812 C 55.691406 38.144531 55.375 38.867188 55.328125 39.40625 C 55.191406 41.027344 54.96875 43.992188 55.078125 45.625 C 55.089844 45.792969 55.105469 45.996094 55.125 46.207031 C 55.15625 46.558594 55.195312 46.957031 55.195312 47.226562 C 55.207031 49.09375 55.15625 53.726562 54.511719 56.441406 C 54.296875 57.363281 54.390625 58.742188 55.109375 59.585938 L 63.621094 70.007812 C 63.699219 70.105469 63.816406 70.15625 63.929688 70.15625 C 64.019531 70.15625 64.113281 70.125 64.1875 70.058594 C 64.359375 69.917969 64.382812 69.660156 64.238281 69.484375 L 55.722656 59.054688 C 55.214844 58.460938 55.121094 57.363281 55.296875 56.636719 C 55.960938 53.828125 56.007812 49.117188 56 47.222656 C 56 46.917969 55.960938 46.515625 55.925781 46.128906 C 55.90625 45.925781 55.886719 45.730469 55.875 45.570312 C 55.769531 43.933594 56.011719 40.765625 56.121094 39.480469 C 56.148438 39.183594 56.316406 38.671875 56.578125 38.109375 C 57.148438 36.882812 57.347656 35.117188 56.625 34.109375 C 56.3125 33.671875 55.769531 33.1875 54.601562 33.34375 C 53.613281 33.476562 52.605469 34.039062 52.203125 34.722656 L 52.203125 22.261719 C 52.203125 20.460938 50.609375 18.988281 48.839844 18.988281 L 32.742188 18.988281 C 30.972656 18.988281 29.566406 20.460938 29.566406 22.261719 L 29.566406 32.351562 C 29.164062 32.339844 29.367188 32.328125 29.277344 32.328125 C 28.648438 32.328125 28.050781 32.605469 27.660156 33.089844 L 26.820312 34.121094 C 26.476562 34.542969 26.320312 35.074219 26.382812 35.613281 C 26.441406 36.152344 26.710938 36.632812 27.140625 36.964844 L 28.648438 38.132812 C 28.210938 38.253906 27.820312 38.511719 27.550781 38.882812 L 26.746094 39.972656 C 26.421875 40.410156 26.289062 40.949219 26.371094 41.488281 C 26.453125 42.027344 26.738281 42.5 27.175781 42.816406 L 27.566406 43.105469 C 27.199219 43.253906 26.878906 43.511719 26.648438 43.851562 L 25.871094 45.011719 C 25.570312 45.464844 25.457031 46.007812 25.558594 46.546875 C 25.660156 47.082031 25.960938 47.546875 26.402344 47.855469 L 27.089844 48.328125 C 26.59375 48.441406 26.148438 48.738281 25.855469 49.171875 Z M 45.859375 19.804688 L 45.488281 20.878906 C 45.140625 21.445312 44.28125 21.449219 44.285156 21.445312 L 37.269531 21.445312 C 36.644531 21.445312 36.273438 21.179688 36.0625 20.941406 L 35.609375 19.804688 Z M 30.375 22.261719 C 30.375 20.910156 31.410156 19.804688 32.742188 19.804688 L 34.761719 19.804688 C 34.765625 19.84375 34.769531 19.878906 34.785156 19.914062 L 35.34375 21.3125 L 35.402344 21.417969 C 35.84375 21.960938 36.507812 22.261719 37.269531 22.261719 L 44.28125 22.261719 C 44.28125 22.261719 44.285156 22.261719 44.289062 22.261719 C 44.40625 22.261719 45.652344 22.238281 46.203125 21.257812 L 46.707031 19.804688 L 48.839844 19.804688 C 50.171875 19.804688 51.394531 20.910156 51.394531 22.261719 L 51.394531 55.828125 C 51.394531 57.183594 50.171875 58.285156 48.839844 58.285156 L 32.742188 58.285156 C 31.46875 58.285156 30.425781 57.277344 30.335938 56.007812 C 30.996094 56 31.613281 55.667969 31.980469 55.113281 L 32.773438 53.933594 C 33.074219 53.484375 33.183594 52.941406 33.082031 52.402344 C 32.980469 51.863281 32.679688 51.398438 32.238281 51.09375 L 31.570312 50.636719 C 32.066406 50.523438 32.507812 50.226562 32.796875 49.792969 L 33.574219 48.632812 C 33.878906 48.183594 33.988281 47.636719 33.886719 47.101562 C 33.789062 46.5625 33.488281 46.097656 33.042969 45.792969 L 32.71875 45.566406 C 33.027344 45.425781 33.304688 45.21875 33.507812 44.9375 L 34.3125 43.847656 C 34.632812 43.410156 34.765625 42.871094 34.683594 42.332031 C 34.605469 41.792969 34.320312 41.324219 33.882812 41.003906 L 32.421875 39.933594 C 32.804688 39.816406 33.152344 39.589844 33.410156 39.269531 L 34.242188 38.238281 C 34.585938 37.816406 34.738281 37.285156 34.679688 36.746094 C 34.617188 36.207031 34.347656 35.730469 33.917969 35.398438 L 30.53125 32.753906 C 30.472656 32.710938 30.375 32.675781 30.375 32.636719 Z M 27.625 36.3125 C 27.375 36.117188 27.214844 35.835938 27.179688 35.519531 C 27.140625 35.203125 27.234375 34.890625 27.433594 34.640625 L 28.269531 33.609375 C 28.507812 33.316406 28.867188 33.148438 29.257812 33.148438 C 29.535156 33.148438 29.800781 33.234375 30.019531 33.402344 L 33.429688 36.046875 C 33.683594 36.242188 33.84375 36.527344 33.878906 36.839844 C 33.914062 37.15625 33.824219 37.46875 33.621094 37.71875 L 32.789062 38.75 C 32.433594 39.1875 31.773438 39.320312 31.265625 39.089844 L 30.378906 38.441406 C 30.371094 38.4375 30.363281 38.433594 30.359375 38.429688 Z M 27.167969 41.363281 C 27.117188 41.042969 27.199219 40.726562 27.390625 40.464844 L 28.191406 39.375 C 28.421875 39.058594 28.796875 38.871094 29.191406 38.871094 C 29.441406 38.871094 29.683594 38.949219 29.886719 39.09375 L 33.414062 41.667969 C 33.671875 41.859375 33.84375 42.136719 33.890625 42.457031 C 33.9375 42.777344 33.859375 43.097656 33.667969 43.355469 L 32.863281 44.449219 C 32.621094 44.777344 32.207031 44.949219 31.800781 44.933594 L 27.644531 42.152344 C 27.382812 41.964844 27.214844 41.683594 27.167969 41.363281 Z M 26.855469 47.175781 C 26.589844 46.992188 26.410156 46.714844 26.351562 46.390625 C 26.289062 46.070312 26.355469 45.742188 26.535156 45.472656 L 27.316406 44.3125 C 27.539062 43.976562 27.914062 43.777344 28.320312 43.777344 C 28.5625 43.777344 28.796875 43.847656 28.996094 43.988281 L 32.59375 46.46875 C 32.855469 46.652344 33.035156 46.929688 33.097656 47.253906 C 33.15625 47.574219 33.089844 47.902344 32.910156 48.171875 L 32.132812 49.332031 C 31.90625 49.667969 31.53125 49.867188 31.128906 49.867188 C 30.886719 49.867188 30.652344 49.796875 30.453125 49.660156 Z M 27.527344 49.097656 C 27.769531 49.097656 28.003906 49.171875 28.203125 49.308594 L 31.785156 51.773438 C 32.050781 51.957031 32.230469 52.234375 32.292969 52.554688 C 32.351562 52.878906 32.285156 53.203125 32.105469 53.472656 L 31.316406 54.652344 C 31.089844 54.988281 30.714844 55.191406 30.308594 55.191406 C 30.066406 55.191406 29.835938 55.117188 29.636719 54.980469 L 26.050781 52.515625 C 25.785156 52.332031 25.605469 52.054688 25.546875 51.734375 C 25.484375 51.410156 25.550781 51.085938 25.730469 50.816406 L 26.519531 49.632812 C 26.746094 49.296875 27.121094 49.097656 27.527344 49.097656 Z M 27.527344 49.097656 "/></g><path style=" stroke:none;fill-rule:nonzero;fill:rgb(12.939453%,14.509583%,16.079712%);fill-opacity:1;" d="M 37.167969 57.054688 L 44.410156 57.054688 C 44.632812 57.054688 44.816406 56.871094 44.816406 56.648438 C 44.816406 56.421875 44.632812 56.238281 44.410156 56.238281 L 37.167969 56.238281 C 36.945312 56.238281 36.765625 56.421875 36.765625 56.648438 C 36.765625 56.871094 36.945312 57.054688 37.167969 57.054688 Z M 37.167969 57.054688 "/><path style=" stroke:none;fill-rule:nonzero;fill:rgb(12.939453%,14.509583%,16.079712%);fill-opacity:1;" d="M 37.546875 43.886719 C 37.613281 43.933594 37.695312 43.957031 37.773438 43.957031 C 37.898438 43.957031 38.027344 43.894531 38.105469 43.777344 L 44.140625 34.773438 C 44.265625 34.585938 44.21875 34.332031 44.035156 34.203125 C 43.851562 34.078125 43.601562 34.125 43.476562 34.3125 L 37.441406 43.316406 C 37.3125 43.503906 37.363281 43.757812 37.546875 43.886719 Z M 37.546875 43.886719 "/><path style=" stroke:none;fill-rule:nonzero;fill:rgb(12.939453%,14.509583%,16.079712%);fill-opacity:1;" d="M 43.675781 37.589844 L 40.457031 42.503906 C 40.332031 42.691406 40.382812 42.945312 40.566406 43.070312 C 40.636719 43.117188 40.714844 43.140625 40.789062 43.140625 C 40.921875 43.140625 41.046875 43.074219 41.125 42.957031 L 44.34375 38.042969 C 44.46875 37.855469 44.417969 37.601562 44.234375 37.476562 C 44.046875 37.351562 43.796875 37.402344 43.675781 37.589844 Z M 43.675781 37.589844 "/><path style=" stroke:none;fill-rule:nonzero;fill:rgb(12.939453%,14.509583%,16.079712%);fill-opacity:1;" d="M 37.570312 40.683594 C 37.699219 40.683594 37.828125 40.617188 37.90625 40.5 L 41.125 35.589844 C 41.25 35.398438 41.199219 35.144531 41.011719 35.019531 C 40.828125 34.894531 40.578125 34.945312 40.457031 35.132812 L 37.234375 40.046875 C 37.113281 40.234375 37.164062 40.488281 37.347656 40.613281 C 37.417969 40.660156 37.492188 40.683594 37.570312 40.683594 Z M 37.570312 40.683594 "/><path style=" stroke:none;fill-rule:nonzero;fill:rgb(12.939453%,14.509583%,16.079712%);fill-opacity:1;" d="M 50.003906 64.101562 C 49.824219 64.238281 49.792969 64.496094 49.929688 64.675781 L 53.953125 69.996094 C 54.03125 70.101562 54.152344 70.15625 54.273438 70.15625 C 54.359375 70.15625 54.445312 70.128906 54.515625 70.070312 C 54.691406 69.933594 54.726562 69.675781 54.589844 69.496094 L 50.566406 64.175781 C 50.429688 63.996094 50.179688 63.960938 50.003906 64.101562 Z M 50.003906 64.101562 "/><g clip-rule="nonzero" clip-path="url(#clip4)"><path style=" stroke:none;fill-rule:nonzero;fill:rgb(12.939453%,14.509583%,16.079712%);fill-opacity:1;" d="M 65.136719 70.972656 C 65.136719 71.085938 65.097656 71.183594 65.019531 71.261719 C 64.941406 71.34375 64.847656 71.382812 64.734375 71.382812 C 64.625 71.382812 64.527344 71.34375 64.449219 71.261719 C 64.371094 71.183594 64.332031 71.085938 64.332031 70.972656 C 64.332031 70.859375 64.371094 70.765625 64.449219 70.683594 C 64.527344 70.605469 64.625 70.5625 64.734375 70.5625 C 64.847656 70.5625 64.941406 70.605469 65.019531 70.683594 C 65.097656 70.765625 65.136719 70.859375 65.136719 70.972656 Z M 65.136719 70.972656 "/></g><path style=" stroke:none;fill-rule:nonzero;fill:rgb(12.939453%,14.509583%,16.079712%);fill-opacity:1;" d="M 57.511719 24.351562 L 54.292969 25.988281 C 54.09375 26.089844 54.011719 26.335938 54.113281 26.539062 C 54.183594 26.683594 54.324219 26.765625 54.472656 26.765625 C 54.535156 26.765625 54.59375 26.75 54.652344 26.722656 L 57.871094 25.085938 C 58.070312 24.984375 58.152344 24.738281 58.050781 24.535156 C 57.953125 24.332031 57.710938 24.25 57.511719 24.351562 Z M 57.511719 24.351562 "/><path style=" stroke:none;fill-rule:nonzero;fill:rgb(12.939453%,14.509583%,16.079712%);fill-opacity:1;" d="M 54.613281 29.246094 C 54.40625 29.167969 54.175781 29.273438 54.097656 29.488281 C 54.019531 29.699219 54.125 29.933594 54.332031 30.015625 L 57.550781 31.242188 C 57.597656 31.257812 57.644531 31.269531 57.691406 31.269531 C 57.855469 31.269531 58.007812 31.167969 58.070312 31.003906 C 58.148438 30.789062 58.042969 30.554688 57.832031 30.476562 Z M 54.613281 29.246094 "/><path style=" stroke:none;fill-rule:nonzero;fill:rgb(12.939453%,14.509583%,16.079712%);fill-opacity:1;" d="M 58.496094 27.992188 C 58.496094 27.765625 58.316406 27.585938 58.09375 27.585938 L 54.875 27.585938 C 54.652344 27.585938 54.472656 27.765625 54.472656 27.992188 C 54.472656 28.21875 54.652344 28.402344 54.875 28.402344 L 58.09375 28.402344 C 58.316406 28.402344 58.496094 28.21875 58.496094 27.992188 Z M 58.496094 27.992188 "/><g clip-rule="nonzero" clip-path="url(#clip5)"><path style=" stroke:none;fill-rule:nonzero;fill:rgb(12.939453%,14.509583%,16.079712%);fill-opacity:1;" d="M 81.300781 19.085938 C 81.300781 25.09375 76.433594 29.960938 70.425781 29.960938 C 64.417969 29.960938 59.550781 25.09375 59.550781 19.085938 C 59.550781 13.078125 64.417969 8.210938 70.425781 8.210938 C 76.433594 8.210938 81.300781 13.078125 81.300781 19.085938 "/></g><path style=" stroke:none;fill-rule:nonzero;fill:rgb(100%,100%,100%);fill-opacity:1;" d="M 64.277344 25.039062 L 64.277344 17.625 L 64.769531 17.972656 L 70.351562 21.933594 C 70.375 21.949219 70.398438 21.957031 70.425781 21.957031 C 70.449219 21.957031 70.476562 21.949219 70.496094 21.933594 L 76.082031 17.972656 L 76.570312 17.625 L 76.570312 25.039062 Z M 66.027344 18.554688 L 64.722656 17.628906 L 64.371094 17.382812 L 66.027344 16.226562 Z M 66.277344 13.972656 L 74.574219 13.972656 L 74.574219 18.734375 L 70.425781 21.679688 L 66.277344 18.734375 Z M 70.425781 13.160156 L 71.230469 13.722656 L 69.617188 13.722656 Z M 76.476562 17.382812 L 76.128906 17.628906 L 74.824219 18.554688 L 74.824219 16.226562 Z M 76.824219 17.378906 C 76.824219 17.359375 76.816406 17.335938 76.804688 17.316406 C 76.800781 17.3125 76.796875 17.308594 76.792969 17.304688 C 76.785156 17.292969 76.777344 17.285156 76.769531 17.277344 L 74.824219 15.921875 L 74.824219 13.847656 C 74.824219 13.777344 74.765625 13.722656 74.699219 13.722656 L 71.667969 13.722656 L 70.496094 12.902344 C 70.453125 12.871094 70.394531 12.871094 70.351562 12.902344 L 69.179688 13.722656 L 66.152344 13.722656 C 66.082031 13.722656 66.027344 13.777344 66.027344 13.847656 L 66.027344 15.921875 L 64.082031 17.277344 C 64.070312 17.285156 64.066406 17.292969 64.058594 17.304688 C 64.054688 17.308594 64.046875 17.3125 64.046875 17.316406 C 64.035156 17.335938 64.027344 17.359375 64.027344 17.378906 L 64.027344 25.164062 C 64.027344 25.234375 64.082031 25.289062 64.152344 25.289062 L 76.695312 25.289062 C 76.765625 25.289062 76.824219 25.234375 76.824219 25.164062 L 76.824219 17.378906 "/><path style=" stroke:none;fill-rule:nonzero;fill:rgb(100%,100%,100%);fill-opacity:1;" d="M 70.617188 15.664062 L 70.53125 18.636719 L 70.320312 18.636719 L 70.230469 15.664062 Z M 70.195312 18.890625 L 70.652344 18.890625 C 70.722656 18.890625 70.777344 18.835938 70.777344 18.765625 L 70.875 15.542969 C 70.875 15.507812 70.859375 15.476562 70.839844 15.453125 C 70.8125 15.429688 70.78125 15.414062 70.746094 15.414062 L 70.101562 15.414062 C 70.070312 15.414062 70.035156 15.429688 70.011719 15.453125 C 69.988281 15.476562 69.976562 15.507812 69.976562 15.542969 L 70.070312 18.765625 C 70.074219 18.835938 70.128906 18.890625 70.195312 18.890625 "/><path style=" stroke:none;fill-rule:nonzero;fill:rgb(100%,100%,100%);fill-opacity:1;" d="M 70.425781 19.433594 C 70.589844 19.433594 70.695312 19.542969 70.695312 19.722656 C 70.695312 19.871094 70.613281 20.015625 70.425781 20.015625 C 70.265625 20.015625 70.152344 19.894531 70.152344 19.722656 C 70.152344 19.554688 70.265625 19.433594 70.425781 19.433594 Z M 70.425781 20.265625 C 70.726562 20.265625 70.945312 20.039062 70.945312 19.722656 C 70.945312 19.402344 70.730469 19.183594 70.425781 19.183594 C 70.128906 19.183594 69.902344 19.414062 69.902344 19.722656 C 69.902344 20.03125 70.128906 20.265625 70.425781 20.265625 "/></g></svg>